<svg xmlns="http://www.w3.org/2000/svg" viewBox="0 0 512 512" enable-background="new 0 0 512 512"><defs><filter filterUnits="userSpaceOnUse" id="a" x="0" y="0" width="130%" height="130%"><feOffset result="offOut" in="SourceGraphic"/><feColorMatrix result="matrixOut" in="offOut" values="0.2 0 0 0 0 0 0.2 0 0 0 0 0 0.2 0 0 0 0 0 1 0"/><feGaussianBlur result="blurOut" in="matrixOut" stdDeviation="6"/><feBlend in="SourceGraphic" in2="blurOut"/></filter></defs><path filter="url(#a)" fill="#FFF" d="M410.8 91.3L246 256l164.7 164.7c3.9 3.9 5.9 8.6 5.9 14s-2 10.1-5.9 14l-51.5 51.5c-3.9 3.9-8.6 5.9-14 5.9s-10.1-2-14-5.9L101.2 270c-3.9-3.9-5.9-8.6-5.9-14s2-10.1 5.9-14L331.4 11.9C335.3 8 340 6 345.4 6s10.1 2 14 5.9l51.5 51.5c3.9 3.9 5.9 8.6 5.9 14-.2 5.4-2.1 9.9-6 13.9z"/></svg>