<svg xmlns="http://www.w3.org/2000/svg" viewBox="0 0 512 512" enable-background="new 0 0 512 512"><defs><filter filterUnits="userSpaceOnUse" id="a" x="0" y="0" width="130%" height="130%"><feOffset result="offOut" in="SourceGraphic"/><feColorMatrix result="matrixOut" in="offOut" values="0.2 0 0 0 0 0 0.2 0 0 0 0 0 0.2 0 0 0 0 0 1 0"/><feGaussianBlur result="blurOut" in="matrixOut" stdDeviation="6"/><feBlend in="SourceGraphic" in2="blurOut"/></filter></defs><path filter="url(#a)" fill="#fff" d="M410.8 270L180.6 500.1c-3.9 3.9-8.6 5.9-14 5.9s-10-2-14-5.9l-51.5-51.5c-3.9-3.9-5.9-8.6-5.9-14s2-10 5.9-14L265.9 256 101.2 91.3c-3.9-3.9-5.9-8.6-5.9-14s2-10 5.9-14l51.5-51.5c3.9-3.9 8.6-5.9 14-5.9s10 2 14 5.9L410.8 242c3.9 3.9 5.9 8.6 5.9 14s-2 10-5.9 14z"/></svg>