<svg width="48" height="24" viewBox="0 0 48 24" fill="none" xmlns="http://www.w3.org/2000/svg">
<g clip-path="url(#clip0)">
<path d="M13.9579 6.14248H11.7473V15.6412H8.33681V6.14248H6.12628V17.8575H12.821V19.6939H14.9052V15.6412H13.9579V6.14248Z" fill="#231F20"/>
<path d="M23.4947 8.35884V6.14248H16.6736V17.8575H23.4947V15.6412H18.821V12.8549H22.2315V10.7018H18.821V8.35884H23.4947Z" fill="#231F20"/>
<path d="M25.2632 8.35884H28.2948V17.8575H30.4421V8.35884H33.4106V6.14248H25.2632V8.35884Z" fill="#FD681C"/>
<path d="M34.9263 17.8575H41.8105V15.6412H37.1369V12.8549H40.4842V10.7018H37.1369V8.35884H41.8105V6.14248H34.9263V17.8575Z" fill="#FD681C"/>
<path d="M46.4842 0H40.1685V1.77309H46.2316V7.85224H48V1.51979C48 0.69657 47.3053 0 46.4842 0Z" fill="#FD681C"/>
<path d="M1.76842 16.2111H0V22.5435C0 23.3668 0.694737 24.0633 1.51579 24.0633H7.83158V22.2902H1.76842V16.2111Z" fill="#FD681C"/>
</g>
<defs>
<clipPath id="clip0">
<rect width="48" height="24" fill="white"/>
</clipPath>
</defs>
</svg>
