<?xml version="1.0" encoding="utf-8"?>
<!-- Generator: Adobe Illustrator 21.1.0, SVG Export Plug-In . SVG Version: 6.00 Build 0)  -->
<svg version="1.1" id="Layer_1" xmlns="http://www.w3.org/2000/svg" xmlns:xlink="http://www.w3.org/1999/xlink" x="0px" y="0px"
	 viewBox="0 0 513.9 108.9" style="enable-background:new 0 0 513.9 108.9;" xml:space="preserve">
<style type="text/css">
	.st0{fill:#FFFFFF;}
</style>
<path class="st0" d="M56.9,14.8V7c0-3.9-3.2-7-7.1-7s-7,3.2-7,7v7.7C20,18.1,2.4,37.7,2.4,61.4c0,26,21.2,47.2,47.2,47.2
	s47.2-21.2,47.2-47.2C96.7,37.9,79.4,18.4,56.9,14.8z M49.6,100C28.3,100,11,82.7,11,61.4c0-18.9,13.7-34.7,31.8-37.9v8.4
	c0,2.3,1.1,4.4,2.8,5.7v7.1H29.7c-1.8,0-3.5,0.9-4.5,2.5c-0.9,1.6-1,3.5-0.1,5.1l20.1,38.3c0.9,1.7,2.7,2.8,4.6,2.8
	c2,0,3.7-1.1,4.6-2.8l20.1-38.3c0.8-1.6,0.8-3.6-0.2-5.1c-0.9-1.5-2.6-2.5-4.4-2.5H54v-7.1c1.8-1.3,2.9-3.4,2.9-5.7v-8.4
	C74.7,27,88.1,42.7,88.1,61.4C88.1,82.7,70.8,100,49.6,100z M336.2,83.5h-15.5V64.8h13.2V48.4h-13.2V32.3h14V15.1h-35.1v85.6h36.6
	V83.5z M176.6,32.2h6.6v68.4h21V15.1h-48.6v85.5h21V32.2z M148.6,83.6H133V64.8h13.3V48.4H133V32.1h14.3v-17h-35.6v85.5h36.9V83.6z
	 M364.2,64.9h6.5v35.8h21.1V15.2h-21.1v30.7h-6.5V15.2h-21v85.5h21V64.9z M411.2,100.7h21V32.3h12.6V15.2h-46.1v17.1h12.5V100.7z
	 M232.2,15.1h-21v85.5h21V15.1z M292.7,83.5h-4.5V15.1H267v68.4h-6.6V15.1h-21.2v85.4H278v8.4h14.7V83.5z M496.4,27.2
	c-0.5-2.6-1.6-4.7-3.1-6.5c-1.6-1.8-3.9-3.2-7-4.1c-3.1-1-7.5-1.4-13.2-1.4h-21.3v85.5h21V66.2h5.7c4.6,0,8.4-0.7,11.2-2
	c2.9-1.3,4.8-3.3,5.9-5.8s1.6-6.5,1.6-11.9V39C497.2,33.7,496.9,29.7,496.4,27.2L496.4,27.2z M474.9,49.9c-6.1,0-11.1-5-11.1-11.1
	s5-11.1,11.1-11.1s11.1,5,11.1,11.1C486,45,481,49.9,474.9,49.9z"/>
<path class="st0" d="M474.9,30.4c-4.7,0-8.5,3.8-8.5,8.4c0,4.7,3.8,8.4,8.5,8.4s8.5-3.8,8.5-8.4C483.3,34.2,479.5,30.4,474.9,30.4z
	 M476.4,44.4l-2.4-4.6v4.6h-3.5v-11h3.5v4.7l2.3-4.7h4.1l-3,5.5l3.4,5.6L476.4,44.4L476.4,44.4z"/>
<g>
	<path class="st0" d="M510.6,24.5l-1.1-1.8c-0.2-0.3-0.4-0.6-0.7-0.8c0.3-0.1,0.6-0.3,0.8-0.5c0.4-0.4,0.5-0.9,0.5-1.4
		c0-0.4-0.1-0.8-0.3-1.2c-0.2-0.4-0.5-0.6-0.9-0.8c-0.4-0.1-0.8-0.2-1.5-0.2h-3.3v7.3h1.7v-2.9h1c0.1,0,0.2,0.1,0.3,0.1
		c0.1,0,0.2,0.1,0.3,0.3c0.2,0.2,0.4,0.5,0.6,0.9l0.9,1.3L509,25h2L510.6,24.5L510.6,24.5z M508.4,20.4c-0.1,0.1-0.2,0.2-0.3,0.2
		c-0.2,0.1-0.4,0.1-0.8,0.1h-1.5v-1.4h1.7c0.4,0,0.7,0.1,0.8,0.2c0.1,0.1,0.2,0.3,0.2,0.5C508.5,20.1,508.4,20.2,508.4,20.4
		L508.4,20.4z"/>
	<path class="st0" d="M512.5,21.5c0,2.9-2.4,5.3-5.3,5.3s-5.3-2.4-5.3-5.3s2.4-5.3,5.3-5.3C510.1,16.1,512.5,18.5,512.5,21.5z
		 M507.2,14.8c-3.7,0-6.7,3-6.7,6.7s3,6.7,6.7,6.7c3.7,0,6.7-3,6.7-6.7C513.9,17.8,510.8,14.8,507.2,14.8z"/>
</g>
</svg>
