<?xml version="1.0" encoding="utf-8"?>
<!-- Generator: Adobe Illustrator 22.1.0, SVG Export Plug-In . SVG Version: 6.00 Build 0)  -->
<svg version="1.1" id="Layer_1" xmlns="http://www.w3.org/2000/svg" xmlns:xlink="http://www.w3.org/1999/xlink" x="0px" y="0px"
	 viewBox="0 0 361 93.3" style="enable-background:new 0 0 361 93.3;" xml:space="preserve">
<g>
	<g>
		<path d="M114.8,20.5h-2.8c-1.4,0-1.9,0-2.5-0.4c-0.8-0.4-1.4-1.4-1.4-2.6c0-1.2,0.6-2.2,1.4-2.6c0.7-0.3,1.2-0.4,2.5-0.4h12.2
			c1.4,0,1.9,0,2.5,0.4c0.8,0.4,1.4,1.4,1.4,2.6c0,1.2-0.6,2.2-1.4,2.6c-0.7,0.3-1.2,0.4-2.5,0.4h-2.8v16.6c0,1.5,0,2-0.4,2.8
			c-0.5,0.9-1.6,1.6-2.9,1.6c-1.3,0-2.4-0.7-2.9-1.6c-0.4-0.8-0.4-1.3-0.4-2.8V20.5z"/>
		<path d="M139.7,41.6c-3.3,0-5.6-1-7.5-2.9c-2.7-2.7-2.8-6.2-2.8-10.7s0-8,2.8-10.7c1.9-1.9,4.2-2.9,7.5-2.9s5.6,1,7.5,2.9
			c2.7,2.7,2.8,6.2,2.8,10.7s0,8-2.8,10.7C145.3,40.6,143,41.6,139.7,41.6z M143.3,28c0-4.9-0.4-5.8-1-6.6c-0.5-0.6-1.4-1.2-2.6-1.2
			s-2.1,0.5-2.6,1.2c-0.6,0.8-1,1.7-1,6.6s0.4,5.8,1,6.5c0.5,0.6,1.4,1.2,2.6,1.2s2.1-0.6,2.6-1.2C143,33.7,143.3,32.9,143.3,28z"/>
		<path d="M154,18.6c0-1,0-2.2,0.9-3.1c0.9-0.9,2.1-0.9,3.1-0.9h6.6c5.9,0,9.1,4.2,9.1,8.6s-3.2,8.6-9.1,8.6h-4v5.3
			c0,1.5,0,2-0.4,2.8c-0.5,0.9-1.6,1.6-2.9,1.6s-2.4-0.7-2.9-1.6c-0.4-0.8-0.4-1.3-0.4-2.8V18.6z M164.3,25.9c1.8,0,2.9-1.3,2.9-2.7
			s-1.1-2.7-2.9-2.7h-3.7v5.5H164.3z"/>
		<path d="M177.1,18.6c0-1,0-2.2,0.9-3.1c0.9-0.9,2.1-0.9,3.1-0.9h9.5c1.4,0,1.9,0,2.5,0.4c0.8,0.4,1.4,1.4,1.4,2.6
			c0,1.2-0.6,2.2-1.4,2.6c-0.7,0.3-1.2,0.4-2.5,0.4h-6.9v16.6c0,1.5,0,2-0.4,2.8c-0.5,0.9-1.6,1.6-2.9,1.6s-2.4-0.7-2.9-1.6
			c-0.4-0.8-0.4-1.3-0.4-2.8V18.6z"/>
		<path d="M206.3,41.6c-3.3,0-5.5-1-7.5-2.9c-2.7-2.7-2.8-6.2-2.8-10.7s0-8,2.8-10.7c1.9-1.9,4.2-2.9,7.5-2.9c3.3,0,5.6,1,7.5,2.9
			c2.7,2.7,2.8,6.2,2.8,10.7s0,8-2.8,10.7C211.9,40.6,209.6,41.6,206.3,41.6z M209.9,28c0-4.9-0.4-5.8-1-6.6
			c-0.5-0.6-1.4-1.2-2.6-1.2s-2.1,0.5-2.6,1.2c-0.6,0.8-1,1.7-1,6.6s0.4,5.8,1,6.5c0.5,0.6,1.4,1.2,2.6,1.2s2.1-0.6,2.6-1.2
			C209.6,33.7,209.9,32.9,209.9,28z"/>
		<path d="M224.6,41.4c-1,0-2.2,0-3.1-0.9s-0.9-2.1-0.9-3.1V18.6c0-1,0-2.2,0.9-3.1c0.9-0.9,2.1-0.9,3.1-0.9h7.1
			c5.6,0,8.5,3.1,8.5,7.8c0,3-2.1,4.7-2.9,5.3c1.1,0.7,3.3,2.1,3.3,5.8c0,5.1-3.6,7.9-8.4,7.9H224.6z M231.3,24.9
			c1.8,0,2.4-1.1,2.4-2.2c0-1.1-0.6-2.2-2.4-2.2h-4.1v4.4H231.3z M231.6,35.5c1.8,0,2.4-1.3,2.4-2.4c0-1.1-0.6-2.3-2.4-2.3h-4.4v4.7
			H231.6z"/>
		<path d="M248.7,41.4c-1,0-2.2,0-3.1-0.9s-0.9-2.1-0.9-3.1V18.6c0-1,0-2.2,0.9-3.1c0.9-0.9,2.1-0.9,3.1-0.9h10.4
			c1.4,0,1.9,0,2.5,0.4c0.8,0.4,1.4,1.4,1.4,2.6c0,1.2-0.6,2.2-1.4,2.6c-0.7,0.3-1.2,0.4-2.5,0.4h-7.9v4.5h6.2c1.4,0,1.9,0,2.5,0.4
			c0.8,0.4,1.4,1.4,1.4,2.6c0,1.2-0.6,2.2-1.4,2.6c-0.7,0.3-1.2,0.4-2.5,0.4h-6.2v4.7h7.9c1.4,0,1.9,0,2.5,0.4
			c0.8,0.4,1.4,1.4,1.4,2.6c0,1.2-0.6,2.2-1.4,2.6c-0.7,0.3-1.2,0.4-2.5,0.4H248.7z"/>
		<path d="M282.8,20.5h-4.7v7c0,11.2-2.8,13.9-8.6,13.9c-1.6,0-2.1,0-2.8-0.4c-0.8-0.4-1.4-1.4-1.4-2.6c0-0.8,0.3-1.6,0.8-2.1
			c0.6-0.6,1.2-0.8,2.2-0.8c3.4-0.2,3.5-4.5,3.5-8.5v-8.3c0-1,0-2.2,0.9-3.1c0.9-0.9,2.1-0.9,3.1-0.9h9.6c1,0,2.2,0,3.1,0.9
			c0.9,0.9,0.9,2.1,0.9,3.1v18.5c0,1.5,0,2-0.4,2.8c-0.5,0.9-1.6,1.6-2.9,1.6c-1.3,0-2.4-0.7-2.9-1.6c-0.4-0.8-0.4-1.3-0.4-2.8V20.5
			z"/>
		<path d="M298.3,41.4c-1,0-2.2,0-3.1-0.9s-0.9-2.1-0.9-3.1V18.9c0-1.5,0-2,0.4-2.8c0.5-0.9,1.6-1.6,2.9-1.6c1.3,0,2.4,0.7,2.9,1.6
			c0.4,0.8,0.4,1.3,0.4,2.8v5.3h4c5.9,0,9.1,4.2,9.1,8.6c0,4.4-3.2,8.6-9.1,8.6H298.3z M304.6,35.5c1.8,0,2.9-1.3,2.9-2.7
			c0-1.4-1.1-2.7-2.9-2.7h-3.7v5.5H304.6z"/>
		<path d="M337.3,39.9c-0.5,0.9-1.6,1.6-2.9,1.6c-1.3,0-2.4-0.7-2.9-1.6c-0.4-0.8-0.4-1.3-0.4-2.8v-6.3h-7v6.3c0,1.5,0,2-0.4,2.8
			c-0.5,0.9-1.6,1.6-2.9,1.6c-1.3,0-2.4-0.7-2.9-1.6c-0.4-0.8-0.4-1.3-0.4-2.8V18.9c0-1.5,0-2,0.4-2.8c0.5-0.9,1.6-1.6,2.9-1.6
			c1.3,0,2.4,0.7,2.9,1.6c0.4,0.8,0.4,1.3,0.4,2.8v6h7v-6c0-1.5,0-2,0.4-2.8c0.5-0.9,1.6-1.6,2.9-1.6c1.3,0,2.4,0.7,2.9,1.6
			c0.4,0.8,0.4,1.3,0.4,2.8v18.2C337.7,38.6,337.6,39.1,337.3,39.9z"/>
		<path d="M346.6,41.4c-1,0-2.2,0-3.1-0.9s-0.9-2.1-0.9-3.1V18.6c0-1,0-2.2,0.9-3.1c0.9-0.9,2.1-0.9,3.1-0.9H357
			c1.4,0,1.9,0,2.5,0.4c0.8,0.4,1.4,1.4,1.4,2.6c0,1.2-0.6,2.2-1.4,2.6c-0.7,0.3-1.2,0.4-2.5,0.4h-7.9v4.5h6.2c1.4,0,1.9,0,2.5,0.4
			c0.8,0.4,1.4,1.4,1.4,2.6c0,1.2-0.6,2.2-1.4,2.6c-0.7,0.3-1.2,0.4-2.5,0.4h-6.2v4.7h7.9c1.4,0,1.9,0,2.5,0.4
			c0.8,0.4,1.4,1.4,1.4,2.6c0,1.2-0.6,2.2-1.4,2.6c-0.7,0.3-1.2,0.4-2.5,0.4H346.6z"/>
		<path d="M119.3,78.3c-3.3,0-5.6-1-7.5-2.9c-2.7-2.7-2.8-6.2-2.8-10.7s0-8,2.8-10.7c1.9-1.9,4.2-2.9,7.5-2.9s5.6,1,7.5,2.9
			c2.7,2.7,2.8,6.2,2.8,10.7s0,8-2.8,10.7C124.8,77.3,122.5,78.3,119.3,78.3z M122.9,64.7c0-4.9-0.4-5.8-1-6.6
			c-0.5-0.6-1.4-1.2-2.6-1.2s-2.1,0.5-2.6,1.2c-0.6,0.8-1,1.7-1,6.6s0.4,5.8,1,6.5c0.5,0.6,1.4,1.2,2.6,1.2s2.1-0.6,2.6-1.2
			C122.5,70.4,122.9,69.6,122.9,64.7z"/>
		<path d="M138.5,78.1c-1,0-2.2,0-3.1-0.9c-0.9-0.9-0.9-2.1-0.9-3.1V55.3c0-1,0-2.2,0.9-3.1c0.9-0.9,2.1-0.9,3.1-0.9h10.5
			c1.4,0,1.9,0,2.5,0.4c0.8,0.4,1.4,1.4,1.4,2.6c0,1.2-0.6,2.2-1.4,2.6c-0.7,0.3-1.2,0.4-2.5,0.4H141v3.7h4.5c5.6,0,9,3.6,9,8.6
			c0,5-3.3,8.6-9,8.6H138.5z M145.2,72.2c1.7,0,2.7-1.2,2.7-2.7c0-1.5-1-2.7-2.7-2.7H141v5.5H145.2z"/>
		<path d="M173.7,57.2H169v7c0,11.2-2.8,13.9-8.6,13.9c-1.6,0-2.1,0-2.8-0.4c-0.8-0.4-1.4-1.4-1.4-2.6c0-0.8,0.3-1.6,0.8-2.1
			c0.6-0.6,1.2-0.8,2.2-0.8c3.4-0.2,3.5-4.5,3.5-8.5v-8.3c0-1,0-2.2,0.9-3.1s2.1-0.9,3.1-0.9h9.6c1,0,2.2,0,3.1,0.9
			c0.9,0.9,0.9,2.1,0.9,3.1v18.5c0,1.5,0,2-0.4,2.8c-0.5,0.9-1.6,1.6-2.9,1.6s-2.4-0.7-2.9-1.6c-0.4-0.8-0.4-1.3-0.4-2.8V57.2z"/>
		<path d="M191.9,54.1c0.5-1.2,0.8-1.8,1.4-2.2c0.7-0.5,1.4-0.7,2.3-0.7s1.7,0.2,2.3,0.7c0.5,0.4,0.9,1,1.4,2.2l7.1,19
			c0.6,1.7,1,3-0.2,4.2c-0.6,0.6-1.5,1-2.4,1c-0.7,0-1.4-0.2-1.9-0.7c-0.6-0.5-0.8-1-1.3-2.4l-0.4-1.1h-9.4l-0.4,1.1
			c-0.5,1.4-0.7,1.9-1.3,2.4c-0.5,0.4-1.1,0.7-1.9,0.7c-0.9,0-1.8-0.4-2.4-1c-1.3-1.3-0.8-2.6-0.2-4.2L191.9,54.1z M195.6,61.1
			l-2.7,7.5h5.4L195.6,61.1z"/>
		<path d="M234.6,79.5c0,1.5,0,2-0.4,2.7c-0.4,0.9-1.5,1.5-2.7,1.5c-1.2,0-2.3-0.6-2.7-1.5c-0.3-0.7-0.4-1.2-0.4-2.7v-1.4h-13.3v1.4
			c0,1.5,0,2-0.4,2.7c-0.4,0.9-1.5,1.5-2.7,1.5c-1.2,0-2.3-0.6-2.7-1.5c-0.3-0.7-0.4-1.2-0.4-2.7v-3.1c0-1.5,0-2,0.4-2.7
			c0.4-0.8,1.2-1.3,2.3-1.5c1.8-4.6,2.7-11,2.7-16.9v-0.3c0-0.8,0-2,0.9-2.9c0.8-0.8,1.9-0.8,2.9-0.8h9.5c1,0,2.2,0,3.1,0.9
			s0.9,2.1,0.9,3.1v16.9c1.2,0,2.3,0.6,2.7,1.5c0.3,0.7,0.4,1.2,0.4,2.7V79.5z M224.9,57.2h-4.2v0.7c0,6.4-1,10.4-2.4,14.3h6.6V57.2
			z"/>
		<path d="M258.4,76.6c-0.5,0.9-1.6,1.6-2.9,1.6c-1.3,0-2.4-0.7-2.9-1.6c-0.4-0.8-0.4-1.3-0.4-2.8v-6.3h-7v6.3c0,1.5,0,2-0.4,2.8
			c-0.5,0.9-1.6,1.6-2.9,1.6c-1.3,0-2.4-0.7-2.9-1.6c-0.4-0.8-0.4-1.3-0.4-2.8V55.6c0-1.5,0-2,0.4-2.8c0.5-0.9,1.6-1.6,2.9-1.6
			c1.3,0,2.4,0.7,2.9,1.6c0.4,0.8,0.4,1.3,0.4,2.8v6h7v-6c0-1.5,0-2,0.4-2.8c0.5-0.9,1.6-1.6,2.9-1.6c1.3,0,2.4,0.7,2.9,1.6
			c0.4,0.8,0.4,1.3,0.4,2.8v18.2C258.8,75.3,258.8,75.8,258.4,76.6z"/>
		<path d="M270.4,54.1c0.5-1.2,0.8-1.8,1.4-2.2c0.7-0.5,1.4-0.7,2.3-0.7s1.7,0.2,2.3,0.7c0.5,0.4,0.9,1,1.4,2.2l7.1,19
			c0.6,1.7,1,3-0.2,4.2c-0.6,0.6-1.5,1-2.4,1c-0.7,0-1.4-0.2-1.9-0.7c-0.6-0.5-0.8-1-1.3-2.4l-0.4-1.1h-9.4l-0.4,1.1
			c-0.5,1.4-0.7,1.9-1.3,2.4c-0.5,0.4-1.1,0.7-1.9,0.7c-0.9,0-1.8-0.4-2.4-1c-1.3-1.3-0.8-2.6-0.2-4.2L270.4,54.1z M274.1,61.1
			l-2.7,7.5h5.4L274.1,61.1z"/>
		<path d="M309.2,76.6c-0.5,0.9-1.6,1.6-2.9,1.6c-1.3,0-2.4-0.7-2.9-1.6c-0.4-0.8-0.4-1.3-0.4-2.8v-6.3h-7v6.3c0,1.5,0,2-0.4,2.8
			c-0.5,0.9-1.6,1.6-2.9,1.6c-1.3,0-2.4-0.7-2.9-1.6c-0.4-0.8-0.4-1.3-0.4-2.8V55.6c0-1.5,0-2,0.4-2.8c0.5-0.9,1.6-1.6,2.9-1.6
			c1.3,0,2.4,0.7,2.9,1.6c0.4,0.8,0.4,1.3,0.4,2.8v6h7v-6c0-1.5,0-2,0.4-2.8c0.5-0.9,1.6-1.6,2.9-1.6c1.3,0,2.4,0.7,2.9,1.6
			c0.4,0.8,0.4,1.3,0.4,2.8v18.2C309.7,75.3,309.6,75.8,309.2,76.6z"/>
		<path d="M335.3,76.6c-0.5,0.9-1.6,1.6-2.9,1.6c-1.3,0-2.4-0.7-2.9-1.6c-0.4-0.8-0.4-1.3-0.4-2.8v-6.3h-7v6.3c0,1.5,0,2-0.4,2.8
			c-0.5,0.9-1.6,1.6-2.9,1.6c-1.3,0-2.4-0.7-2.9-1.6c-0.4-0.8-0.4-1.3-0.4-2.8V55.6c0-1.5,0-2,0.4-2.8c0.5-0.9,1.6-1.6,2.9-1.6
			c1.3,0,2.4,0.7,2.9,1.6c0.4,0.8,0.4,1.3,0.4,2.8v6h7v-6c0-1.5,0-2,0.4-2.8c0.5-0.9,1.6-1.6,2.9-1.6c1.3,0,2.4,0.7,2.9,1.6
			c0.4,0.8,0.4,1.3,0.4,2.8v18.2C335.7,75.3,335.7,75.8,335.3,76.6z"/>
		<path d="M353.9,68.5h-2.7l-4,7.1c-0.8,1.3-1.6,2.6-3.3,2.6c-0.6,0-1.1-0.2-1.7-0.5c-1.1-0.6-1.6-1.5-1.6-2.6c0-0.8,0.2-1.4,1-2.7
			l3-5.3c-2.6-1.6-3.9-4.4-3.9-7.2c0-4.4,3.2-8.6,9.1-8.6h6.6c1,0,2.2,0,3.1,0.9s0.9,2.1,0.9,3.1v18.5c0,1.5,0,2-0.4,2.8
			c-0.5,0.9-1.6,1.6-2.9,1.6c-1.3,0-2.4-0.7-2.9-1.6c-0.4-0.8-0.4-1.3-0.4-2.8V68.5z M353.9,57.2h-3.7c-1.8,0-2.9,1.3-2.9,2.7
			s1.1,2.7,2.9,2.7h3.7V57.2z"/>
	</g>
	<g>
		<path d="M37,65.2V36.9c0-2.7,2.2-4.9,4.9-4.9h0c2.7,0,4.9,2.2,4.9,4.9v28.3c0,2.7-2.2,4.9-4.9,4.9h0C39.1,70.1,37,67.9,37,65.2z"
			/>
		<path d="M27.7,29.1H56c2.7,0,4.9,2.2,4.9,4.9v0c0,2.7-2.2,4.9-4.9,4.9H27.7c-2.7,0-4.9-2.2-4.9-4.9v0C22.8,31.3,25,29.1,27.7,29.1
			z"/>
		<path d="M36.5,1.4l-31.2,18C2,21.3,0,24.8,0,28.6v36.1c0,3.8,2,7.3,5.3,9.2l31.2,18c3.3,1.9,7.3,1.9,10.6,0l31.2-18
			c3.3-1.9,5.3-5.4,5.3-9.2V28.6c0-3.8-2-7.3-5.3-9.2l-31.2-18C43.9-0.5,39.8-0.5,36.5,1.4z M69.5,68.7L47.1,81.6
			c-3.3,1.9-7.3,1.9-10.6,0L14.2,68.7c-3.3-1.9-5.3-5.4-5.3-9.2V33.8c0-3.8,2-7.3,5.3-9.2l22.3-12.9c3.3-1.9,7.3-1.9,10.6,0
			l22.3,12.9c3.3,1.9,5.3,5.4,5.3,9.2v25.8C74.8,63.4,72.7,66.8,69.5,68.7z"/>
	</g>
</g>
</svg>
