<?xml version="1.0" encoding="utf-8"?>
<!-- Generator: Adobe Illustrator 22.1.0, SVG Export Plug-In . SVG Version: 6.00 Build 0)  -->
<svg version="1.1" id="Слой_1" xmlns="http://www.w3.org/2000/svg" xmlns:xlink="http://www.w3.org/1999/xlink" x="0px" y="0px"
	 viewBox="0 0 614 564" style="enable-background:new 0 0 614 564;" xml:space="preserve">
<style type="text/css">
	.st0{fill:#7FC6E8;}
	.st1{fill:#5160A1;}
	.st2{fill:#D9E054;}
	.st3{fill:#E39DA8;}
	.st4{fill:#979695;}
	.st5{clip-path:url(#SVGID_2_);fill:#979695;}
	.st6{clip-path:url(#SVGID_4_);fill:#DADADA;}
	.st7{clip-path:url(#SVGID_4_);fill:#E0DFE0;}
	.st8{clip-path:url(#SVGID_6_);fill:#BCBBBC;}
	.st9{clip-path:url(#SVGID_6_);fill:#C1C1C1;}
	.st10{clip-path:url(#SVGID_6_);fill:#C6C6C6;}
	.st11{clip-path:url(#SVGID_6_);fill:#CBCBCB;}
	.st12{clip-path:url(#SVGID_6_);fill:#D0D0D0;}
	.st13{clip-path:url(#SVGID_6_);fill:#D5D5D5;}
	.st14{clip-path:url(#SVGID_6_);fill:#DADADA;}
	.st15{fill:#FFFFFF;}
	.st16{clip-path:url(#SVGID_8_);fill:#A0A09F;}
	.st17{clip-path:url(#SVGID_8_);fill:#9C9B9A;}
	.st18{clip-path:url(#SVGID_8_);fill:#979695;}
	.st19{clip-path:url(#SVGID_8_);fill:#929190;}
	.st20{clip-path:url(#SVGID_8_);fill:#8D8C8B;}
	.st21{clip-path:url(#SVGID_8_);fill:#888786;}
	.st22{clip-path:url(#SVGID_8_);fill:#848381;}
	.st23{clip-path:url(#SVGID_10_);fill:#848381;}
	.st24{fill:#AAA9A9;}
	.st25{fill:#EBEBED;}
	.st26{clip-path:url(#SVGID_12_);fill:#EBEBED;}
	.st27{fill:#AFAEAE;}
	.st28{clip-path:url(#SVGID_14_);fill:#AFAEAE;}
	.st29{clip-path:url(#SVGID_16_);fill:#AFAEAE;}
	.st30{fill:#A9AAAE;}
</style>
<rect class="st0" width="614" height="564"/>
<path class="st1" d="M244.7,483.2H88.3V318h156.4V483.2z M257.5,304.5h-182v192.2h182V304.5z"/>
<path class="st2" d="M96.6,474h152.3V321.6H96.6V474z M106.9,332h131.7v131.7H106.9V332z"/>
<path class="st1" d="M541.2,252.2H376V87.1h165.2V252.2z M554.7,73.6H362.5v192.2h192.2V73.6z"/>
<path class="st2" d="M383.5,243.1h152.3V90.7H383.5V243.1z M393.9,101.1h131.7v131.7H393.9V101.1z"/>
<rect x="319.2" y="385.3" class="st3" width="226.2" height="59.9"/>
<g>
	<path class="st4" d="M450.4,451.7l-33.1-23.1c0.8,0.6,1.6,1.1,2.5,1.5c5.4,2.8,10.9,4.5,16.6,5.2c5.7,0.7,11.4,0.8,17,0.4
		c5.7-0.4,11-1.1,16-2.1c5-1,10.6-2.3,16.8-3.9l33.1,23.1c-6.2,1.6-11.8,2.9-16.8,3.9c-5,1-10.3,1.7-16,2.1
		c-5.7,0.4-11.4,0.3-17-0.4c-5.7-0.6-11.2-2.4-16.6-5.2C452,452.8,451.2,452.3,450.4,451.7"/>
</g>
<g>
	<defs>
		<path id="SVGID_1_" d="M450.4,451.7c0.8,0.6,1.6,1.1,2.5,1.5c5.4,2.8,10.9,4.5,16.6,5.2c5.7,0.7,11.4,0.8,17,0.4
			c5.7-0.4,11-1.1,16-2.1c5-1,10.6-2.3,16.8-3.9l-33.1-23.1c-6.2,1.6-11.8,2.9-16.8,3.9c-5,1-10.3,1.7-16,2.1
			c-5.7,0.4-11.4,0.3-17-0.4c-5.7-0.6-11.2-2.4-16.6-5.2c-0.9-0.4-1.7-0.9-2.5-1.5L450.4,451.7z"/>
	</defs>
	<clipPath id="SVGID_2_">
		<use xlink:href="#SVGID_1_"  style="overflow:visible;"/>
	</clipPath>
	<path class="st5" d="M450.4,451.7l-33.1-23.1c0.8,0.6,1.6,1.1,2.5,1.5c1.3,0.7,2.6,1.3,4,1.9l33.1,23.1c-1.3-0.6-2.6-1.2-4-1.9
		C452,452.8,451.2,452.3,450.4,451.7"/>
	<path class="st5" d="M456.8,455.1L423.8,432c4.1,1.7,8.4,2.8,12.7,3.3c4.2,0.5,8.5,0.7,12.8,0.6l33.1,23.1
		c-4.3,0.1-8.5-0.1-12.8-0.6C465.2,457.9,461,456.8,456.8,455.1"/>
	<path class="st5" d="M482.3,459l-33.1-23.1c1.4,0,2.9-0.1,4.3-0.2c5.7-0.4,11-1.1,16-2.1c5-1,10.6-2.3,16.8-3.9l33.1,23.1
		c-6.2,1.6-11.8,2.9-16.8,3.9c-5,1-10.3,1.7-16,2.1C485.1,458.9,483.7,459,482.3,459"/>
</g>
<g>
	<defs>
		<path id="SVGID_3_" d="M435.1,291.6l34.7,24.2c9.5-0.7,19.5-0.8,30.1-0.3c10.5,0.5,19.9,1.3,28.1,2.6l-34.7-24.2
			c-8.2-1.3-17.6-2.1-28.1-2.6c-4.4-0.2-8.6-0.3-12.8-0.3C446.5,291,440.7,291.2,435.1,291.6"/>
	</defs>
	<clipPath id="SVGID_4_">
		<use xlink:href="#SVGID_3_"  style="overflow:visible;"/>
	</clipPath>
	<path class="st6" d="M469.8,315.9l-34.7-24.2c3.7-0.3,7.5-0.4,11.3-0.5l34.7,24.2C477.3,315.4,473.5,315.6,469.8,315.9"/>
	<path class="st7" d="M481.2,315.4l-34.7-24.2c6.1-0.1,12.3-0.1,18.8,0.2c10.5,0.5,19.9,1.3,28.1,2.6l34.7,24.2
		c-8.2-1.3-17.6-2.1-28.1-2.6C493.5,315.3,487.2,315.2,481.2,315.4"/>
</g>
<g>
	<defs>
		<path id="SVGID_5_" d="M407,297.6c-12.1,2.9-23.4,9-33.9,18.4c-10.6,9.4-17.7,19.5-21.5,30.5c-3.8,10.9-6.2,19.3-7.1,25.2
			c-0.9,5.9-1.4,12.3-1.5,19.4c-0.1,12.7,1.6,25,4.9,36.8c3.4,11.8,9.2,22.2,17.6,31.2c2.9,3.1,6.1,5.8,9.5,8.3l33.1,23.1
			c-3.5-2.4-6.6-5.2-9.5-8.3c-8.4-8.9-14.3-19.3-17.6-31.2c-3.4-11.8-5-24.1-4.9-36.8c0-7.1,0.5-13.5,1.5-19.4
			c0.9-5.9,3.3-14.3,7.1-25.2c3.8-10.9,11-21.1,21.5-30.5c10.5-9.4,21.9-15.5,34-18.4c12.1-2.9,22.9-4.6,32.5-5.3l-33.1-23.1
			C430,292.9,419.1,294.7,407,297.6"/>
	</defs>
	<clipPath id="SVGID_6_">
		<use xlink:href="#SVGID_5_"  style="overflow:visible;"/>
	</clipPath>
	<path class="st8" d="M408.1,490.3l-33.1-23.1c-3.5-2.4-6.6-5.2-9.5-8.3c-8.4-8.9-14.3-19.3-17.6-31.2c-3.4-11.8-5-24.1-4.9-36.8
		c0.1-7.1,0.5-13.5,1.5-19.4c0.9-5.9,3.3-14.3,7.1-25.2c1.8-5,4.2-9.9,7.4-14.6l33.1,23.1c-3.2,4.7-5.6,9.5-7.4,14.6
		c-3.8,10.9-6.2,19.3-7.1,25.2c-0.9,5.9-1.4,12.3-1.5,19.4c-0.1,12.7,1.6,25,4.9,36.8c3.4,11.8,9.2,22.2,17.6,31.2
		C401.5,485.1,404.7,487.9,408.1,490.3"/>
	<path class="st9" d="M392,354.9l-33.1-23.1c2.2-3.3,4.8-6.6,7.8-9.7l33.1,23.1C396.8,348.3,394.2,351.6,392,354.9"/>
	<path class="st10" d="M399.8,345.2l-33.1-23.1c2-2.1,4.1-4.1,6.4-6.2c1.1-1,2.2-1.9,3.3-2.8l33.1,23.1c-1.1,0.9-2.2,1.8-3.3,2.8
		C403.9,341,401.8,343.1,399.8,345.2"/>
	<path class="st11" d="M409.5,336.2l-33.1-23.1c3-2.4,6-4.6,9.2-6.5l33.1,23.1C415.5,331.6,412.5,333.8,409.5,336.2"/>
	<path class="st12" d="M418.6,329.7l-33.1-23.1c3-1.9,6.1-3.5,9.2-4.8l33.1,23.1C424.7,326.2,421.6,327.8,418.6,329.7"/>
	<path class="st13" d="M427.8,324.8l-33.1-23.1c3.4-1.5,7-2.8,10.5-3.7l33.1,23.1C434.7,322,431.2,323.3,427.8,324.8"/>
	<path class="st14" d="M438.3,321.1L405.3,298c0.6-0.2,1.2-0.3,1.8-0.4c12.1-2.9,22.9-4.6,32.5-5.3l33.1,23.1
		c-9.6,0.7-20.4,2.4-32.5,5.3C439.5,320.8,438.9,320.9,438.3,321.1"/>
</g>
<g>
	<path class="st15" d="M472.6,315.3c9.1-0.6,18.6-0.7,28.6-0.3c10,0.4,18.9,1.3,26.7,2.5l-8.3,45.7c-4.3-1.6-10.1-3-17.4-4.2
		c-7.4-1.2-14.7-1.5-22-1c-6.9,0.5-13,1.6-18.1,3.2c-5.2,1.7-10,4.6-14.6,8.8c-4.6,4.2-7.8,10.1-9.8,17.8c-2,7.6-3,15.2-3.1,22.6
		c0,2.6,0.2,6.2,0.6,10.6c0.4,4.4,2.1,10.1,5.1,17.2c3,7.1,7.1,12.1,12.5,14.9c5.4,2.8,10.9,4.5,16.6,5.2c5.7,0.7,11.4,0.8,17,0.4
		c5.7-0.4,11-1.1,16-2.1c5-1,10.6-2.3,16.8-3.9l6.9,41.5c-7.6,2.3-15.9,4.3-24.7,6.1c-8.8,1.8-17.6,3-26.5,3.6
		c-16,1.1-30.6,0-43.9-3.4c-13.3-3.4-24.1-9.5-32.5-18.5c-8.4-8.9-14.3-19.3-17.6-31.2c-3.4-11.8-5-24.1-4.9-36.8
		c0.1-7.1,0.5-13.5,1.5-19.4c0.9-5.9,3.3-14.3,7.1-25.2c3.8-10.9,11-21.1,21.5-30.5c10.5-9.4,21.9-15.5,34-18.4
		C452.2,317.8,463,316,472.6,315.3"/>
</g>
<rect x="74.6" y="94" class="st3" width="230.1" height="68.4"/>
<g>
	<defs>
		<path id="SVGID_7_" d="M430.8,147.2c-4.1,1.8-10.7,2.9-19.7,3.6l33.1,23.1c9.1-0.6,15.6-1.8,19.7-3.6c4.1-1.7,7.2-4.6,9.2-8.6
			l-33.1-23.1C438,142.6,434.9,145.5,430.8,147.2"/>
	</defs>
	<clipPath id="SVGID_8_">
		<use xlink:href="#SVGID_7_"  style="overflow:visible;"/>
	</clipPath>
	<path class="st16" d="M444.2,173.8l-33.1-23.1c6.6-0.5,11.9-1.2,15.8-2.3l33.1,23.1C456,172.6,450.8,173.4,444.2,173.8"/>
	<path class="st17" d="M460,171.6l-33.1-23.1c1.5-0.4,2.8-0.8,3.9-1.3c0.1,0,0.2-0.1,0.3-0.1l33.1,23.1c-0.1,0-0.2,0.1-0.3,0.1
		C462.8,170.7,461.5,171.2,460,171.6"/>
	<path class="st18" d="M464.2,170.1l-33.1-23.1c0.8-0.4,1.6-0.8,2.3-1.2l33.1,23.1C465.8,169.4,465,169.8,464.2,170.1"/>
	<path class="st19" d="M466.5,168.9l-33.1-23.1c0.7-0.4,1.3-0.9,1.9-1.4l33.1,23.1C467.8,168,467.2,168.5,466.5,168.9"/>
	<path class="st20" d="M468.4,167.5l-33.1-23.1c0.6-0.5,1.2-1,1.7-1.6l33.1,23.1C469.6,166.5,469,167,468.4,167.5"/>
	<path class="st21" d="M470.2,165.9l-33.1-23.1c0.7-0.7,1.3-1.5,1.8-2.3l33.1,23.1C471.4,164.5,470.8,165.2,470.2,165.9"/>
	<path class="st22" d="M472,163.7l-33.1-23.1c0.4-0.6,0.8-1.3,1.2-2l33.1,23.1C472.8,162.4,472.4,163,472,163.7"/>
</g>
<g>
	<defs>
		<path id="SVGID_9_" d="M439.3,113.1c2.6,3.9,3.9,8.5,3.9,13.8c0,3.8-1.1,7.7-3.2,11.7l33.1,23.1c2.1-4,3.1-7.9,3.2-11.7
			c0-5.3-1.3-9.9-3.9-13.8c-1.5-2.2-3.1-3.9-4.9-5.2l-33.1-23.1C436.2,109.2,437.8,110.9,439.3,113.1"/>
	</defs>
	<clipPath id="SVGID_10_">
		<use xlink:href="#SVGID_9_"  style="overflow:visible;"/>
	</clipPath>
	<path class="st23" d="M473.1,161.7l-33.1-23.1c2.1-4,3.1-7.9,3.2-11.7c0-5.3-1.3-9.9-3.9-13.8c-1.5-2.2-3.1-3.9-4.9-5.2l33.1,23.1
		c1.8,1.3,3.4,3,4.9,5.2c2.6,3.9,3.9,8.5,3.9,13.8C476.3,153.8,475.2,157.7,473.1,161.7"/>
</g>
<polygon class="st24" points="435.1,174.5 402,151.4 411.1,150.8 444.2,173.8 "/>
<g>
	<path class="st25" d="M480.3,74.8l33.1,23.1c-4.3-3-9.3-5.3-15.1-7c-13.1-3.8-27-5.2-41.5-4.2l-33.1-23.1c14.5-1,28.4,0.4,41.5,4.2
		C471,69.4,476,71.8,480.3,74.8"/>
</g>
<g>
	<defs>
		<path id="SVGID_11_" d="M423.7,63.5l33.1,23.1c14.5-1,28.4,0.4,41.5,4.2c5.8,1.7,10.8,4,15.1,7l-33.1-23.1c-4.3-3-9.3-5.3-15.1-7
			c-10.4-3-21.2-4.5-32.5-4.5C429.8,63.2,426.8,63.3,423.7,63.5"/>
	</defs>
	<clipPath id="SVGID_12_">
		<use xlink:href="#SVGID_11_"  style="overflow:visible;"/>
	</clipPath>
	<path class="st26" d="M456.8,86.6l-33.1-23.1c2.1-0.1,4.1-0.2,6.2-0.3l33.1,23.1C460.9,86.4,458.8,86.5,456.8,86.6"/>
	<path class="st26" d="M462.9,86.3l-33.1-23.1c12.3-0.3,24.1,1.2,35.4,4.5c2.2,0.6,4.2,1.3,6.1,2.2L504.4,93c-1.9-0.8-4-1.5-6.1-2.2
		C487,87.5,475.2,86,462.9,86.3"/>
	<path class="st26" d="M504.4,93l-33.1-23.1c3.3,1.4,6.3,3,9,4.9l33.1,23.1C510.7,96,507.7,94.3,504.4,93"/>
</g>
<polygon class="st25" points="378.2,92.1 345.1,69 423.7,63.5 456.8,86.6 "/>
<polygon class="st27" points="376.8,280.7 343.8,257.6 345.1,69 378.2,92.1 "/>
<g>
	<path class="st15" d="M526.2,112.5c5.5,10.6,8.2,21.6,8.2,32.9c-0.1,13.3-3.6,25.6-10.4,36.8c-6.8,11.2-16.9,19.1-30.1,23.7
		c-13.3,4.6-27.7,7.4-43.3,8.5l-9.6,0.7l-6.1,0.4l-0.4,61.2l-57.6,4l1.3-188.6l78.6-5.5c14.5-1,28.4,0.4,41.5,4.2
		C511.4,94.6,520.7,101.8,526.2,112.5 M473.1,161.7c2.1-4,3.1-7.9,3.2-11.7c0-5.3-1.3-9.9-3.9-13.8c-2.6-3.9-5.8-6.3-9.4-7.3
		c-3.6-0.9-8.5-1.2-14.5-0.8l-4,0.3l-9.1,0.6l-0.3,45.4l9.1-0.6c9.1-0.6,15.6-1.8,19.7-3.6C468,168.5,471.1,165.7,473.1,161.7"/>
</g>
<polygon class="st25" points="272.9,478 239.9,455 280.5,452.1 313.6,475.2 "/>
<polygon class="st27" points="181.5,511 148.4,488 148.6,461.4 181.7,484.4 "/>
<polygon class="st25" points="181.7,484.4 148.6,461.4 182.3,459 215.4,482.1 "/>
<polygon class="st25" points="274.1,315 241,291.9 281.6,289.1 314.7,312.1 "/>
<polygon class="st27" points="215.4,482.1 182.3,459 183.3,322.5 216.3,345.6 "/>
<polygon class="st25" points="216.5,319 183.5,295.9 241,291.9 274.1,315 "/>
<polygon class="st25" points="182.8,321.4 149.7,298.3 183.5,295.9 216.5,319 "/>
<polygon class="st27" points="182.6,348 149.5,324.9 149.7,298.3 182.8,321.4 "/>
<polygon class="st15" points="314.7,312.1 314.5,338.8 273.9,341.6 272.9,478 313.6,475.2 313.4,501.8 181.5,511 181.7,484.4 
	215.4,482.1 216.3,345.6 182.6,348 182.8,321.4 216.5,319 274.1,315 "/>
<g>
	<path class="st27" d="M311.3,212.7l33.1,23.1c-3.6-2.5-8.1-3.9-13-3.5l-33.1-23.1C303.1,208.9,307.6,210.2,311.3,212.7"/>
</g>
<g>
	<defs>
		<path id="SVGID_13_" d="M298.2,209.2l33.1,23.1c4.9-0.3,9.4,1,13,3.5l-33.1-23.1c-3.3-2.3-7.2-3.6-11.5-3.6
			C299.2,209.2,298.7,209.2,298.2,209.2"/>
	</defs>
	<clipPath id="SVGID_14_">
		<use xlink:href="#SVGID_13_"  style="overflow:visible;"/>
	</clipPath>
	<path class="st28" d="M331.3,232.3l-33.1-23.1c0.4,0,0.7,0,1.1,0l33.1,23.1C332,232.2,331.7,232.3,331.3,232.3"/>
	<path class="st28" d="M332.4,232.2l-33.1-23.1c2.9-0.1,5.7,0.5,8.2,1.5l33.1,23.1C338.1,232.7,335.3,232.2,332.4,232.2"/>
	<path class="st28" d="M340.6,233.7l-33.1-23.1c1.3,0.6,2.6,1.2,3.8,2.1l33.1,23.1C343.2,235,341.9,234.3,340.6,233.7"/>
</g>
<g>
	<path class="st27" d="M318,273.7l-33.1-23.1c-5.3-3.7-8.8-10-8.7-17.4c0.1-12.4,10-23.2,22.1-24l33.1,23.1
		c-12.1,0.8-22,11.6-22.1,24C309.2,263.7,312.6,270,318,273.7"/>
</g>
<g>
	<defs>
		<path id="SVGID_15_" d="M276.2,233.2c-0.1,7.4,3.4,13.7,8.7,17.4l33.1,23.1c-5.3-3.7-8.8-10-8.7-17.4c0.1-12.4,10-23.2,22.1-24
			l-33.1-23.1C286.1,210,276.2,220.8,276.2,233.2"/>
	</defs>
	<clipPath id="SVGID_16_">
		<use xlink:href="#SVGID_15_"  style="overflow:visible;"/>
	</clipPath>
	<path class="st29" d="M318,273.7l-33.1-23.1c-5.3-3.7-8.8-10-8.7-17.4c0-4.9,1.6-9.5,4.2-13.4l33.1,23.1c-2.6,3.9-4.2,8.5-4.2,13.4
		C309.2,263.7,312.6,270,318,273.7"/>
	<path class="st29" d="M313.4,242.9l-33.1-23.1c0.7-1.1,1.6-2.2,2.5-3.1l33.1,23.1C315,240.7,314.2,241.8,313.4,242.9"/>
	<path class="st29" d="M315.9,239.8l-33.1-23.1c0.8-0.8,1.6-1.6,2.5-2.3l33.1,23.1C317.5,238.2,316.7,239,315.9,239.8"/>
	<path class="st29" d="M318.4,237.5l-33.1-23.1c0.8-0.7,1.7-1.3,2.6-1.8l33.1,23.1C320.1,236.2,319.2,236.8,318.4,237.5"/>
	<path class="st29" d="M321,235.7l-33.1-23.1c0.9-0.6,1.9-1.1,2.8-1.5l33.1,23.1C322.8,234.6,321.9,235.1,321,235.7"/>
	<path class="st29" d="M323.8,234.2l-33.1-23.1c1.1-0.5,2.2-0.9,3.4-1.2l33.1,23.1C326,233.3,324.9,233.7,323.8,234.2"/>
	<path class="st29" d="M327.2,233l-33.1-23.1c1.3-0.4,2.7-0.6,4.1-0.7l33.1,23.1C329.9,232.4,328.5,232.6,327.2,233"/>
</g>
<g>
	<path class="st15" d="M331.3,232.3c12.1-0.8,21.8,8.5,21.8,20.9c-0.1,12.4-10,23.2-22.1,24c-12.1,0.8-21.8-8.5-21.8-20.9
		C309.3,243.9,319.2,233.1,331.3,232.3"/>
</g>
<polygon class="st27" points="210,232.4 176.9,209.3 251.3,204.1 284.3,227.2 "/>
<polygon class="st27" points="210.5,159.1 177.4,136 244.3,131.4 277.4,154.4 "/>
<polygon class="st27" points="152.1,279.8 119,256.8 120.4,68.2 153.4,91.2 "/>
<polygon class="st30" points="153.4,91.2 120.4,68.2 250.4,59.1 283.5,82.1 "/>
<polygon class="st15" points="283.5,82.1 283.2,127.5 210.7,132.6 210.5,159.1 277.4,154.4 277.1,197.9 210.2,202.6 210,232.4 
	284.3,227.2 284,270.6 152.1,279.8 153.4,91.2 "/>
<path class="st1" d="M329.1,262.5c0,0.9,0,1.3-0.3,1.7c-0.3,0.6-0.9,0.9-1.7,0.9c-0.8,0-1.4-0.4-1.7-0.9c-0.2-0.5-0.3-0.8-0.3-1.7
	v-15.3c0-0.6,0-1.3,0.6-1.9c0.6-0.6,1.3-0.6,1.9-0.6h5.5c4.1,0,6.6,2.8,6.6,6.2c0,2.4-1.3,4.4-3.7,5.4l3,5.3
	c0.5,0.8,0.6,1.1,0.6,1.6c0,0.6-0.3,1.3-1,1.7c-0.3,0.2-0.7,0.3-1.1,0.3c-1.1,0-1.5-0.7-2-1.6l-3.8-6.6h-2.8V262.5z M332.8,253.7
	c1.7,0,2.8-1.1,2.8-2.7c0-1.6-1.1-2.7-2.8-2.7h-3.8v5.3H332.8z"/>
<path class="st1" d="M331.5,273.9c-10.2,0-18.4-8.3-18.4-18.4c0-10.2,8.3-18.4,18.4-18.4c10.2,0,18.4,8.3,18.4,18.4
	C349.9,265.6,341.6,273.9,331.5,273.9 M331.5,239c-9.1,0-16.5,7.4-16.5,16.5c0,9.1,7.4,16.5,16.5,16.5c9.1,0,16.5-7.4,16.5-16.5
	C347.9,246.4,340.5,239,331.5,239"/>
</svg>
