<?xml version="1.0" encoding="utf-8"?>
<!-- Generator: Adobe Illustrator 22.1.0, SVG Export Plug-In . SVG Version: 6.00 Build 0)  -->
<svg version="1.1" id="Layer_1" xmlns="http://www.w3.org/2000/svg" xmlns:xlink="http://www.w3.org/1999/xlink" x="0px" y="0px"
	 viewBox="0 0 325.9 324.5" style="enable-background:new 0 0 325.9 324.5;" xml:space="preserve">
<path d="M186,36.5c3-1.4,6.8,10.4,11.7,12.6c4.9,2.2,11.2-1.4,11.2,5.5c0,3.1-8.2,0.8-7.1,7.1c1.1,6.3,5.5,8.1,2.7,11.3
	c-2.7,3.3-14.2-2.9-18.6-14.9C181.3,45.2,183,37.9,186,36.5z"/>
<path d="M141.2,36.5c-3-1.4-6.8,10.4-11.7,12.6c-4.9,2.2-11.2-1.4-11.2,5.5c0,3.1,8.2,0.8,7.1,7.1s-5.5,8.1-2.7,11.3
	c2.7,3.3,14.2-2.9,18.6-14.9C145.9,45.2,144.2,37.9,141.2,36.5z"/>
<path d="M153.8,9.1c4.2,0.1,9.4-6.6,9.1-9.1c-0.3,2.9,5.4,9,9.1,9.1c-4-0.6-9.6,5.6-9.1,9.1C162.7,15.1,157.6,9.1,153.8,9.1z"/>
<g>
	<g>
		<path d="M73.9,44.8c-2.3,5.1-2.6,16.3-2.6,16.3s-7.2-1.6-14.9,1.1C48.7,65,42.2,72,40.1,79.1c-1,2.4-0.6,6.9-0.6,6.9
			s0.1,9.1,7.9,12.6c5,2.2,10.6-1.7,11.1-7.2c0.3-3-2.5-10.8-4.9-8.4c-2.4,2.4,2.1,5.8-1.1,8.9c-1,1-2.3,1-3.5,0.4
			c1.1-1.3,1-3.3-0.2-4.6c-1-1-2.6-1.3-3.9-0.7c0-0.2-0.1-0.5-0.1-0.7C45.1,66.7,70,66.6,70,66.6s16.9,46.1,34.7,28.4
			c20.8-20.8-28-35.1-28-35.1S79.3,32,97.2,34.2c0.2,0,0.3,0,0.5,0.1c-0.7,1.3-0.5,2.9,0.6,4c1,1,2.5,1.3,3.8,0.7
			c0,1.7-0.7,3.4-1.7,4.3c-1.8,1.6-5.5-1.9-7.4,0.2c-1.5,1.6,1.5,4.9,7.3,4.8c5,0,10.1-7.6,7.1-13.6c-2-3.9-4.3-6.2-8.7-6.9
			C90.3,26.4,78.9,33.4,73.9,44.8z M98.3,88.5c-8.8,8.8-20.1-20.1-20.1-20.1S108.4,78.4,98.3,88.5z"/>
		<path d="M52.1,54.4c3-2.9,1.9-11.3,0-12.9c1.9,2.3,10.2,2.6,12.9,0c-3.2,2.4-2.9,10.7,0,12.9C62.7,52.2,54.8,51.6,52.1,54.4z"/>
	</g>
	<path d="M108.1,51.1c-4-1.9-2.5,6-6.3,6s-6.6-6.3-7.9-1.3c-1.4,5.2,0,9.5,6.6,11.7c6.6,2.2,12.8-0.3,12.8-2.5
		c0.1-4.1-3.8-2.3-4.1-4.8C108.9,57.7,112.1,53.1,108.1,51.1z"/>
	<path d="M71.6,83.1c2.2,0.8,0.9,2.3,0.9,5c0,2.7,9,4.6,9.1,9.9c0.1,5.3-1.4,9.1-6.6,9.9c-5.2,0.8-9.2-0.8-9.8-4.1
		c-0.6-3.6,1.2-4.7,2.8-5c3-0.5,4.8,2.2,5.3-0.8c0.3-1.9-7.2-4.8-6.1-10.9C67.9,82.2,71.6,83.1,71.6,83.1z"/>
</g>
<g>
	<g>
		<path d="M255.4,277.2c2.3-5.1,2.6-16.3,2.6-16.3s7.2,1.6,14.9-1.1c7.7-2.8,14.3-9.7,16.3-16.8c1-2.4,0.6-6.9,0.6-6.9
			s-0.1-9.1-7.9-12.6c-5-2.2-10.6,1.7-11.1,7.2c-0.3,3,2.5,10.8,4.9,8.4c2.4-2.4-2.1-5.8,1.1-8.9c1-1,2.3-1,3.5-0.4
			c-1.1,1.3-1,3.3,0.2,4.6c1,1,2.6,1.3,3.9,0.7c0,0.2,0.1,0.5,0.1,0.7c-0.3,19.7-25.1,19.8-25.1,19.8s-16.9-46.1-34.7-28.3
			c-20.8,20.8,28,35.1,28,35.1s-2.6,27.8-20.5,25.7c-0.2,0-0.3,0-0.5-0.1c0.7-1.3,0.5-2.9-0.6-4c-1-1-2.5-1.3-3.8-0.7
			c0-1.7,0.7-3.4,1.7-4.3c1.8-1.6,5.5,1.9,7.4-0.2c1.5-1.6-1.5-4.9-7.3-4.8c-5,0-10.1,7.6-7.1,13.6c2,3.9,4.3,6.2,8.7,6.9
			C239.1,295.7,250.4,288.6,255.4,277.2z M231,233.5c8.8-8.8,20.1,20.1,20.1,20.1S220.9,243.6,231,233.5z"/>
		<path d="M277.2,267.6c-3,2.9-1.9,11.3,0,12.9c-1.9-2.3-10.2-2.6-12.9,0c3.2-2.4,2.9-10.7,0-12.9
			C266.6,269.8,274.5,270.4,277.2,267.6z"/>
	</g>
	<path d="M221.2,270.9c4,1.9,2.5-6,6.3-6s6.6,6.3,7.9,1.3c1.4-5.2,0-9.5-6.6-11.7c-6.6-2.2-12.8,0.3-12.8,2.5
		c-0.1,4.1,3.8,2.3,4.1,4.8C220.4,264.3,217.3,269,221.2,270.9z"/>
	<path d="M257.8,239c-2.2-0.8-0.9-2.3-0.9-5s-9-4.6-9.1-9.9c-0.1-5.3,1.4-9.1,6.6-9.9c5.2-0.8,9.2,0.8,9.8,4.1
		c0.6,3.6-1.2,4.7-2.8,5c-3,0.5-4.8-2.2-5.3,0.8c-0.3,1.9,7.2,4.8,6.1,10.9C261.4,239.8,257.8,239,257.8,239z"/>
</g>
<g>
	<g>
		<path d="M98.6,294.3c4.4-0.7,6.7-3,8.7-6.9c3.1-6-2.1-13.6-7.1-13.6c-5.8,0-8.8,3.2-7.3,4.8c1.9,2.2,5.7-1.4,7.4,0.2
			c0.9,0.9,1.7,2.6,1.7,4.3c-1.2-0.5-2.8-0.3-3.8,0.7c-1.1,1.1-1.3,2.7-0.6,4c-0.2,0-0.3,0.1-0.5,0.1c-17.9,2.2-20.5-25.7-20.5-25.7
			s48.9-14.2,28-35.1C86.9,209.3,70,255.5,70,255.5s-24.8-0.1-25.1-19.8c0-0.2,0-0.4,0.1-0.7c1.3,0.6,2.8,0.4,3.9-0.7
			c1.3-1.3,1.3-3.2,0.2-4.6c1.2-0.6,2.5-0.6,3.5,0.4c3.2,3.1-1.4,6.5,1.1,8.9c2.4,2.4,5.1-5.4,4.9-8.4c-0.5-5.4-6.2-9.4-11.1-7.2
			c-7.7,3.5-7.9,12.6-7.9,12.6s-0.3,4.5,0.6,6.9c2.1,7.2,8.7,14.1,16.3,16.8c7.7,2.8,14.9,1.1,14.9,1.1s0.3,11.2,2.6,16.3
			C78.9,288.6,90.3,295.7,98.6,294.3z M78.2,253.6c0,0,11.3-28.9,20.1-20.1C108.4,243.6,78.2,253.6,78.2,253.6z"/>
		<path d="M52.1,267.6c3,2.9,1.9,11.3,0,12.9c1.9-2.3,10.2-2.6,12.9,0c-3.2-2.4-2.9-10.7,0-12.9C62.7,269.8,54.8,270.4,52.1,267.6z"
			/>
	</g>
	<path d="M108.1,270.9c-4,1.9-2.5-6-6.3-6s-6.6,6.3-7.9,1.3c-1.4-5.2,0-9.5,6.6-11.7c6.6-2.2,12.8,0.3,12.8,2.5
		c0.1,4.1-3.8,2.3-4.1,4.8C108.9,264.3,112.1,269,108.1,270.9z"/>
	<path d="M71.6,239c2.2-0.8,0.9-2.3,0.9-5s9-4.6,9.1-9.9c0.1-5.3-1.4-9.1-6.6-9.9c-5.2-0.8-9.2,0.8-9.8,4.1c-0.6,3.6,1.2,4.7,2.8,5
		c3,0.5,4.8-2.2,5.3,0.8c0.3,1.9-7.2,4.8-6.1,10.9C67.9,239.8,71.6,239,71.6,239z"/>
</g>
<g>
	<g>
		<path d="M275.7,65.4c-5.1-2.3-16.3-2.6-16.3-2.6s1.6-7.2-1.1-14.9c-2.8-7.7-9.7-14.3-16.8-16.3c-2.4-1-6.9-0.6-6.9-0.6
			s-9.1,0.1-12.6,7.9c-2.2,5,1.7,10.6,7.2,11.1c3,0.3,10.8-2.5,8.4-4.9c-2.4-2.4-5.8,2.1-8.9-1.1c-1-1-1-2.3-0.4-3.5
			c1.3,1.1,3.3,1,4.6-0.2c1-1,1.3-2.6,0.7-3.9c0.2,0,0.5-0.1,0.7-0.1c19.7,0.3,19.8,25.1,19.8,25.1s-46.1,16.9-28.4,34.7
			c20.8,20.8,35.1-28,35.1-28s27.8,2.6,25.7,20.5c0,0.2,0,0.3-0.1,0.5c-1.3-0.7-2.9-0.5-4,0.6c-1,1-1.3,2.5-0.7,3.8
			c-1.7,0-3.4-0.7-4.3-1.7c-1.6-1.8,1.9-5.5-0.2-7.4c-1.6-1.5-4.9,1.5-4.8,7.3c0,5,7.6,10.1,13.6,7.1c3.9-2,6.2-4.3,6.9-8.7
			C294.2,81.8,287.1,70.4,275.7,65.4z M232,89.8c-8.8-8.8,20.1-20.1,20.1-20.1S242.1,99.9,232,89.8z"/>
		<path d="M266.1,43.6c2.9,3,11.3,1.9,12.9,0c-2.3,1.9-2.6,10.2,0,12.9c-2.4-3.2-10.7-2.9-12.9,0C268.3,54.2,268.9,46.3,266.1,43.6z
			"/>
	</g>
	<path d="M269.4,99.6c1.9-4-6-2.5-6-6.3s6.3-6.6,1.3-7.9c-5.2-1.4-9.5,0-11.7,6.6c-2.2,6.6,0.3,12.8,2.5,12.8
		c4.1,0.1,2.3-3.8,4.8-4.1S267.5,103.6,269.4,99.6z"/>
	<path d="M237.5,63.1c-0.8,2.2-2.3,0.9-5,0.9c-2.7,0-4.6,9-9.9,9.1c-5.3,0.1-9.1-1.4-9.9-6.6c-0.8-5.2,0.8-9.2,4.1-9.8
		c3.6-0.6,4.7,1.2,5,2.8c0.5,3-2.2,4.8,0.8,5.3c1.9,0.3,4.8-7.2,10.9-6.1C238.3,59.4,237.5,63.1,237.5,63.1z"/>
</g>
<circle cx="29.9" cy="105.8" r="5.8"/>
<circle cx="296.7" cy="105.8" r="5.8"/>
<path d="M290.9,220.1c0-3.2,2.6-5.8,5.8-5.8c3.2,0,5.8,2.6,5.8,5.8c0,3.2-2.6,5.8-5.8,5.8C293.5,225.9,290.9,223.3,290.9,220.1z"/>
<path d="M24.1,220.1c0-3.2,2.6-5.8,5.8-5.8c3.2,0,5.8,2.6,5.8,5.8c0,3.2-2.6,5.8-5.8,5.8C26.7,225.9,24.1,223.3,24.1,220.1z"/>
<path d="M112.5,136.7c-0.3-1-0.6-2-0.9-3.1c-0.3-1.1-0.6-2.1-1-3.1c-0.1,1.3-0.1,2.6-0.1,3.9c0,1.3,0,2.5,0,3.5
	c0,2.7,0.1,5.2,0.2,7.5c0.1,2.2,0.2,4.5,0.2,6.6c0,0.6-0.1,1.2-0.4,1.7c-0.2,0.5-0.6,1-1,1.3c-0.4,0.4-0.9,0.7-1.5,0.9
	c-0.6,0.2-1.1,0.3-1.7,0.3c-1.2,0-2.4-0.2-3.4-0.5c-1.1-0.4-2.2-0.5-3.3-0.5c0.6-1.4,1.2-3.1,1.6-5.2c0.4-2.1,0.7-4.2,0.9-6.2
	c0.2-2.1,0.4-3.9,0.5-5.5c0.1-1.6,0.1-2.6,0.1-3.1c0-3.5-0.1-6.9-0.2-10.1c-0.1-3.2-0.6-6-1.3-8.4c0.6,0,1.2-0.1,1.7-0.2
	c0.5-0.2,1-0.3,1.5-0.5c0.5-0.2,1-0.3,1.5-0.5c0.5-0.2,1-0.2,1.6-0.2c1.2,0,2.4,0.4,3.4,1.3c1,0.9,2,2,3,3.5
	c0.9,1.4,1.8,3.1,2.6,4.9c0.8,1.8,1.5,3.7,2.2,5.6c0.7,1.9,1.3,3.7,1.9,5.5c0.6,1.8,1.1,3.4,1.5,4.8c0.2-1.5,0.8-3.2,1.7-5.1
	c0.9-1.9,1.9-3.9,2.9-6c1-2.1,1.9-4.1,2.7-6.2c0.8-2.1,1.2-3.9,1.2-5.7c0-0.5,0-0.8,0-1.1c0-0.3-0.1-0.6-0.3-0.9
	c0.2,0,0.6-0.1,1-0.2c0.4-0.1,0.9-0.1,1.4-0.2c0.5-0.1,1-0.1,1.6-0.2c0.6-0.1,1.1-0.1,1.6-0.1c1.2,0,2.3,0.2,3.1,0.7
	c0.9,0.4,1.6,1,2.1,1.7c0.6,0.7,1,1.5,1.2,2.3c0.3,0.9,0.4,1.7,0.4,2.5c0,1.2,0,2.6-0.1,4.1c-0.1,1.5-0.1,3.2-0.2,4.9
	c-0.1,1.7-0.1,3.4-0.1,5.1c0,1.7-0.1,3.4-0.1,4.9c0,1,0.1,2.2,0.2,3.5c0.1,1.3,0.3,2.5,0.5,3.8c0.2,1.3,0.4,2.4,0.7,3.5
	c0.3,1.1,0.6,2,0.9,2.7c-0.4,0-0.9,0.1-1.4,0.2c-0.5,0.1-1.1,0.3-1.7,0.4c-0.6,0.2-1.2,0.3-1.8,0.4c-0.6,0.1-1.2,0.2-1.9,0.2
	c-0.8,0-1.4-0.1-1.9-0.4c-0.5-0.2-1-0.6-1.3-1c-0.3-0.4-0.6-0.8-0.7-1.3c-0.1-0.5-0.2-1-0.2-1.5c0-3.6,0.1-7,0.2-10
	c0.2-3.1,0.2-6.1,0.2-9.1c0-0.2,0-0.5,0-0.9c0-0.4,0-0.8-0.1-1.3c0-0.4,0-0.8-0.1-1.2c0-0.4,0-0.7-0.1-0.9c-0.8,1.7-1.6,3.6-2.3,5.7
	c-0.8,2.1-1.4,4.3-2.1,6.4c-0.6,2.1-1.1,4.2-1.5,6.1c-0.4,1.9-0.6,3.6-0.6,4.9c-0.6,0.1-1.3,0.3-2.1,0.7c-0.8,0.3-1.7,0.5-2.8,0.5
	c-1.3,0-2.4-0.5-3.4-1.5c-1-1-1.9-2.3-2.7-3.9c-0.8-1.6-1.5-3.3-2.1-5.2C113.6,140.4,113,138.5,112.5,136.7z"/>
<path d="M185.4,133.9c0,2.4-0.3,5-0.9,7.6c-0.6,2.6-1.6,5-3.1,7.2c-1.5,2.2-3.4,4-5.8,5.4c-2.4,1.4-5.4,2.1-9.1,2.1
	c-3.2,0-6-0.5-8.4-1.6c-2.4-1.1-4.4-2.5-5.9-4.4c-1.6-1.8-2.7-4-3.5-6.5c-0.8-2.5-1.2-5.1-1.2-7.9c0-3,0.4-5.8,1.3-8.3
	c0.9-2.6,2.1-4.9,3.8-6.8c1.7-1.9,3.7-3.5,6.1-4.6c2.4-1.1,5.2-1.7,8.3-1.7c3.2,0,5.9,0.5,8.2,1.5c2.3,1,4.2,2.4,5.7,4.2
	c1.5,1.8,2.6,3.8,3.4,6.1C185,128.8,185.4,131.2,185.4,133.9z M167,120.4c-1.9,0-3.6,0.5-4.9,1.4c-1.3,0.9-2.4,2.1-3.2,3.6
	c-0.8,1.5-1.4,3.1-1.7,5c-0.3,1.8-0.5,3.7-0.5,5.5c0,1.7,0.2,3.4,0.5,5.1c0.3,1.8,0.9,3.4,1.6,4.8c0.7,1.4,1.7,2.6,2.9,3.5
	c1.2,0.9,2.7,1.4,4.5,1.4c1.9,0,3.6-0.5,4.8-1.5c1.3-1,2.3-2.2,3.1-3.7c0.8-1.5,1.3-3.2,1.7-5.1c0.3-1.9,0.5-3.7,0.5-5.5
	c0-1.7-0.1-3.4-0.4-5.2c-0.3-1.7-0.7-3.3-1.4-4.7c-0.7-1.4-1.6-2.5-2.8-3.3C170.4,120.8,168.8,120.4,167,120.4z"/>
<path d="M216.4,120.1c0-1.7,0.5-3,1.4-3.9c0.9-0.9,2-1.3,3.3-1.3c0.9,0,1.7,0.1,2.5,0.2c0.7,0.2,1.4,0.3,1.9,0.5
	c0.6,0.2,1.1,0.4,1.5,0.5c0.4,0.2,0.8,0.2,1.2,0.2c-0.8,1.2-1.4,2.4-1.9,3.8c-0.5,1.4-0.8,3-1,4.9c-0.2,1.9-0.3,4.1-0.4,6.7
	c-0.1,2.6-0.1,5.7-0.1,9.3c0,0.9,0,2,0.1,3.3c0.1,1.3,0.2,2.6,0.3,3.9c0.2,1.3,0.4,2.6,0.7,3.8c0.3,1.2,0.7,2.2,1.2,2.9
	c-0.5,0-1.2,0.2-2.3,0.6c-1.1,0.4-2.5,0.6-4.3,0.6c-1.2,0-2.4-0.6-3.4-1.7c-1.1-1.1-2.2-2.7-3.5-4.8c-1.3-2.1-2.7-4.6-4.3-7.6
	c-1.6-3-3.5-6.3-5.8-10c-0.4-0.6-0.8-1.3-1.2-1.9c-0.4-0.6-0.8-1.3-1.3-2.1c0,1.2-0.1,2.4-0.1,3.6c0,1.2,0,2.3,0,3.3
	c0,1.7,0,3.2,0,4.6c0,1.4,0,2.7,0.1,4.1c0,1.3,0.1,2.6,0.1,3.9c0,1.3,0,2.7,0,4.3c0,1.2-0.4,2.2-1.3,3.1c-0.8,0.8-2.1,1.2-3.7,1.2
	c-1.9,0-3.4-0.2-4.6-0.5c-1.2-0.4-2-0.5-2.4-0.5c0.8-0.8,1.4-2,1.9-3.4c0.5-1.4,0.9-3.2,1.1-5.2c0.3-2.1,0.4-4.5,0.5-7.3
	c0.1-2.8,0.1-6,0.1-9.6c0-0.9,0-2-0.1-3.1c-0.1-1.2-0.2-2.4-0.3-3.6c-0.2-1.2-0.4-2.4-0.7-3.5c-0.3-1.1-0.7-2-1.2-2.7
	c0.2,0,0.5-0.1,0.7-0.2c0.3-0.2,0.7-0.3,1.2-0.5c0.5-0.2,1.2-0.3,2-0.5c0.8-0.2,1.9-0.2,3.2-0.2c1.5,0,2.8,0.5,4,1.5
	c1.2,1,2.2,2.2,3.2,3.5c1,1.4,1.8,2.7,2.5,4.1c0.7,1.4,1.3,2.5,1.8,3.4c1,1.7,2,3.4,3,4.9c1,1.6,1.8,2.9,2.5,4.1
	c0.7,1.2,1.3,2.2,1.8,2.9c0.5,0.8,0.7,1.2,0.7,1.3c-0.2-3.5-0.4-6.9-0.7-10.4C216.5,127.1,216.4,123.6,216.4,120.1z"/>
<path d="M180.6,160c0,0,4.9,6.7,0,9.3c-4.9,2.6-10.6,1.8-6-0.9C180.5,165,180.6,160,180.6,160z"/>
<path d="M204.6,9.5c0.3,2.4,0,4.9-2.6,6.5c-6.5-1.9-13.8-4.5-25.5,0c-5.2,2-13.4,9.7-13.4,9.7s-3.9-6.2-11.3-9.7
	c-7.4-3.5-16.9-3.2-23.5,0.3c-3.3-1-3.3-2.9-3.9-6.7c-6.7,5.4-1.5,11.1-1.5,11.1s-6.3,6.5-3.3,14.4c1.9,5.1,8.7,6.3,12.9,2.8
	c1.5-1.2,3.5-4.8,3.8-7.1c0.1-0.4,0.1-0.8,0.1-1.2c0-3.4-2.7-6.1-6.1-6.1c-1.7,0-3.2,0.7-4.3,1.8c0.1-0.2,0.3-0.3,0.4-0.5
	c14.1-13.8,31.8,3.7,31.8,3.7s-20.6,44.6,4.5,44.6c29.5,0,5-44.6,5-44.6s21.5-17.8,32.6-3.6c0.1,0.1,0.2,0.3,0.3,0.4c0,0,0,0-0.1,0
	c-1.1-1.1-2.6-1.8-4.3-1.8c-2.6,0-4.8,1.6-5.7,3.9c0,0.1,0,0.1-0.1,0.2c0,0.1-0.1,0.2-0.1,0.3c-0.8,2.5-0.6,6.4,2.1,9.1
	c3.6,3.5,13.1,2,14.6-4.6c1.2-5-1.3-11.1-1.3-11.1C206,21.4,211.4,16.1,204.6,9.5z M162.9,64.2c-12.4,0,0-28.5,0-28.5
	S177.1,64.2,162.9,64.2z"/>
<g>
	<path d="M141.2,288.1c-3,1.4-6.8-10.4-11.7-12.6c-4.9-2.2-11.2,1.4-11.2-5.5c0-3.1,8.2-0.8,7.1-7.1c-1.1-6.3-5.5-8.1-2.7-11.3
		c2.7-3.3,14.2,2.9,18.6,14.9C145.9,279.4,144.2,286.7,141.2,288.1z"/>
	<path d="M186,288.1c3,1.4,6.8-10.4,11.7-12.6c4.9-2.2,11.2,1.4,11.2-5.5c0-3.1-8.2-0.8-7.1-7.1c1.1-6.3,5.5-8.1,2.7-11.3
		c-2.7-3.3-14.2,2.9-18.6,14.9C181.3,279.4,183,286.7,186,288.1z"/>
	<path d="M173.4,315.4c-4.2-0.1-9.4,6.6-9.1,9.1c0.3-2.9-5.4-9-9.1-9.1c4,0.6,9.6-5.6,9.1-9.1C164.4,309.5,169.6,315.5,173.4,315.4z
		"/>
	<path d="M122.5,315c-0.3-2.4,0-4.9,2.6-6.5c6.5,1.9,13.8,4.5,25.5,0c5.2-2,13.4-9.7,13.4-9.7s3.9,6.2,11.3,9.7
		c7.4,3.5,16.9,3.2,23.5-0.3c3.3,1,3.3,2.9,3.9,6.7c6.7-5.4,1.5-11.1,1.5-11.1s6.3-6.5,3.3-14.4c-1.9-5.1-8.7-6.3-12.9-2.8
		c-1.5,1.2-3.5,4.8-3.8,7.1c-0.1,0.4-0.1,0.8-0.1,1.2c0,3.4,2.7,6.1,6.1,6.1c1.7,0,3.2-0.7,4.3-1.8c-0.1,0.2-0.3,0.3-0.4,0.5
		c-14.1,13.8-31.8-3.7-31.8-3.7s20.6-44.6-4.5-44.6c-29.5,0-5,44.6-5,44.6s-21.5,17.8-32.6,3.6c-0.1-0.1-0.2-0.3-0.3-0.4
		c0,0,0,0,0.1,0c1.1,1.1,2.6,1.8,4.3,1.8c2.6,0,4.8-1.6,5.7-3.9c0-0.1,0-0.1,0.1-0.2c0-0.1,0.1-0.2,0.1-0.3c0.8-2.5,0.6-6.4-2.1-9.1
		c-3.6-3.5-13.1-2-14.6,4.6c-1.2,5,1.3,11.1,1.3,11.1C121.2,303.1,115.8,308.4,122.5,315z M164.3,260.3c12.4,0,0,28.5,0,28.5
		S150,260.3,164.3,260.3z"/>
</g>
<g>
	<path d="M289.4,186c1.4,3-10.4,6.8-12.6,11.7c-2.2,4.9,1.4,11.2-5.5,11.2c-3.1,0-0.8-8.2-7.1-7.1c-6.3,1.1-8.1,5.5-11.3,2.7
		c-3.3-2.7,2.9-14.2,14.9-18.6C280.7,181.3,288,183,289.4,186z"/>
	<path d="M289.4,141.2c1.4-3-10.4-6.8-12.6-11.7c-2.2-4.9,1.4-11.2-5.5-11.2c-3.1,0-0.8,8.2-7.1,7.1c-6.3-1.1-8.1-5.5-11.3-2.7
		c-3.3,2.7,2.9,14.2,14.9,18.6C280.7,145.9,288,144.2,289.4,141.2z"/>
	<path d="M316.7,153.8c-0.1,4.2,6.6,9.4,9.1,9.1c-2.9-0.3-9,5.4-9.1,9.1c0.5-4-5.6-9.6-9.1-9.1C310.8,162.7,316.8,157.6,316.7,153.8
		z"/>
	<path d="M316.3,204.6c-2.4,0.3-4.9,0-6.5-2.6c1.9-6.5,4.5-13.8,0-25.5c-2-5.2-9.7-13.4-9.7-13.4s6.2-3.9,9.7-11.3
		c3.5-7.4,3.2-16.9-0.3-23.5c1-3.3,2.9-3.3,6.7-3.9c-5.4-6.7-11.1-1.5-11.1-1.5s-6.5-6.3-14.4-3.3c-5.1,1.9-6.3,8.7-2.8,12.9
		c1.2,1.5,4.8,3.5,7.1,3.8c0.4,0.1,0.8,0.1,1.2,0.1c3.4,0,6.1-2.7,6.1-6.1c0-1.7-0.7-3.2-1.8-4.3c0.2,0.1,0.3,0.3,0.5,0.4
		c13.8,14.1-3.7,31.8-3.7,31.8s-44.6-20.6-44.6,4.5c0,29.5,44.6,5,44.6,5s17.8,21.5,3.6,32.6c-0.1,0.1-0.3,0.2-0.4,0.3
		c0,0,0,0,0-0.1c1.1-1.1,1.8-2.6,1.8-4.3c0-2.6-1.6-4.8-3.9-5.7c-0.1,0-0.1,0-0.2-0.1c-0.1,0-0.2-0.1-0.3-0.1
		c-2.5-0.8-6.4-0.6-9.1,2.1c-3.5,3.6-2,13.1,4.6,14.6c5,1.2,11.1-1.3,11.1-1.3C304.4,206,309.7,211.4,316.3,204.6z M261.6,162.9
		c0-12.4,28.5,0,28.5,0S261.6,177.1,261.6,162.9z"/>
</g>
<g>
	<path d="M36.5,141.2c-1.4-3,10.4-6.8,12.6-11.7c2.2-4.9-1.4-11.2,5.5-11.2c3.1,0,0.8,8.2,7.1,7.1c6.3-1.1,8.1-5.5,11.3-2.7
		c3.3,2.7-2.9,14.2-14.9,18.6C45.2,145.9,37.9,144.2,36.5,141.2z"/>
	<path d="M36.5,186c-1.4,3,10.4,6.8,12.6,11.7c2.2,4.9-1.4,11.2,5.5,11.2c3.1,0,0.8-8.2,7.1-7.1c6.3,1.1,8.1,5.5,11.3,2.7
		c3.3-2.7-2.9-14.2-14.9-18.6C45.2,181.3,37.9,183,36.5,186z"/>
	<path d="M9.1,173.4c0.1-4.2-6.6-9.4-9.1-9.1c2.9,0.3,9-5.4,9.1-9.1c-0.6,4,5.6,9.6,9.1,9.1C15.1,164.4,9.1,169.6,9.1,173.4z"/>
	<path d="M9.5,122.5c2.4-0.3,4.9,0,6.5,2.6c-1.9,6.5-4.5,13.8,0,25.5c2,5.2,9.7,13.4,9.7,13.4s-6.2,3.9-9.7,11.3
		c-3.5,7.4-3.2,16.9,0.3,23.5c-1,3.3-2.9,3.3-6.7,3.9c5.4,6.7,11.1,1.5,11.1,1.5s6.5,6.3,14.4,3.3c5.1-1.9,6.3-8.7,2.8-12.9
		c-1.2-1.5-4.8-3.5-7.1-3.8c-0.4-0.1-0.8-0.1-1.2-0.1c-3.4,0-6.1,2.7-6.1,6.1c0,1.7,0.7,3.2,1.8,4.3c-0.2-0.1-0.3-0.3-0.5-0.4
		c-13.8-14.1,3.7-31.8,3.7-31.8s44.6,20.6,44.6-4.5c0-29.5-44.6-5-44.6-5s-17.8-21.5-3.6-32.6c0.1-0.1,0.3-0.2,0.4-0.3
		c0,0,0,0,0,0.1c-1.1,1.1-1.8,2.6-1.8,4.3c0,2.6,1.6,4.8,3.9,5.7c0.1,0,0.1,0,0.2,0.1c0.1,0,0.2,0.1,0.3,0.1
		c2.5,0.8,6.4,0.6,9.1-2.1c3.5-3.6,2-13.1-4.6-14.6c-5-1.2-11.1,1.3-11.1,1.3C21.4,121.2,16.1,115.8,9.5,122.5z M64.2,164.3
		c0,12.4-28.5,0-28.5,0S64.2,150,64.2,164.3z"/>
</g>
<g>
	<path d="M107,189.9c0,0.7,0.1,1.7,0.2,2.9c0.1,1.2,0.5,2.4,1,3.6c0.5,1.2,1.2,2.2,2.1,3c0.9,0.8,2.2,1.3,3.7,1.3
		c0.2,0,0.5-0.1,0.8-0.2c0.4-0.1,0.8-0.3,1.1-0.4c0.4-0.2,0.7-0.4,1-0.7c0.3-0.3,0.5-0.7,0.6-1.1c0,0.1,0.3,0.1,0.8,0.1
		c0.5,0,1,0,1.6,0.1c0.6,0.1,1.1,0.3,1.5,0.6c0.5,0.3,0.7,0.9,0.7,1.6c0,1-0.3,1.9-1,2.6c-0.6,0.7-1.4,1.3-2.3,1.7
		c-0.9,0.4-1.8,0.7-2.7,0.9c-0.9,0.2-1.7,0.3-2.3,0.3c-2.2,0-4.3-0.4-6.2-1.1c-1.9-0.7-3.6-1.8-5-3.2c-1.4-1.4-2.5-3.1-3.3-5
		c-0.8-2-1.2-4.2-1.2-6.6c0-1.9,0.3-3.9,0.9-5.8c0.6-1.9,1.6-3.6,2.9-5.1c1.3-1.5,3-2.7,5.1-3.6c2.1-0.9,4.5-1.4,7.4-1.4
		c1,0,1.9,0.1,2.8,0.3c0.9,0.2,1.7,0.5,2.4,0.8c0.7,0.4,1.2,0.8,1.7,1.4c0.4,0.6,0.6,1.2,0.6,1.9c0,0.9-0.2,1.5-0.7,1.9
		c-0.5,0.4-1,0.8-1.5,1c-0.6,0.2-1.1,0.4-1.5,0.5c-0.5,0.1-0.7,0.3-0.7,0.4c-0.3-0.6-0.8-1.2-1.3-1.8c-0.5-0.5-1.1-0.8-1.8-0.8
		c-1.2,0-2.3,0.3-3.3,0.8c-1,0.5-1.7,1.3-2.4,2.2c-0.6,0.9-1.1,2-1.4,3.2C107.2,187.3,107,188.6,107,189.9z"/>
	<path d="M150.5,205.8c-1.5,0-2.6-0.5-3.4-1.5c-0.8-1-1.5-2.1-1.9-3.4c-0.4-1.3-0.6-2.7-0.7-4c-0.1-1.3-0.1-2.4-0.1-3.1
		c0-1.3,0.1-2.7,0.3-4.2c0.2-1.5,0.3-2.8,0.3-4c0-0.8,0-1.5-0.1-2.2c-0.1-0.7-0.2-1.3-0.5-1.7c-0.2-0.5-0.6-0.9-1-1.1
		c-0.4-0.3-1-0.4-1.7-0.4c-0.7,0-1.5,0.2-2.1,0.7c-0.7,0.4-1.3,1-1.7,1.7c-0.3,0.4-0.6,0.9-0.8,1.5c-0.3,0.6-0.5,1.4-0.7,2.5
		c-0.2,1.1-0.3,2.5-0.4,4.3c-0.1,1.8-0.1,4-0.1,6.7c0,1.6,0,2.9,0.1,4c0.1,1,0.4,2.1,0.9,3.1c-0.1,0-0.3,0.1-0.4,0.3
		c-0.2,0.2-0.4,0.3-0.7,0.5c-0.3,0.2-0.7,0.4-1.1,0.5c-0.4,0.2-1,0.3-1.6,0.3c-0.9,0-1.7-0.1-2.4-0.4c-0.7-0.3-1.2-0.6-1.7-1
		c-0.4-0.4-0.7-0.9-1-1.4c-0.2-0.5-0.3-1-0.3-1.5c0-2.2,0.1-4.3,0.2-6.2c0.1-1.9,0.2-3.8,0.3-5.6c0-1.8,0.1-3.5,0.1-5.2
		c0-1.7,0-3.2,0-4.7c0-3.5,0-6.5-0.1-9c-0.1-2.5-0.2-4.2-0.4-5.2c0.5-0.3,1.1-0.7,2-1.1c0.8-0.4,1.7-0.7,2.6-0.7
		c0.8,0,1.5,0.1,2,0.4c0.6,0.3,1.1,0.6,1.4,1c0.4,0.4,0.7,0.9,0.8,1.4c0.2,0.5,0.3,1,0.3,1.6c0,0.3,0,0.8-0.1,1.5
		c-0.1,0.7-0.2,1.4-0.3,2.2c-0.1,0.8-0.2,1.6-0.3,2.5c-0.1,0.9-0.1,1.6-0.1,2.4c1.9-2,4.5-3,7.9-3c1.5,0,2.8,0.2,4,0.5
		c1.2,0.4,2.2,1,3,1.8c0.8,0.9,1.4,2,1.9,3.4c0.4,1.4,0.6,3.1,0.6,5.2c0,1.7-0.1,3.4-0.4,5.2c-0.3,1.8-0.4,3.4-0.4,4.9
		c0,0.3,0,0.8,0,1.3c0,0.6,0,1.1,0.1,1.7c0.1,0.5,0.1,1,0.2,1.4c0.1,0.4,0.2,0.6,0.4,0.6c0.4,0,0.9-0.1,1.5-0.3s1.1-0.4,1.5-0.4
		c0.1,0,0.2,0.1,0.5,0.2c0.3,0.1,0.4,0.6,0.4,1.4c0,0.4-0.3,1-0.8,1.5c-0.5,0.6-1.2,1.1-1.9,1.7c-0.7,0.5-1.5,1-2.2,1.3
		C151.6,205.6,151,205.8,150.5,205.8z"/>
	<path d="M176.5,200.6c0.5,0,1-0.1,1.5-0.2c0.5-0.1,1-0.3,1.4-0.5c0.4-0.2,0.8-0.5,1.2-0.9c0.3-0.4,0.6-0.8,0.7-1.3
		c0,0.1,0.2,0.2,0.4,0.4c0.2,0.2,0.5,0.4,0.8,0.7c0.3,0.3,0.5,0.6,0.8,1c0.2,0.4,0.4,0.8,0.4,1.3c0,1-0.3,1.8-0.8,2.4
		c-0.6,0.6-1.3,1.1-2.1,1.5c-0.8,0.4-1.7,0.6-2.7,0.8c-0.9,0.1-1.8,0.2-2.5,0.2c-2.1,0-4.1-0.4-6-1.1c-1.9-0.7-3.5-1.8-4.9-3.2
		c-1.4-1.4-2.5-3-3.3-5c-0.8-1.9-1.2-4.1-1.2-6.4c0-2.1,0.3-4.1,1-6c0.7-2,1.7-3.7,2.9-5.2c1.3-1.5,2.8-2.8,4.6-3.7
		c1.8-0.9,3.7-1.4,5.9-1.4c1.7,0,3.2,0.2,4.4,0.7c1.3,0.5,2.3,1.1,3.2,2c0.8,0.8,1.5,1.8,1.9,3c0.4,1.1,0.6,2.3,0.6,3.6
		c0,1.4-0.3,2.6-0.8,3.6c-0.5,1-1.2,2-2.1,2.7c-0.9,0.8-1.9,1.5-3,2c-1.1,0.6-2.3,1-3.5,1.5c-0.9,0.3-1.5,0.7-1.8,1.1
		c-0.3,0.5-0.5,0.9-0.5,1.2c-0.9-0.8-1.5-1.5-1.8-2.2c-0.3-0.7-0.5-1.2-0.5-1.8c0-0.4,0.1-0.8,0.3-1.1c0.2-0.3,0.5-0.6,0.8-0.9
		c0.3-0.3,0.6-0.5,0.9-0.6c0.3-0.2,0.6-0.3,0.8-0.4c1.1-0.5,2-1.2,2.6-2.3c0.6-1,0.9-2.2,0.9-3.4c0-0.6-0.1-1.2-0.3-1.7
		c-0.2-0.5-0.5-0.8-0.8-1.1c-0.3-0.3-0.6-0.5-1-0.6c-0.4-0.1-0.7-0.2-1-0.2c-1,0-1.8,0.3-2.5,1c-0.7,0.7-1.2,1.5-1.6,2.5
		c-0.4,1-0.7,2.1-0.9,3.3c-0.2,1.2-0.3,2.4-0.3,3.4c0,1.3,0.1,2.6,0.4,3.8c0.3,1.3,0.8,2.5,1.4,3.5c0.6,1.1,1.4,1.9,2.4,2.6
		C173.9,200.2,175.1,200.6,176.5,200.6z"/>
	<path d="M204.4,180.7c-0.9,0-1.7,0.4-2.4,1.2c-0.7,0.8-1.3,1.8-1.8,3.1c-0.5,1.3-0.9,2.7-1.1,4.2c-0.3,1.6-0.4,3.1-0.4,4.5
		c0,1.4,0.1,2.8,0.2,4c0.1,1.3,0.2,2.5,0.2,3.8c0,1.6-0.4,2.7-1.1,3.4c-0.7,0.7-1.8,1-3.1,1c-0.9,0-1.7-0.1-2.2-0.2
		c-0.5-0.1-0.9-0.3-1.2-0.5c-0.3-0.2-0.6-0.3-0.9-0.5c-0.3-0.1-0.6-0.2-1.1-0.2c0.4-1.1,0.8-2.3,1.1-3.5c0.3-1.2,0.4-2.4,0.4-3.7
		c0-4.1,0-7.5-0.1-10.1c-0.1-2.6-0.1-4.7-0.3-6.3c-0.1-1.6-0.3-2.9-0.5-3.8c-0.2-0.9-0.5-1.7-0.8-2.5c0.1,0,0.3-0.1,0.6-0.2
		c0.4-0.1,0.8-0.3,1.3-0.5c0.5-0.2,1.1-0.3,1.8-0.5c0.7-0.1,1.4-0.2,2.1-0.2c1.2,0,2.1,0.3,2.7,0.9c0.6,0.6,0.9,1.4,0.9,2.4
		c0,0.5-0.1,1.2-0.2,2c-0.1,0.8-0.2,1.5-0.2,2.1c0.3-0.4,0.6-1,0.9-1.8c0.3-0.8,0.7-1.5,1.2-2.3c0.5-0.8,1-1.4,1.6-2
		c0.6-0.6,1.4-0.9,2.2-0.9c0.5,0,1,0.1,1.5,0.2c0.5,0.1,0.9,0.2,1.3,0.2c0.6,0,1.2-0.1,1.7-0.4c0.5-0.2,0.9-0.6,1.1-0.9
		c0,0.1,0.2,0.3,0.5,0.7c0.3,0.3,0.6,0.8,0.9,1.3c0.3,0.5,0.6,1.1,0.9,1.8c0.3,0.7,0.4,1.4,0.4,2.2c0,0.9-0.3,1.7-0.9,2.2
		c-0.6,0.5-1.4,0.8-2.5,0.8c-0.3,0-0.7,0-1.1-0.1c-0.4-0.1-0.9-0.2-1.3-0.3c-0.4-0.1-0.9-0.2-1.3-0.3
		C205,180.8,204.6,180.7,204.4,180.7z"/>
	<path d="M224.7,191.8c0,1.6,0,3,0.1,4.3c0,1.3,0.1,2.4,0.2,3.5c0.1,1,0.3,2,0.5,2.8c0.2,0.8,0.5,1.6,0.8,2.3c-0.3,0-0.6,0.1-1,0.2
		c-0.3,0.1-0.7,0.3-1.2,0.5c-0.4,0.2-1,0.3-1.5,0.4c-0.6,0.1-1.2,0.2-2,0.2c-0.8,0-1.4-0.2-1.9-0.5c-0.5-0.3-0.9-0.7-1.2-1.2
		c-0.3-0.5-0.5-1-0.6-1.5c-0.1-0.5-0.2-1-0.2-1.5c0-2.2,0-4.3,0.1-6.3c0.1-1.9,0.1-3.9,0.1-5.8c0-2.4,0-4.4-0.1-5.9
		c-0.1-1.6-0.2-2.8-0.3-3.9c-0.1-1-0.4-1.9-0.6-2.6c-0.3-0.7-0.6-1.4-0.9-2.1c0.3,0,0.6-0.1,0.9-0.2c0.4-0.1,0.8-0.3,1.3-0.5
		c0.5-0.2,1.1-0.4,1.8-0.5c0.7-0.1,1.6-0.2,2.6-0.2c0.8,0,1.4,0.2,1.9,0.5c0.5,0.3,0.9,0.8,1.2,1.3c0.3,0.5,0.5,1,0.6,1.6
		c0.1,0.5,0.1,1,0.1,1.5c0,0.9,0,1.8-0.1,2.9c-0.1,1.1-0.1,2.2-0.2,3.4c-0.1,1.2-0.2,2.4-0.2,3.7
		C224.7,189.5,224.7,190.7,224.7,191.8z M226,167.6c0,0.6-0.1,1.1-0.4,1.7c-0.2,0.6-0.6,1.1-1,1.5c-0.4,0.4-1,0.8-1.6,1.1
		c-0.6,0.3-1.3,0.4-2,0.4c-0.5,0-1-0.1-1.6-0.3c-0.6-0.2-1.2-0.4-1.7-0.8c-0.5-0.4-1-0.8-1.3-1.3c-0.4-0.5-0.5-1.2-0.5-1.9
		c0-0.5,0.1-1.1,0.3-1.6c0.2-0.6,0.6-1.1,1-1.5c0.4-0.4,1-0.8,1.6-1.1c0.6-0.3,1.4-0.4,2.2-0.4c0.5,0,1,0.1,1.6,0.2
		c0.6,0.1,1.2,0.4,1.7,0.7c0.5,0.3,1,0.8,1.3,1.3C225.8,166.1,226,166.8,226,167.6z"/>
</g>
<g>
	<path d="M124.7,221.9v-0.8c0-0.5-0.2-1-0.7-1.3c-0.4-0.3-1-0.5-1.7-0.5c-0.7,0-1.3,0.2-1.7,0.5c-0.4,0.3-0.7,0.7-0.7,1.3v5.4
		c0,0.5,0.2,1,0.7,1.3c0.4,0.3,1,0.5,1.7,0.5c0.7,0,1.3-0.2,1.7-0.5c0.4-0.3,0.7-0.7,0.7-1.3v-0.8h2v0.6c0,1-0.4,1.9-1.2,2.5
		c-0.8,0.6-1.9,1-3.2,1c-1.3,0-2.3-0.3-3.2-1c-0.8-0.6-1.2-1.5-1.2-2.5v-5.1c0-1,0.4-1.9,1.2-2.5c0.8-0.6,1.9-1,3.2-1
		c1.3,0,2.3,0.3,3.2,1c0.8,0.6,1.2,1.5,1.2,2.5v0.6H124.7z"/>
	<path d="M137.7,226.4c0,1-0.4,1.9-1.2,2.5c-0.8,0.6-1.9,1-3.2,1c-1.3,0-2.3-0.3-3.2-1c-0.8-0.6-1.2-1.5-1.2-2.5v-5.1
		c0-1,0.4-1.9,1.2-2.5c0.8-0.6,1.9-1,3.2-1c1.3,0,2.3,0.3,3.2,1c0.8,0.6,1.2,1.5,1.2,2.5V226.4z M135.7,226.5v-5.4
		c0-0.5-0.2-1-0.7-1.3c-0.4-0.3-1-0.5-1.7-0.5c-0.7,0-1.3,0.2-1.7,0.5c-0.4,0.3-0.7,0.7-0.7,1.3v5.4c0,0.5,0.2,1,0.7,1.3
		c0.4,0.3,1,0.5,1.7,0.5c0.7,0,1.3-0.2,1.7-0.5C135.5,227.5,135.7,227,135.7,226.5z"/>
	<path d="M144.1,217.8c1.2,0,2.2,0.3,3,0.9c0.8,0.6,1.1,1.4,1.1,2.4v0.4h-2v-0.5c0-0.5-0.2-0.9-0.6-1.2c-0.4-0.3-0.9-0.5-1.6-0.5
		c-0.6,0-1.1,0.1-1.5,0.4c-0.4,0.3-0.6,0.6-0.6,1.1c0,0.7,0.4,1.2,1.1,1.5l3.3,1.3c0.6,0.3,1.2,0.7,1.5,1.2c0.4,0.5,0.6,1.1,0.6,1.8
		c0,0.9-0.4,1.7-1.2,2.3c-0.8,0.6-1.8,0.9-3,0.9c-1.3,0-2.3-0.3-3.1-0.9c-0.8-0.6-1.2-1.4-1.2-2.4V226h2v0.5c0,0.5,0.2,0.9,0.6,1.2
		c0.4,0.3,1,0.5,1.7,0.5c0.6,0,1.2-0.1,1.6-0.4c0.4-0.3,0.6-0.6,0.6-1.1c0-0.7-0.4-1.1-1.2-1.4l-3.3-1.3c-0.6-0.3-1.2-0.7-1.5-1.2
		c-0.4-0.5-0.5-1.1-0.5-1.8c0-1,0.4-1.8,1.1-2.4C142,218.1,142.9,217.8,144.1,217.8z"/>
	<path d="M157.2,229.7v-8.8c0-0.5-0.2-0.8-0.6-1.1c-0.4-0.3-0.9-0.4-1.6-0.4c-0.6,0-1.2,0.1-1.6,0.4c-0.4,0.3-0.6,0.6-0.7,1.1v8.8
		h-2v-11.7h2v1c0.8-0.8,1.8-1.2,3-1.2c1.5,0,2.5,0.5,3.1,1.6c0.9-1,2-1.6,3.4-1.6c1,0,1.8,0.3,2.5,0.8c0.6,0.6,1,1.3,1,2.3v8.8h-2
		v-8.8c0-0.5-0.2-0.8-0.6-1.1c-0.4-0.3-0.9-0.4-1.6-0.4c-0.6,0-1.2,0.1-1.6,0.4c-0.4,0.3-0.6,0.6-0.7,1.1v8.8H157.2z"/>
	<path d="M168.3,226.4v-5.1c0-1,0.4-1.9,1.2-2.5c0.8-0.6,1.9-1,3.2-1c1.3,0,2.3,0.3,3.2,1c0.8,0.6,1.2,1.5,1.2,2.5v3.3h-6.8v2
		c0,0.5,0.2,1,0.7,1.3c0.4,0.3,1,0.5,1.7,0.5c0.7,0,1.3-0.2,1.7-0.5c0.4-0.3,0.7-0.7,0.7-1.3V226h2v0.4c0,1-0.4,1.9-1.2,2.5
		c-0.8,0.6-1.9,1-3.2,1c-1.3,0-2.3-0.3-3.2-1C168.7,228.3,168.3,227.4,168.3,226.4z M172.7,219.4c-0.7,0-1.3,0.2-1.7,0.5
		c-0.4,0.3-0.7,0.7-0.7,1.3v1.8h4.7v-1.8c0-0.5-0.2-1-0.7-1.3C174,219.5,173.4,219.4,172.7,219.4z"/>
	<path d="M185.2,228.1v1.6h-1c-1.1,0-2-0.3-2.6-0.8c-0.7-0.5-1-1.2-1-2.1v-7.3h-2.4v-1.6h2.4v-2.5h2v2.5h2.6v1.6h-2.6v7.3
		c0,0.4,0.2,0.7,0.5,0.9c0.3,0.2,0.7,0.3,1.2,0.3H185.2z"/>
	<path d="M187.5,216.2v-2.1h2v2.1H187.5z M187.5,229.7v-11.7h2v11.7H187.5z"/>
	<path d="M198.9,221.9v-0.8c0-0.5-0.2-1-0.7-1.3c-0.4-0.3-1-0.5-1.7-0.5c-0.7,0-1.3,0.2-1.7,0.5c-0.4,0.3-0.7,0.7-0.7,1.3v5.4
		c0,0.5,0.2,1,0.7,1.3c0.4,0.3,1,0.5,1.7,0.5c0.7,0,1.3-0.2,1.7-0.5c0.4-0.3,0.7-0.7,0.7-1.3v-0.8h2v0.6c0,1-0.4,1.9-1.2,2.5
		c-0.8,0.6-1.9,1-3.2,1c-1.3,0-2.3-0.3-3.2-1c-0.8-0.6-1.2-1.5-1.2-2.5v-5.1c0-1,0.4-1.9,1.2-2.5c0.8-0.6,1.9-1,3.2-1
		c1.3,0,2.3,0.3,3.2,1c0.8,0.6,1.2,1.5,1.2,2.5v0.6H198.9z"/>
	<path d="M207.1,217.8c1.2,0,2.2,0.3,3,0.9c0.8,0.6,1.1,1.4,1.1,2.4v0.4h-2v-0.5c0-0.5-0.2-0.9-0.6-1.2c-0.4-0.3-0.9-0.5-1.6-0.5
		c-0.6,0-1.1,0.1-1.5,0.4c-0.4,0.3-0.6,0.6-0.6,1.1c0,0.7,0.4,1.2,1.1,1.5l3.3,1.3c0.6,0.3,1.2,0.7,1.5,1.2c0.4,0.5,0.6,1.1,0.6,1.8
		c0,0.9-0.4,1.7-1.2,2.3c-0.8,0.6-1.8,0.9-3,0.9c-1.3,0-2.3-0.3-3.1-0.9c-0.8-0.6-1.2-1.4-1.2-2.4V226h2v0.5c0,0.5,0.2,0.9,0.6,1.2
		c0.4,0.3,1,0.5,1.7,0.5c0.6,0,1.2-0.1,1.6-0.4c0.4-0.3,0.6-0.6,0.6-1.1c0-0.7-0.4-1.1-1.2-1.4l-3.3-1.3c-0.7-0.3-1.2-0.7-1.5-1.2
		c-0.4-0.5-0.5-1.1-0.5-1.8c0-1,0.4-1.8,1.1-2.4C205,218.1,206,217.8,207.1,217.8z"/>
</g>
</svg>
