<?xml version="1.0" encoding="utf-8"?>
<!-- Generator: Adobe Illustrator 22.1.0, SVG Export Plug-In . SVG Version: 6.00 Build 0)  -->
<svg version="1.1" id="Layer_1" xmlns="http://www.w3.org/2000/svg" xmlns:xlink="http://www.w3.org/1999/xlink" x="0px" y="0px"
	 viewBox="0 0 380.2 96.3" style="enable-background:new 0 0 380.2 96.3;" xml:space="preserve">
<style type="text/css">
	.st0{fill:#68B8D5;}
</style>
<g>
	<polygon class="st0" points="40.6,69.9 25.2,69.9 12.8,51.7 12.5,51.7 12.5,69.9 0,69.9 0,12.4 12.5,12.4 12.5,47.4 12.8,47.4 
		24.9,32 40,32 25.4,49.1 	"/>
	<path class="st0" d="M70.6,46.6c0-4-2.5-7.2-7.5-7.2c-4.8,0-8.3,3.3-8.6,7.2H70.6z M82.1,54.3H54.6c0.4,4.2,4.6,7.1,9,7.1
		c4,0,6.7-1.7,8.4-4l8.7,5.5c-3.6,5.2-9.5,8.1-17.2,8.1c-11.4,0-20.8-7.2-20.8-20c0-12.4,9-20.3,20.5-20.3c11.2,0,19,7.7,19,20.6
		C82.1,52.4,82.1,53.4,82.1,54.3"/>
	<path class="st0" d="M111.8,41.1c-5.6,0-9.1,4.9-9.1,9.7c0,4.9,3.5,9.7,9.1,9.7c5.9,0,8.9-4.9,8.9-9.8
		C120.7,45.9,117.7,41.1,111.8,41.1 M114.8,70.9c-4.6,0-9.1-2-11.5-5.2h-0.2v23.5H90.7V32h11.9v4.6h0.2c2.3-3,6.5-5.7,12.1-5.7
		c11,0,17.9,9.3,17.9,19.8C132.8,61.3,126.2,70.9,114.8,70.9"/>
	<path class="st0" d="M163.7,53.4h-1.6c-5.5,0-11.6,0.7-11.6,5.2c0,2.9,2.9,3.9,5.4,3.9c5,0,7.8-3,7.8-7.8V53.4z M140.8,37.2
		c4.4-4.2,10.7-6.4,16.9-6.4c12.7,0,17.4,6.2,17.4,20v19.1h-11.4v-4h-0.2c-1.9,3.1-6.2,4.9-10.7,4.9c-6,0-13.8-3-13.8-11.9
		c0-10.9,13.3-12.8,24.3-12.8v-0.6c0-3.7-3-5.5-6.8-5.5c-3.6,0-7.1,1.7-9.4,3.9L140.8,37.2z"/>
	<polygon class="st0" points="185.2,32 201.7,32 210.9,54.6 211,54.6 219.7,32 236.4,32 236.4,69.9 224.3,69.9 224.3,45 224.1,45 
		214.4,69.9 206.8,69.9 197.1,44.9 196.9,44.9 196.9,69.9 185.2,69.9 	"/>
	<path class="st0" d="M247,32h12.5v37.9H247V32z M253.2,26.7c-4,0-7.1-3.1-7.1-6.8c0-3.6,3.1-6.8,7.1-6.8c4,0,7.1,3,7.1,6.8
		C260.4,23.8,257.2,26.7,253.2,26.7"/>
	<polygon class="st0" points="310.8,69.9 295.4,69.9 283,51.7 282.7,51.7 282.7,69.9 270.2,69.9 270.2,12.4 282.7,12.4 282.7,47.4 
		283,47.4 295.1,32 310.2,32 295.6,49.1 	"/>
	<path class="st0" d="M338,53.4h-1.6c-5.5,0-11.6,0.7-11.6,5.2c0,2.9,2.9,3.9,5.4,3.9c5,0,7.8-3,7.8-7.8V53.4z M315.1,37.2
		c4.4-4.2,10.7-6.4,16.9-6.4c12.7,0,17.4,6.2,17.4,20v19.1H338v-4h-0.2c-1.9,3.1-6.2,4.9-10.7,4.9c-6,0-13.8-3-13.8-11.9
		c0-10.9,13.3-12.8,24.3-12.8v-0.6c0-3.7-3-5.5-6.8-5.5c-3.6,0-7.1,1.7-9.4,3.9L315.1,37.2z"/>
	<polygon class="st0" points="12.2,89.2 0,89.2 0,75.4 1.6,75.4 1.6,87.8 9.9,87.8 9.9,75.4 11.5,75.4 11.5,87.8 13.7,87.8 
		13.7,93.7 12.2,93.7 	"/>
	<polygon class="st0" points="36.1,75.4 37.8,75.4 37.8,81.4 46.2,81.4 46.2,75.4 47.8,75.4 47.8,89.2 46.2,89.2 46.2,82.7 
		37.8,82.7 37.8,89.2 36.1,89.2 	"/>
	<polygon class="st0" points="57,76.8 52,76.8 52,75.4 63.7,75.4 63.7,76.8 58.6,76.8 58.6,89.2 57,89.2 	"/>
	<path class="st0" d="M74.9,76.4c-3.2,0-5.6,2.6-5.6,5.9c0,3.3,2.3,5.9,5.6,5.9c3.5,0,5.5-2.6,5.5-5.9
		C80.4,79.1,78.3,76.4,74.9,76.4 M69.5,96.3h-1.6V75.4h1.6v2.7h0.1c1.2-2.1,3.3-3.1,5.5-3.1c4.3,0,7.1,3.1,7.1,7.2
		c0,4.1-2.8,7.3-7,7.3c-2.2,0-4.4-0.9-5.5-3h-0.1V96.3z"/>
	<path class="st0" d="M29.3,81.4c-0.1-2.9-1.9-5-4.9-5c-3.1,0-5,2.7-5.1,5H29.3z M17.6,82.3c0-4.1,3-7.2,6.8-7.2
		c4.3,0,6.5,3.1,6.5,6.7v0.8H19.3c0.1,2.9,2.1,5.6,5.4,5.6c2.1,0,3.5-0.8,4.7-2.3l1.1,0.9c-1.5,2-3.5,2.9-5.8,2.9
		C20.5,89.6,17.6,86.5,17.6,82.3"/>
</g>
<path class="st0" d="M349.4,0v30.8h30.8V0H349.4z M372.5,23.1h-15.4V7.7h15.4V23.1z"/>
</svg>
