<?xml version="1.0" encoding="utf-8"?>
<!-- Generator: Adobe Illustrator 22.1.0, SVG Export Plug-In . SVG Version: 6.00 Build 0)  -->
<svg version="1.1" id="Layer_1" xmlns="http://www.w3.org/2000/svg" xmlns:xlink="http://www.w3.org/1999/xlink" x="0px" y="0px"
	 viewBox="0 0 155.8 123" style="enable-background:new 0 0 155.8 123;" xml:space="preserve">
<style type="text/css">
	.st0{fill:#DA7F2D;stroke:#252324;stroke-width:2.9695;stroke-miterlimit:10;}
	.st1{fill:#252324;}
	.st2{fill:#FFFFFF;}
</style>
<g>
	<rect x="1.4" y="1.5" class="st0" width="152.9" height="120"/>
	<rect x="7.9" y="10.1" class="st1" width="140" height="54.7"/>
	<path class="st1" d="M49.3,69.7h1.2l9.2,40.1h-9.5l-4-17.8l-10.5,17.8h-1.3L23.7,92l-4,17.8h-9.5l9.2-40.1h1.2L35,95L49.3,69.7z"/>
	<path class="st1" d="M84.1,69.7c12.2,0,20.8,9.8,20.8,20.5s-8.6,20.5-20.8,20.5c-12.9,0-21-10.4-21-20.5
		C63.1,79.6,71.7,69.7,84.1,69.7z M84.1,102.9c6.8,0,11.4-5.5,11.4-12.7c0-7-4.6-12.8-11.4-12.8c-6.8,0-11.4,5.8-11.4,12.8
		C72.6,97.4,77.2,102.9,84.1,102.9z"/>
	<path class="st1" d="M124.5,78.3v22.5c0,9.4-6.7,9.9-10.3,9.9c-3,0-4.8-1-5.7-1.4v-7.8c0.5,0.2,2.2,0.8,3.8,0.8
		c3,0,2.8-2.6,2.8-3.5V70.5h28.5v39.3H134V78.3H124.5z"/>
	<path class="st1" d="M81,90.1c0-1,0.8-1.8,1.8-1.8c1,0,1.8,0.8,1.8,1.8c0,1-0.8,1.8-1.8,1.8C81.8,91.9,81,91.1,81,90.1z"/>
	<g>
		<g>
			<path class="st1" d="M85,95.8l0.7,5.2c0.7-0.1,1.3-0.4,2-0.6L85,95.8z"/>
			<path class="st1" d="M89.3,93.5c-1,0-2.8,0.9-1.9,2.4c0.3,0.5,1.3,2.1,2.2,3.5c2.1-1.4,3.6-3.5,4.4-6
				C91.8,93.4,89.7,93.5,89.3,93.5z"/>
			<path class="st1" d="M88.1,84.2c-0.2,0.9-0.5,2.9,0.1,3.8c0.9,1.4,4.5,0.8,6.2,0.4c-0.5-3.3-2.5-6.1-5.2-7.8
				C88.7,81.9,88.2,83.6,88.1,84.2z"/>
			<path class="st1" d="M81.8,95.5c-1.5-0.3-3.3,0.7-4.7,2.2c-0.3,0.3-0.6,0.6-0.8,0.9c1.9,1.7,4.4,2.6,7.1,2.6c0.4,0,0.7,0,1.1-0.1
				C84.1,98.9,83.2,95.7,81.8,95.5z"/>
			<path class="st1" d="M94.3,92.2c0.1-0.7,0.2-1.4,0.2-2.1c0,0,0-0.1,0-0.1l-6.7,0.9L94.3,92.2z"/>
		</g>
		<path class="st1" d="M83.6,93.8c0-0.5,0.4-0.9,0.9-0.9c0.5,0,0.9,0.4,0.9,0.9s-0.4,0.9-0.9,0.9C84,94.7,83.6,94.3,83.6,93.8z"/>
		<ellipse class="st1" cx="86.4" cy="91.1" rx="0.9" ry="0.9"/>
		<path class="st1" d="M84.5,87.4c0-0.5,0.4-0.9,0.9-0.9c0.5,0,0.9,0.4,0.9,0.9c0,0.5-0.4,0.9-0.9,0.9
			C84.9,88.3,84.5,87.9,84.5,87.4z"/>
		<path class="st1" d="M79.9,93.2c0-0.5,0.4-0.9,0.9-0.9c0.5,0,0.9,0.4,0.9,0.9c0,0.5-0.4,0.9-0.9,0.9C80.3,94,79.9,93.7,79.9,93.2z
			"/>
	</g>
	<g>
		<path class="st2" d="M21.6,55.3h-8.3L30,19.5h0.7l16.7,35.7h-8.3l-2.2-4.7H23.8L21.6,55.3z M34.2,43.6l-3.8-7.1l-3.8,7.1H34.2z"/>
		<path class="st2" d="M51.2,20.3h13.3c7.4,0,10,5.2,10,9.1c0,3.7-2.4,6.1-5.3,7c4.2,1.2,6.9,4.5,6.9,8.8c0,5.4-3.6,10-10.4,10H51.2
			V20.3z M61.8,33.5c1.5,0,4.2,0,4.2-3.3c0-3-2.8-3-4.2-3h-2.1v6.3H61.8z M62.9,48.4c0.9,0,4.7,0.1,4.7-4c0-2.4-1.6-4-4.8-4h-3.2v8
			H62.9z"/>
		<path class="st2" d="M86.4,27.1h-7v-6.9h22.4v6.9h-7v28.1h-8.4V27.1z"/>
		<path class="st2" d="M123.9,19.5c10.9,0,18.6,8.7,18.6,18.2c0,9.5-7.6,18.2-18.6,18.2c-11.5,0-18.7-9.2-18.7-18.2
			C105.2,28.4,112.8,19.5,123.9,19.5z M123.8,49.1c6,0,10.1-4.9,10.1-11.3c0-6.3-4.1-11.4-10.1-11.4c-6.1,0-10.2,5.2-10.2,11.4
			C113.6,44.2,117.7,49.1,123.8,49.1z"/>
	</g>
</g>
</svg>
