<?xml version="1.0" encoding="utf-8"?>
<!-- Generator: Adobe Illustrator 22.1.0, SVG Export Plug-In . SVG Version: 6.00 Build 0)  -->
<svg version="1.1" id="Layer_1" xmlns="http://www.w3.org/2000/svg" xmlns:xlink="http://www.w3.org/1999/xlink" x="0px" y="0px"
	 viewBox="0 0 247.6 95.2" style="enable-background:new 0 0 247.6 95.2;" xml:space="preserve">
<style type="text/css">
	.st0{fill:#9A276E;}
</style>
<path class="st0" d="M239.4,57.2c0-2.3,1.8-4.1,4.1-4.1c2.3,0,4.1,1.8,4.1,4.1c0,2.3-1.8,4.1-4.1,4.1
	C241.2,61.3,239.4,59.5,239.4,57.2 M246.7,57.2c0-1.8-1.5-3.2-3.2-3.2c-1.7,0-3.2,1.5-3.2,3.2c0,1.8,1.5,3.2,3.2,3.2
	C245.2,60.5,246.7,59,246.7,57.2 M242.5,57.6v1.6c0,0.2-0.1,0.4-0.4,0.4s-0.4-0.1-0.4-0.4v-4.1c0-0.2,0.1-0.2,0.3-0.2h1.5
	c1.1,0,1.7,0.3,1.7,1.4c0,0.9-0.5,1.2-1.2,1.3l1,1.5c0,0.1,0.1,0.2,0.1,0.3c0,0.1-0.2,0.2-0.4,0.2c-0.2,0-0.3-0.1-0.5-0.2l-1.1-1.7
	H242.5z M243.4,56.9c0.6,0,1.1,0,1.1-0.7c0-0.6-0.6-0.6-1-0.6h-0.9v1.3H243.4z M213.6,87.9V56c0-1.6-1.3-2.8-2.8-2.8
	s-2.8,1.3-2.8,2.8v31.9c0,1.6,1.3,2.8,2.8,2.8S213.6,89.4,213.6,87.9 M156.8,85H152c-1.6,0-2.9-1.3-2.9-2.9v-9.4c0-1.1,0.9-2,2-2
	h5.2c1.6,0,2.8-1.3,2.8-2.8s-1.3-2.8-2.8-2.8h-5.2c-1.1,0-2-0.9-2-2v-1.4c0-1.6,1.3-2.9,2.9-2.9h4.8c1.6,0,2.8-1.3,2.8-2.8
	c0-1.6-1.3-2.8-2.8-2.8H152c-4.7,0-8.6,3.8-8.6,8.6v20.5c0,4.7,3.8,8.6,8.6,8.6h4.8c1.6,0,2.8-1.3,2.8-2.8S158.3,85,156.8,85
	 M81,53.1H64.9c-1.6,0-2.8,1.3-2.8,2.8s1.3,2.8,2.8,2.8h3.2c1.1,0,2,0.9,2,2V88c0,1.6,1.3,2.8,2.8,2.8c1.6,0,2.8-1.3,2.8-2.8V60.8
	c0-1.1,0.9-2,2-2H81c1.6,0,2.8-1.3,2.8-2.8S82.6,53.1,81,53.1 M17.1,85l0-29.1c0-1.6-1.3-2.8-2.8-2.8c-1.6,0-2.8,1.3-2.8,2.8v27.2
	c-0.1,1-0.9,1.8-1.9,1.9h-1c-1.6,0-2.9-1.3-2.9-2.9V56c0-1.6-1.3-2.8-2.8-2.8C1.3,53.1,0,54.4,0,56v26.2c0,4.7,3.8,8.6,8.6,8.6h1.6
	H14v1.7c0,1.6,1.3,2.8,2.8,2.8c1.6,0,2.8-1.3,2.8-2.8v-4.5C19.6,86.4,18.5,85.2,17.1,85 M56,53.1c-1.6,0-2.8,1.3-2.8,2.8v7.2
	c-0.1,1.1-0.9,1.9-2,2h-2.1c-1.1,0-1.9-0.9-2-2V56c0-1.6-1.3-2.8-2.8-2.8c-1.6,0-2.8,1.3-2.8,2.8v32c0,1.6,1.3,2.8,2.8,2.8
	c1.6,0,2.8-1.3,2.8-2.8V72.7c0-1.1,0.9-1.9,1.9-2h2.2c1,0.1,1.9,0.9,1.9,2V88c0,1.6,1.3,2.8,2.8,2.8c1.6,0,2.8-1.3,2.8-2.8V56
	C58.9,54.4,57.6,53.1,56,53.1 M34.9,85h-4.8c-1.6,0-2.9-1.3-2.9-2.9v-9.5c0.1-1,1-1.9,2-1.9h5.1c1.6,0,2.8-1.3,2.8-2.8
	s-1.3-2.8-2.8-2.8h-5.2c-1,0-1.9-0.8-2-1.9v-1.6c0-1.6,1.3-2.9,2.9-2.9h4.8c1.6,0,2.8-1.3,2.8-2.8c0-1.6-1.3-2.8-2.8-2.8h-4.8
	c-4.7,0-8.6,3.8-8.6,8.6v20.5c0,4.7,3.8,8.6,8.6,8.6h4.8c1.6,0,2.8-1.3,2.8-2.8S36.4,85,34.9,85 M94.3,53.1c-4.7,0-8.6,3.8-8.6,8.6
	v26.2c0,1.6,1.3,2.8,2.8,2.8c1.6,0,2.8-1.3,2.8-2.8v-6.3c0.2-1,0.9-1.8,1.8-2.2c4.7-1,9.6-3.8,9.6-9.7v-8
	C102.9,57,99,53.1,94.3,53.1 M97.2,69.7c0,1.9-1.7,3-3.5,3.6c-1.4,0.3-2-0.5-2.2-1.6V61.7c0-1.6,1.3-2.9,2.9-2.9s2.9,1.3,2.9,2.9
	V69.7z M138.6,56L138.6,56C138.6,56,138.6,55.9,138.6,56c0-0.3,0-0.4-0.1-0.6c0,0,0-0.1,0-0.1c0-0.1-0.1-0.3-0.1-0.4
	c0,0,0-0.1-0.1-0.1c0-0.1-0.1-0.2-0.1-0.3c0,0-0.1-0.1-0.1-0.1c0,0-0.1-0.1-0.1-0.1c-0.1-0.1-0.2-0.2-0.3-0.3c0,0-0.1,0-0.1-0.1
	c-0.1-0.1-0.2-0.2-0.3-0.3c0,0-0.1,0-0.1-0.1c-0.1-0.1-0.2-0.1-0.4-0.2c-0.1,0-0.1,0-0.2-0.1c-0.1,0-0.2-0.1-0.3-0.1
	c-0.1,0-0.1,0-0.2,0c-0.1,0-0.2,0-0.3,0c0,0,0,0-0.1,0c-0.1,0-0.1,0-0.2,0c-0.1,0-0.2,0-0.3,0c-0.1,0-0.2,0-0.3,0.1
	c-0.1,0-0.1,0-0.2,0.1c-0.1,0-0.2,0.1-0.4,0.2c0,0-0.1,0-0.1,0l-0.1,0.1c0,0,0,0,0,0l-6.9,4.1c-0.1,0.1-0.3,0.1-0.4,0.1
	c-0.1,0-0.3-0.1-0.5-0.2l-7-4.2c-0.1,0-0.1,0-0.2-0.1c-0.1,0-0.2-0.1-0.3-0.1c-0.1,0-0.2-0.1-0.3-0.1c-0.1,0-0.2,0-0.3-0.1
	c-0.1,0-0.2,0-0.3,0c-0.1,0-0.1,0-0.2,0c0,0,0,0-0.1,0c-0.1,0-0.2,0-0.3,0c-0.1,0-0.2,0-0.2,0c-0.1,0-0.2,0.1-0.3,0.1
	c-0.1,0-0.2,0.1-0.2,0.1c-0.1,0-0.2,0.1-0.3,0.1c-0.1,0-0.2,0.1-0.2,0.1c-0.1,0.1-0.1,0.1-0.2,0.2c-0.1,0.1-0.1,0.1-0.2,0.2
	c-0.1,0.1-0.1,0.1-0.2,0.2c-0.1,0.1-0.1,0.2-0.2,0.2c0,0,0,0,0,0.1c0,0.1,0,0.1-0.1,0.2c0,0.1-0.1,0.2-0.1,0.3
	c0,0.1-0.1,0.2-0.1,0.3c0,0.1,0,0.2-0.1,0.3c0,0.1,0,0.2,0,0.3c0,0.1,0,0.1,0,0.2v31.9c0,1.6,1.3,2.8,2.8,2.8s2.8-1.3,2.8-2.8v-25
	c0.1-0.5,0.2-0.8,0.5-1c0.3-0.2,0.6-0.2,1.1,0l3,1.8c0.5,0.3,1,0.4,1.5,0.4c0.5,0,1-0.1,1.5-0.4l2.9-1.8c0.6-0.2,1-0.3,1.2,0
	c0.2,0.2,0.4,0.4,0.4,0.8v25.2c0,1.6,1.3,2.8,2.8,2.8c1.6,0,2.8-1.3,2.8-2.8V56.1C138.6,56.1,138.6,56.1,138.6,56 M199.7,53.1H192
	c-1.4,0-2.5,1-2.8,2.3L183,87.3c-0.3,1.5,0.7,3,2.2,3.3c0.2,0,0.4,0.1,0.6,0.1c1.3,0,2.5-0.9,2.8-2.3l5.6-28.5h0
	c0.1-0.7,0.6-1.2,1.3-1.2h0c0.7,0,1.2,0.5,1.3,1.2h0V60c0,0,0,0.1,0,0.1v2.7c0,0,0,0.1,0,0.1v24.9c0,1.6,1.3,2.8,2.8,2.8
	s2.8-1.3,2.8-2.8V56C202.5,54.4,201.2,53.1,199.7,53.1 M236,62.1v-0.5c0-4.7-3.8-8.6-8.6-8.6c-4.1,0-8.6,3.2-8.6,10.1v18.9
	c0,4.7,3.8,8.6,8.6,8.6c4.7,0,8.6-3.8,8.6-8.6v-5.4c0-3.4-1.6-5.7-3.9-7.3C234.4,67.8,236,65.5,236,62.1 M230.4,82.1
	c0,1.6-1.3,2.9-2.9,2.9c-1.6,0-2.9-1.3-2.9-2.9v-7.8v-0.4h0c0,0,0,0,0,0c0-0.6,0.5-1.1,1.1-1.1c0.1,0,0.2,0,0.3,0.1v0
	c2.2,0.6,4.4,1.7,4.4,3.9V82.1z M230.4,62.1c0,2.2-2.2,3.3-4.4,3.9v0c-0.1,0-0.2,0-0.2,0c-0.6,0-1.1-0.5-1.1-1.1h0v-1.8
	c0-2.1,0.8-4.4,2.9-4.4c1.6,0,2.9,1.3,2.9,2.9V62.1z M170.4,64.4L170.4,64.4c-0.7-0.1-1.3-0.8-1.3-1.5h0v-2c0-1.1,0.8-1.9,1.9-2h7.1
	c1.6,0,2.8-1.3,2.8-2.8c0-1.6-1.3-2.8-2.8-2.8h-11.8c-1.6,0-2.8,1.3-2.8,2.8v26.2c0,4.7,3.8,8.6,8.6,8.6c4.7,0,8.6-3.8,8.6-8.6v-8
	C180.5,68,175.2,65.3,170.4,64.4 M174.8,82.1c0,1.6-1.3,2.9-2.9,2.9c-1.6,0-2.9-1.3-2.9-2.9V71l0,0c0,0,0,0,0,0v0h0
	c0-0.5,0.4-0.8,0.9-0.8c0.1,0,0.1,0,0.2,0v0c0,0,0.1,0,0.1,0c0,0,0.1,0,0.1,0c2.2,0.6,4.5,1.7,4.5,3.9V82.1z M174.1,6.6
	c-4.3-1.9-11.3-5.1-13.6-6.1c-2.3-1-4.5-0.4-6,0.3l-34.2,17.8L88.4,2.2L86,1c-1.5-0.7-3.4-1.5-5.7-0.5c-2.2,1-9,4-13.3,5.9
	c0.5,0,1,0.2,1.4,0.5c2,1.3,46.5,24.9,46.5,24.9c1.7,0.9,3.5,1.4,5.5,1.4c2,0,3.9-0.5,5.5-1.4c0,0,45.6-24.4,46-24.7
	C172.7,6.7,173.5,6.5,174.1,6.6 M66.6,11.9c-0.5,0.3-0.8,0.9-0.9,1.8v25.7h15.2l0-20.7c-4.2-2.3-8.1-4.4-11.7-6.4
	C68.2,11.8,67.3,11.6,66.6,11.9 M174.5,11.9c-0.6-0.4-1.6-0.1-2.6,0.4c-2.5,1.4-6.2,3.3-11.7,6.4v20.7h15.2V13.7
	C175.3,12.9,175,12.2,174.5,11.9"/>
</svg>
