<?xml version="1.0" encoding="utf-8"?>
<!-- Generator: Adobe Illustrator 22.1.0, SVG Export Plug-In . SVG Version: 6.00 Build 0)  -->
<svg version="1.1" id="Ebene_1" xmlns="http://www.w3.org/2000/svg" xmlns:xlink="http://www.w3.org/1999/xlink" x="0px" y="0px"
	 viewBox="0 0 332.4 35.3" style="enable-background:new 0 0 332.4 35.3;" xml:space="preserve">
<style type="text/css">
	.st0{fill:#C20D19;}
	.st1{fill:#2C4390;}
</style>
<g>
	<path class="st0" d="M48,4c0-2.3,1.5-3.8,3.8-3.8c2.3,0,3.8,1.5,3.8,3.8v27.2c0,2.3-1.5,3.8-3.8,3.8c-2.3,0-3.8-1.5-3.8-3.8V4L48,4
		z"/>
	<path class="st0" d="M62.1,4.7c0-3.2,1.5-4.5,4.8-4.5c1.6,0,3,0.6,3.8,2l13.4,21.6h0.1v-20c0-2.5,1.4-3.7,3.7-3.7
		c2.3,0,3.7,1.2,3.7,3.7v26.4c0,3-1.3,4.8-4.5,4.8c-2.4,0-3.2-0.5-4.2-2.1L69.6,12h-0.1v19.4c0,2.5-1.4,3.7-3.7,3.7
		c-2.3,0-3.7-1.2-3.7-3.7V4.7L62.1,4.7z"/>
	<path class="st0" d="M103.8,7.2h-5.5c-2.2,0-4-1.1-4-3.2c0-2.1,1.8-3.2,4-3.2H117c2.2,0,4,1.1,4,3.2c0,2.1-1.8,3.2-4,3.2h-5.5v24
		c0,2.3-1.5,3.8-3.8,3.8c-2.3,0-3.8-1.5-3.8-3.8V7.2L103.8,7.2z"/>
	<path class="st0" d="M123.7,5.3c0-3.4,1.8-4.5,4.5-4.5H145c2.2,0,3.9,0.7,3.9,3.1S147.3,7,145,7h-13.6v7.3h11.8
		c2,0,3.6,0.6,3.6,2.9c0,2.4-1.6,2.9-3.6,2.9h-11.8v8.1h14c2.2,0,3.9,0.7,3.9,3.1c0,2.4-1.6,3.1-3.9,3.1h-17.2
		c-2.7,0-4.5-1.1-4.5-4.5V5.3L123.7,5.3z"/>
	<path class="st0" d="M160.3,15.8h6.5c2.9,0,5.8-0.7,5.8-4.5c0-3.6-2.2-4.5-5.6-4.5h-6.7V15.8L160.3,15.8z M152.6,5.3
		c0-3.4,1.8-4.5,4.5-4.5h11.6c9.1,0,11.5,5,11.5,9.4c0,3.6-2.1,7.2-5.8,8.1v0.1c3.9,0.6,4.6,3.4,4.6,6.8c0,3.9,1,5.3,1,6.9
		c0,1.8-1.8,3-3.6,3c-4.2,0-4.5-4.1-4.5-5.4c0-5.9-1.1-8.3-5.3-8.3h-6.4v9.9c0,2.3-1.5,3.8-3.8,3.8c-2.3,0-3.8-1.5-3.8-3.8V5.3
		L152.6,5.3z"/>
	<path class="st1" d="M285.1,15.8h6.5c2.9,0,5.8-0.7,5.8-4.5c0-3.6-2.2-4.5-5.6-4.5h-6.7V15.8L285.1,15.8z M277.5,5.3
		c0-3.4,1.8-4.5,4.5-4.5h11.6c9.1,0,11.5,5,11.5,9.4c0,3.6-2.1,7.2-5.8,8.1v0.1c3.9,0.6,4.6,3.4,4.6,6.8c0,3.9,1,5.3,1,6.9
		c0,1.8-1.8,3-3.6,3c-4.2,0-4.5-4.1-4.5-5.4c0-5.9-1.1-8.3-5.3-8.3h-6.4v9.9c0,2.3-1.5,3.8-3.8,3.8c-2.3,0-3.8-1.5-3.8-3.8V5.3
		L277.5,5.3z"/>
	<path class="st1" d="M203,15c7,1.6,8.8,5.8,8.8,9.7c0,6.1-4.6,10.6-13.8,10.6c-9.7,0-14.1-4.9-14.1-8.5c0-1.9,1.4-3.2,3.2-3.2
		c4.2,0,3.1,6.1,10.8,6.1c4,0,6.2-2.2,6.2-4.4c0-1.4-0.7-2.9-3.3-3.5l-8.6-2.2c-7-1.8-8.2-5.6-8.2-9.2C184,2.8,190.9,0,197.4,0
		c6,0,13,3.4,13,7.9c0,1.9-1.6,3-3.5,3c-3.6,0-2.9-5-10.1-5c-3.6,0-5.5,1.6-5.5,4s2.8,3.1,5.2,3.6L203,15L203,15z"/>
	<path class="st1" d="M222.8,16.2h6c3.1,0,5.4-1.9,5.4-4.8c0-3.4-2.4-4.8-6.2-4.8h-5.2V16.2L222.8,16.2z M215.1,5.3
		c0-3.4,1.8-4.5,4.5-4.5h10.5c6.5,0,11.6,3.2,11.6,10.7c0,6.1-4.3,10.7-11.7,10.7h-7.3v9.1c0,2.3-1.5,3.8-3.8,3.8s-3.8-1.5-3.8-3.8
		V5.3L215.1,5.3z"/>
	<path class="st1" d="M258.7,29.1c7,0,7-5.4,7-11.9c0-6.5-0.7-11-7-11c-6.3,0-7,4.6-7,11C251.7,23.7,251.5,29.1,258.7,29.1 M258.7,0
		c11,0,14.6,7.3,14.6,17.2c0,9.5-3.1,18-14.6,18c-12.1,0-14.6-7.9-14.6-18C244,7.3,247.6,0,258.7,0"/>
	<path class="st1" d="M315.3,7.2h-5.5c-2.2,0-4-1.1-4-3.2c0-2.1,1.8-3.2,4-3.2h18.6c2.2,0,4,1.1,4,3.2c0,2.1-1.8,3.2-4,3.2H323v24
		c0,2.3-1.5,3.8-3.8,3.8s-3.8-1.5-3.8-3.8V7.2L315.3,7.2z"/>
	<path class="st0" d="M0,8c0-4.2,3.4-7.5,7.5-7.5c4.2,0,7.5,3.4,7.5,7.5c0,4.2-3.4,7.5-7.5,7.5C3.4,15.5,0,12.1,0,8"/>
	<path class="st1" d="M7.5,34.7c-1,0-1.9-0.9-1.9-2V20.4c0-1.1,0.8-2,1.9-2c11.9,0,12.8-16,29.8-16c1,0,1.9,0.9,1.9,2v12.2
		c0,1.1-0.8,2-1.9,2C25.8,18.6,25,34.7,7.5,34.7"/>
</g>
</svg>
