<?xml version="1.0" encoding="utf-8"?>
<!-- Generator: Adobe Illustrator 22.1.0, SVG Export Plug-In . SVG Version: 6.00 Build 0)  -->
<svg version="1.1" id="Layer_1" xmlns="http://www.w3.org/2000/svg" xmlns:xlink="http://www.w3.org/1999/xlink" x="0px" y="0px"
	 viewBox="0 0 428.2 261.3" style="enable-background:new 0 0 428.2 261.3;" xml:space="preserve">
<style type="text/css">
	.st0{fill:#682145;}
</style>
<g>
	<path class="st0" d="M379.3,7.1c0.3,0,0.6,0.3,0.9,0.3c0.3,0.4,0.7,0.4,1.1,0c0.6-0.3,1.3-0.6,1.9-1.2c0.4-0.6,0.8-1.6,0.5-2.6
		c0-0.3-0.3-0.9-0.5-1.3c-0.3,0-0.3-0.4-0.7-0.7c-0.3-1-1.6-1-2.2-0.1c-0.3,0-0.6,0.3-1,0.2c-0.4,0-0.6,0.3-0.9,0.7
		c-0.4,0.9-0.4,1.9,0.2,2.9C378.7,5.8,379,6.5,379.3,7.1"/>
	<path class="st0" d="M382.5,28.3c-2,3.2-3,6-3.9,7.2c-1.1,2.1-1.6,3.2-2,3.2c0-0.4-0.4-0.9-0.4-1.3c-0.4-1.3,0.6-4.2,0.3-5.9
		c0.1-2.1,0.2-4.2,0.3-6.3c-0.4-0.9,0.2-2.4,0.2-3.7c0.9-2.3,0.7-4.7,0.8-6.3c0.1-2.2-1.3-2.2-1.7-3c-0.8,0-2.1-0.9-2.5-0.5
		l-1.3,0.8c-0.4,0.4-0.9,0.8-0.9,1.2c0,0.8-0.6,1.2-0.6,1.7c-0.5,0.8-0.4,2.1-0.4,2.9c-0.5,0.8-0.1,2.9-0.6,3.7
		c-0.1,0.4-0.3,0.8-0.4,1.2c-0.3,0.3-0.7,0.7-1,1.2l-0.6,1c-0.2,0.3-0.4,0.7-0.6,1.1l-1.3,1.9l-2.6,3.7l-0.4,0.7l-0.1,0.2l0,0.1
		l-0.1,0.1l-0.3,0.3l-1.1,1.4l-1,1.3l-0.1,0.2c-0.1,0.1-0.1,0.2-0.2,0.2c-0.1,0.1-0.2,0.2-0.4,0.3c-0.2,0.1-0.4,0.1-0.6,0.1l-0.3,0
		c-0.2,0-0.4-0.1-0.5-0.2c-0.1,0-0.2-0.1-0.3-0.2l-0.1-0.1l-0.1-0.1c-0.1-0.3-0.1-0.5-0.1-0.6l-0.3-1.6l0-0.1l-0.1,0
		c-0.1-0.3-0.2-0.6-0.2-1c-0.4-1.2-0.7-2.5-0.9-3.7l-0.2-0.9c0-0.5,0.1-0.9,0.3-1.3l0.1-0.2l0.1-0.1l0.1-0.1l0.1-0.2
		c0.4-0.4,0.7-0.6,1-0.8l0.4-0.2l0.7-0.5l0.7-0.6c0.5-0.5,1-1,1.3-1.4c0.8-1.1,1.3-2.2,1.5-3.2l0.2-0.6l0.2-1.1
		c0.1-0.9,0.2-1.5,0.1-2c-0.1-0.8-0.3-1.6-0.5-2.4c-0.4-0.9-0.9-1.5-1.6-1.7c-0.4-0.2-1.2-0.2-2.3,0l-1.3,0.4
		c-0.5,0.1-0.9,0.2-1.3,0.4c-1.4,0.6-2.6,1.7-3.6,3.3c-1.5,2.3-2.4,5.4-2.8,9.5c0,0.5,0,1,0.1,1.5c-0.1,0.3-0.3,0.6-0.4,0.9
		c-0.5,0.9-0.8,1.5-1.1,1.8c0,0-0.1,0.1-0.1,0.1c-0.4,0.4-0.8,0.7-1.1,0.9c-0.1,0.1-0.2,0.2-0.4,0.3l-0.4,0.4
		c-0.5,0.3-0.8,0.4-1.1,0.4c0.1-1,0.1-2.1,0-3.4l-0.1-0.3l-0.1-0.2l0.1-0.1c-0.1-1.2-0.3-2.3-0.6-3.1c-0.4-1.1-0.7-1.9-1.1-2.4
		c-0.2-0.4-0.5-0.9-1-1.5c-0.2-0.2-0.3-0.5-0.5-0.7l-0.2-0.2l-0.1-0.1l-0.5-0.7c-0.3-0.4-0.5-0.6-0.5-0.7c-0.4-0.5-0.9-0.7-1.3-0.6
		l-0.3,0l-0.4,0.1c-0.1,0-0.4,0-0.8,0c-0.4,0-0.7,0.1-0.8,0.1c-0.1,0-0.9,0.1-2.3,0.3c-0.2,0-0.5,0.1-0.8,0.2
		c-0.1-0.4-0.2-0.8-0.3-1.2c-0.2-0.5-0.4-1-0.6-1.4c-0.6-1.1-1.2-1.5-2-1.4c-1.2,0.1-2.4,0.7-3.7,1.9c-1.4,1.2-2.1,2.2-2.1,3.1
		l0,0.1c-0.2,2.2-0.2,3.9-0.2,5.2c0,0,0,0,0,0c-0.7-0.3-1.5,0.2-2.2,1.4l-0.6,1c-0.2,0.3-0.4,0.7-0.6,1.1l-1.3,1.9l-2.6,3.7
		l-0.4,0.7l-0.1,0.2l0,0.1l-0.1,0.1l-0.3,0.3l-1.1,1.4l-1,1.3l-0.1,0.2c-0.1,0.1-0.1,0.2-0.2,0.2c-0.1,0.1-0.2,0.2-0.4,0.3
		c-0.2,0.1-0.4,0.1-0.6,0.1l-0.3,0c-0.2,0-0.4-0.1-0.5-0.2c-0.1,0-0.2-0.1-0.3-0.2l-0.1-0.1l-0.1-0.1c-0.1-0.3-0.1-0.5-0.1-0.6
		l-0.3-1.6l0-0.1l-0.1,0c-0.1-0.3-0.2-0.6-0.2-1c-0.4-1.2-0.7-2.5-0.9-3.7l-0.2-0.9c0-0.5,0.1-0.9,0.3-1.3l0.1-0.2l0.1-0.1l0.1-0.1
		l0.1-0.2c0.4-0.4,0.7-0.6,1-0.8l0.4-0.2l0.7-0.5l0.7-0.6c0.5-0.5,1-1,1.3-1.4c0.8-1.1,1.3-2.2,1.5-3.2l0.2-0.6l0.2-1.1
		c0.1-0.9,0.2-1.5,0.1-2c-0.1-0.8-0.3-1.6-0.5-2.4c-0.4-0.9-0.9-1.5-1.6-1.7c-0.4-0.2-1.2-0.2-2.3,0l-1.3,0.4
		c-0.5,0.1-0.9,0.2-1.3,0.4c-0.7,0.3-1.3,0.7-1.9,1.2c-0.1,0-0.1,0.1-0.2,0.2l-0.4,0.4l-0.3,0.3c0,0,0,0.1-0.1,0.1
		c-0.2,0.3-0.5,0.6-0.7,1c-0.9,1.4-1.7,3.2-2.2,5.3c-0.2,0.4-0.4,0.9-0.8,1.8l-0.2,0.6l-0.3,0.7l-0.5,1c-0.1,0.2-0.2,0.4-0.3,0.6
		l-0.1,0.3l-0.1,0.2l-1.1,2l-2.2,3.9l-0.9,1.5l-0.9,1.4l-1,1.4l-0.1,0.2l-0.1,0.2l-0.2,0.2c-0.1,0-0.1,0.1-0.2,0.1
		c-0.9,0.1-1.2-1.3-0.7-4.4l0.1-1.4c0.1-1.1,0.2-2,0.3-2.6c0.1-0.1,0.2-0.3,0.2-0.6l0.1-2.6l0-1.9c0.3-0.7,0.4-1.3,0.4-1.9
		c0-0.1,0-0.3-0.1-0.5l-0.1-0.5l0.1-0.2l0-0.2l0.5-1.7c0.2-0.6,0.3-1.2,0.4-1.8c0.1-0.5,0.3-1.8,0.6-4.1c0.2-2.8-0.4-4.4-1.8-4.8
		c-0.5-0.2-0.9-0.3-1.2-0.3c-0.5-0.1-0.9-0.2-1.4-0.2c-1.1,0-2.1,0.3-2.9,0.9c-0.2,0-0.4,0.2-0.6,0.4l-0.3,0.4l-0.2,0.3l-0.2,0.6
		l-0.3,0.6l-0.4,1l-0.4,1c-0.3,0.9-0.6,1.5-0.8,2l-0.5,1c-0.1,0.2-0.1,0.4-0.2,0.6l-0.2,0.5l-1,1.9l-2.4,5.3l-4.4,12.1l-0.3,0.4
		c-0.1,0-0.1,0.1-0.3,0.2c-0.2,0.1-0.3,0.2-0.4,0.3c-0.6,0-0.9-0.1-1-0.1c-0.1-0.3-0.1-0.5-0.1-0.5l-0.3-1.6c0,0-0.7-1.7-1-2.3
		c-0.2-0.4-0.9-1.2-1.6-1.3c0,0,0,0-0.1,0c-0.2,0-0.4,0-0.6,0.2l0,0c-1.6,1.1-3.1,2.3-3.1,2.3l-0.1,0.1l-0.1,0.1l-0.1,0.1l-0.3,0.3
		l-1.2,1.4l-1.1,1.3l-0.4,0.3c-0.1,0.2-0.5,0.4-0.9,0.5l-0.4,0l-0.2-0.1l-0.2-0.1c-0.2-0.1-0.3-0.3-0.4-0.6
		c-0.1-0.2-0.1-0.4-0.1-0.6l-0.2-2c1.8-3.9,3-6.9,3.6-9.2l0.2-0.7l0.3-0.7c0.3-0.6,0.5-1.1,0.6-1.4l0-0.3l-0.1-0.4
		c0-0.3,0-0.6,0-0.8l0.3-1l0.4-1c0.2-0.8,0.3-1.5,0.2-2.1c-0.1-0.8-0.8-1.6-2.1-2.5c-1.4-0.9-2.4-1.1-3-0.5
		c-0.5-0.3-0.9-0.2-1.3,0.5c-0.1-0.1-0.3-0.3-0.5-0.5l-0.3-0.2l-0.3-0.2c-0.5-0.3-1-0.5-1.7-0.5c-1.1,0-2.5,0.2-4.2,0.9
		c-1.4,0.5-2.7,1.1-3.9,1.8c-1.1,0.6-2.1,1.2-3.1,2c-2.6,2.1-4.1,4.6-4.6,7.6l0,0.8c0,0,0,0,0,0.1l-0.9,1.4l-2.5,3.8l-0.5,0.7
		l-0.1,0.1l-0.4,0.5l-1,1.4l-1.1,1.4c0,0-0.1,0.2-0.3,0.5c-0.1,0.1-0.2,0.2-0.3,0.2l-0.4,0.2c-1,0-1.7,0.1-1.9,0.1
		c-0.1,0-0.3,0-0.4-0.1l-0.2-0.1l-0.2-0.1l-0.2-0.3l-0.1-0.3c0-0.2,0-0.3,0-0.4l0-0.2l0-2c1.6-2.4,2.7-4.4,3.5-5.9l1.6-2.2
		c0.2-0.8,0.3-1.5,0.3-2.2c0.3-0.9,0.4-1.4,0.4-1.5c0-1,0-1.8,0-2.4c0-0.6,0-0.9-0.1-1.1l-0.1-0.4c0-0.2-0.1-0.4-0.2-0.5l0-0.4
		l-0.1-0.3l0-0.1c-0.3-0.7-0.6-1.2-0.8-1.5c-0.9-1.2-2.7-1.9-5.4-2.2c-1.4-0.1-3,0.6-4.6,2.1c-0.6,0.5-1.1,1.1-1.5,1.8
		c-0.4,0.6-0.6,1-0.7,1.2c0,0.2,0.2,0.5,0.5,0.9c0.7,0.7,1.7,0.5,3.2-0.7l0.7-0.6l1.2-1.1l0.2-0.2l0.2-0.1c0.1-0.1,0.2-0.2,0.4-0.3
		c0.6,0.1,0.7,0.7,0.5,2l-0.6,1.2l0,0.2l-0.2,0.3c-0.4,0.7-0.7,1.6-1.1,2.6l-0.2,0.6l-0.3,0.5c-1,2.8-1.5,4.7-1.7,5.7l0,0.3l-0.2,2
		c-0.1,0.7-0.1,1.4-0.1,2c-0.1,0.5-0.1,0.8,0,1.1c0,0.2,0,0.5,0.1,1l0.1,0.3l0,0.3l0.1,0.1c0.3,1.1,1,2.2,2,3.1l0.3,0.3l0.3,0.2
		c0.2,0.2,0.4,0.3,0.5,0.4c0.1,0,0.2,0.1,0.3,0.2l0.6,0.2l0.6,0.2l0.8,0c0.3,0,0.7,0.1,1.3,0.2l0.5,0c0.2,0,0.4,0,0.6-0.1l0.2,0
		c1.1-0.2,2.2-0.6,3.3-1.2c0.5-0.4,1-0.9,1.5-1.5l0.7-0.8l0.6-0.8c0.7-1.4,1.3-2.6,1.8-3.8c0.2,0.7,0.4,1.3,0.7,1.8
		c0.6,1,1.6,1.7,3,2.2c1.3,0.5,2.6,0.6,3.9,0.3c0.9-0.1,2-0.8,3.2-1.9c0.4-0.3,0.8-0.6,1.2-1.1l1-1.1c0.5-0.7,0.9-1.2,1-1.4l0,0.6
		c0,0.4,0.1,0.8,0.1,1.2c0,1.2,0.1,2.1,0.2,2.7c0.1,0.6,0.1,0.9,0.2,1.1l0.1,0.4L258,39l0.1,0.3l0.1,0.4l0.1,0.1
		c0.4,0.9,1.2,1.8,2.4,2.8c1.7,0.7,2.6,1,2.8,1l0.2,0l0.2-0.1l0.3,0c1.1-0.1,2.2-0.4,3.4-1c0.9-0.7,1.8-1.7,2.9-3
		c0.4-0.6,0.7-1,0.9-1.5c0,1.2,0.1,2,0.3,2.4c0.7,1.1,1.5,1.8,2.2,2.3l2.1,0.1l0.3-0.1l0.2-0.1l0.1,0c2.8-1.9,3.7-7,6.1-11.9
		c1.8-3.4,2.7-5.6,2.7-5.8c0.2-0.6,0.4-0.9,0.5-1.2l-0.1,0l0.2-0.3l0.2-0.3l0.2-0.6c-0.2,1.5-0.2,2.8-0.2,3.8l0,0.9
		c0,0.3,0,0.5,0,0.6l0,1.5l0.1,1.5c0,1.2,0.1,2.2,0.3,3l-0.1,1.5l0.3,1.2c0.1,0.5,0.2,0.8,0.3,1.1c0,0.4,0.1,0.8,0.3,1
		c0.2,0.4,0.3,0.7,0.5,0.9c0.8,1.4,1.8,2.5,3.2,3.2l0.4,0.1l0.3,0.2c0.1,0,0.3,0.1,0.6,0.2c0.1,0,0.2,0.1,0.3,0.1
		c0.4,0.1,0.8,0.1,1.2,0.1c0.2-0.1,0.4-0.1,0.6-0.1c0,0,0-0.1,0.1-0.1c1.1-0.2,2.2-0.7,3.2-1.4c0.7-0.7,1.5-1.8,2.5-3.3
		c0.8-1.9,1.4-3.3,1.6-4.3c0.4-1,1-2.3,1.6-3.8c0,0.1,0,0.2,0,0.3l0.3,1.7l0.3,1.8c0.2,0.8,0.3,1.9,0.6,3.4l0.2,0.5l0.1,0.5
		c1.3,2.2,3.3,3.4,5.9,3.8c0.3,0.1,0.6,0.2,1.1,0.2c0.9-0.1,1.5-0.2,1.7-0.3c0.9-0.2,1.7-0.5,2.4-0.9c0.5-0.4,1-0.9,1.5-1.5l1.3-1.6
		l0.5-1l0.5-1.1c0.4-0.8,0.6-1.5,0.9-2.1c0.8-1.6,2.1-3.9,3.7-6.9l0,0.3l-0.4,2.4l0.2,0.8l0,1l0,1.1c-0.8,2.3-1.5,4-1.9,5.1
		l-0.5,1.2l-0.7,1.7c-0.3,0.6-0.5,1.2-0.6,1.8c-0.3,0.8-0.7,1.8-1,2.9l-0.4,1.5l-0.4,1.5c-0.5,1.7-0.8,2.6-0.8,2.8c0,0.3,0,0.6,0,1
		l-0.1,1c0,0-0.1,0.1-0.1,0.2l0.1,0.4c-0.2,1.6-0.2,2.7-0.1,3.1c0,0.5,0.1,0.8,0.2,1.1l0,0.3c0.2,1.6,0.6,2.7,1.3,3.5
		c0.4,0.5,1.1,1.1,2.2,1.8c0.1,0.1,0.3,0.2,0.5,0.4c0.1,0.1,0.2,0.1,0.3,0.2l0.1,0.1l-0.1,0c0.5,0.4,1.2,0.5,2,0.3
		c0.8,0.4,1.7,0.2,2.7-0.4c0.7-0.7,1.3-1.4,1.9-2.3c0.5-1.1,1-2.4,1.4-3.9l0.5-2l0.4-2l0.3-1.4c0.1-0.5,0.2-1,0.3-1.5l0.5-2.9
		c0.1-0.5,0.2-0.9,0.2-1.2l0.2-2.4l0.2-2.5c0.3,0.4,0.7,0.7,1.3,0.9c0.7,0.2,1.2,0.4,1.7,0.5c0.7,0.2,1.3,0.1,1.8-0.1
		c0.4-0.1,0.9-0.4,1.6-0.7c0.5-0.2,1-0.5,1.6-1c0.6-0.4,1.1-1,1.5-1.6c0.2-0.2,0.4-0.5,0.6-0.9l0.5-1c0.1-0.2,0.2-0.6,0.4-1.2
		l0.2-0.8l0.2-0.8l0.5-0.2l0.5-0.1c0.3-0.1,0.5-0.2,0.6-0.3c0,0,0.2-0.1,0.4-0.3l0.4-0.1l0.2-0.1l0.9-0.6l0.1-0.1
		c0.1,0,0.3-0.1,0.4-0.3l0.4-0.3c0.2-0.1,0.6-0.5,1.2-1c0.2-0.1,0.3-0.3,0.5-0.4l0.1,0.7c0.2,0.8,0.3,1.9,0.6,3.4l0.2,0.5l0.1,0.5
		c1.3,2.2,3.3,3.4,5.9,3.8c0.3,0.1,0.6,0.2,1.1,0.2c0.9-0.1,1.5-0.2,1.7-0.3c0.9-0.2,1.7-0.5,2.4-0.9c0.5-0.4,1-0.9,1.5-1.5l1.3-1.6
		l0.5-1l0.5-1.1c0.4-0.8,0.6-1.5,0.9-2.1c0.1-0.1,0.1-0.3,0.2-0.4c0.1-0.1,0.2-0.1,0.2-0.2c0.9-1.2,2.2-2.9,2.6-4.2
		c0-0.8,0.3-0.9,0.8-1.7c0,0.4,0,5.9,0,5.9c0.3,1.7,0,5.4,0.8,7.1c0.4,0.9,0.7,1.9,1.5,2.3c0.4,0,0.4,0.4,0.8,0.5
		c0.8,0.9,1.7,0.6,2.9,0.2c0.4,0,1.5-1.7,1.9-2.4c3-4.7,4.7-9.7,5-10.4C384.2,27.7,383.1,27.1,382.5,28.3 M261.3,17.7l0,0.1
		c-0.5,0.3-0.8,0.6-1,0.9c-0.1,0.2-0.2,0.5-0.3,0.8l-0.3,0.8l-0.1,0.8l-0.2,0.9l-0.2,0.9l-0.3,0.8c-0.2,0.7-0.3,1.3-0.4,1.7
		c-0.2,0.6-0.3,0.9-0.3,1.2l-0.5,0.6l-0.5,0.7l-0.2,0.3l-0.3,0.3l-0.7,0.9c-1.2,1.5-2.2,2.5-2.9,2.8c-0.3,0.1-0.5,0.2-0.7,0.1
		c-0.1,0-0.2-0.1-0.3-0.2c-0.1-0.3-0.1-0.8-0.1-1.4l0-0.7l0-0.8c0-0.7,0.1-1.4,0.2-2.2l0.2-0.8l0.2-0.8c0.1-0.6,0.3-1.1,0.6-1.4
		l0.3-0.4l0.4-0.3c0.3-0.3,0.6-0.6,0.7-0.7c0.2-0.4,0.5-1.1,0.9-2c0.1-0.2,0.3-0.5,0.5-0.8l0.3-0.4l0.3-0.4l0.2-0.3l0.2-0.5
		c0.2-0.4,0.3-0.6,0.5-0.8l0.5-0.1l0.4-0.1l0.4,0c0.6,0.1,1.4,0.2,2.5,0.1L261.3,17.7C261.4,17.7,261.3,17.7,261.3,17.7 M309.5,24.9
		l-0.1-0.4c0.1-0.7,0.1-1.1,0.2-1.1l0-0.1c0,0,0.1-0.2,0.2-0.3l0.2-0.5c0.2-0.4,0.3-0.7,0.4-0.8c0.1-0.3,0.3-1,0.7-2.1l0.2-0.6
		l0,0.1c0-0.1,0-0.3,0.1-0.3l0.1-0.1c0.1-0.1,0.3-0.2,0.7-0.2l0.1,0.1l0.1,0.1l0.1,0.1l0.3,0.3l0,0.6c0.1,0.2,0.1,0.6,0.1,1.2
		c-0.7,1.9-1.3,3.2-1.9,3.9c-0.7,0.4-1,0.7-1,0.7C310,25.5,309.8,25.4,309.5,24.9 M325.1,42.7c-0.1,0-0.2,0.3-0.2,0.6l0,0.4
		c0,0.2,0,0.3-0.1,0.3c-0.1,0.1-0.1,0.6-0.1,1.7c-0.1,0.1-0.1,0.5-0.1,1l-0.1,2l-0.1,0.5l0,0.6c-0.1,1.1-0.2,1.7-0.3,2l-0.3,1.2
		l0,0.6l-0.2,0.8l-0.2,0.8c-0.2,0.6-0.4,1.1-0.6,1.4c-0.3,0.6-0.7,1.3-1.3,1.8c-0.1-1.3-0.2-2.1-0.4-2.4l0-0.3
		c0.1-0.1,0.2-0.2,0.2-0.3l0-0.4l0-1.5l0.1-0.1l0.1-1.3c0.1-0.4,0.3-1,0.4-1.9c0.2-0.9,0.3-1.4,0.3-1.5c0.1-0.6,0.3-1.3,0.6-2.2
		c0.3-1,0.5-1.5,0.6-1.7l0.7-2.4l0.2-0.6c0,0,0.1-0.1,0.2-0.4c0.2,0.1,0.3,0.3,0.3,0.6l0.2,0.1l0.1,0.2L325.1,42.7z M340.4,36.5
		l-0.2,0.6l0,0.1l-0.1,0.1c-0.1,0.1-0.2,0.3-0.5,0.8l-0.2,0.4c-0.1,0.2-0.1,0.3-0.2,0.3l-0.4,0.4l-0.7,0.6c0,0-0.1,0-0.2,0.1
		l-0.4,0.1c-0.4,0.1-0.6,0.2-0.6,0.1c-0.2-0.1-0.3-0.2-0.3-0.6l0.2-0.6l0.1-0.1l0.1-0.1c0-0.1,0.1-0.2,0.1-0.2l0.1-0.2l0.1-0.1
		l0.3-0.4l0.2-0.4l0.6-0.4c0.2-0.1,0.4-0.3,0.5-0.5c0,0,0.1-0.1,0.2-0.3l0.1-0.1l0.1-0.1c0-0.1,0.1-0.2,0.4-0.3
		c0.2-0.1,0.4-0.1,0.6,0l0.2,0.1l0.2,0.1L340.4,36.5z M341.5,32.8l-3.7,0.3l-0.3,0.1l-0.3,0.1l-0.3,0.1l-0.3,0.1
		c-0.6,0.2-1.1,0.4-1.5,0.6c-0.5,0.3-1,0.6-1.4,1c-0.3,0.2-0.5,0.4-0.7,0.5l-0.2,0.3l-0.2,0.3c0,0-0.1,0-0.1,0.1l0-0.1
		c0.1-0.2,0.2-0.5,0.2-0.8l0-0.8l0.1-2.9l0.4-0.9l0.4-0.8l0.3-0.7l0.3-0.6c0.2-0.6,0.4-1,0.5-1.3c0-0.1,0-0.2,0.1-0.3
		c0-0.1,0.1-0.4,0.3-0.7l0.2-0.5l0.2-0.4c0.2-0.4,0.3-0.7,0.5-0.9c0.1-0.2,0.2-0.5,0.4-0.9l0.2-0.4l0.2-0.3c0.1-0.2,0.3-0.4,0.4-0.4
		c0.1-0.1,0.2-0.1,0.3,0l0.2,0.1l0.1,0.2c0,0,0.3,0.3,0.9,0.9l0.3,0.3l0.3,0.3l0.3,0.4c0.1,0.1,0.5,1.3,1.1,3.6c0.6,2.3,1,3.5,1,3.6
		C341.7,32.1,341.6,32.5,341.5,32.8 M355.6,22.9l-0.1-0.4c0.1-0.7,0.1-1.1,0.2-1.1l0-0.1c0,0,0.1-0.2,0.2-0.3l0.2-0.5
		c0.2-0.4,0.3-0.7,0.4-0.8c0.1-0.3,0.3-1,0.7-2.1l0.2-0.6l0,0.1c0-0.1,0-0.3,0.1-0.3l0.1-0.1c0.1-0.1,0.3-0.2,0.7-0.3l0.1,0.1
		l0.1,0.1l0.1,0.1l0.3,0.3l0,0.6c0.1,0.2,0.1,0.6,0.1,1.2c-0.7,1.9-1.3,3.2-1.9,3.9c-0.7,0.4-1,0.7-1,0.7
		C356.1,23.5,355.9,23.4,355.6,22.9"/>
	<path class="st0" d="M368.8,4.4c0,0.6,0.3,0.9,0.6,1.3c0.3,0.4,0.7,0.7,0.9,1.3c0.3,0,0.3,0.4,1,0.4c0-0.3,0.3,0,0.3,0l0.6,0
		c0.7-0.6,1-0.9,1.3-1.6c0.6-0.3,0.3-1,0.7-1.6c0.4,0,0.4-0.3,0-0.4c0-0.3,0.4-0.6,0.4-0.6c0.4-0.6,0.7-0.9,1-1.2
		c-0.3-0.4-0.5-0.7-0.5-1c0-0.3-0.3-0.3-0.7-0.3c-0.9-0.7-1.9-0.8-2.8-0.8c-0.3,0-0.4,0.3-0.6,0.3c-0.7,0.6-1.4,1.2-1.7,1.9
		c0,0.3-0.4,0.6-0.7,0.9C368.8,3.5,368.8,3.7,368.8,4.4"/>
	<path class="st0" d="M344.1,174.5c16.5,3.2,34.2-16.4,39.6-43.8c0.4-1.9,0.7-3.8,0.9-5.7c5-2.8,9.3-7.3,12-13.1c0.5-1,0-2.1-1-2.5
		c0,0,0,0,0,0c-0.9-0.4-2,0-2.5,1c-1.7,4-4.6,7.1-8,9.1c0.8-14.1-2.3-26.6-8.1-34.8c-6-2.9-12.1-4.4-17.5-4.4l0,0
		c-3.6,3.7-6.3,8.6-7.7,14.2c-3.3,13.4,2.4,26.5,12.8,31.4c-3.2,20.8-11.3,36.4-18.6,35.5c-0.7-0.1-1.7,0-2-0.7
		c-3.3-7.1-4.3-21.8-1.8-42.6c2.8-22.9,10.9-36.4,13.8-39.7c-0.4-0.4-4.8-1.7-8.2,0.2c-10.8,6.7-20.2,21.7-23.9,40.4
		C318.6,146.5,327.6,171.3,344.1,174.5 M359.3,97.2c1-3,2.6-5.7,4.7-7.8c2,7.3,2.6,17.6,1.6,29.1
		C359.4,113.9,356.7,105.3,359.3,97.2"/>
	<path class="st0" d="M368.2,212.6c-27,1.2-94.3,6.3-148.5,12.4c-89,10.1-168,23.5-219.7,36.3c51.4-9.3,122.4-18.2,201.1-24.4
		c61.4-4.9,118.5-7.4,165.5-7.8c61-0.5,61.1-4.3,61.6-8.4C429.4,209.3,393.2,211.4,368.2,212.6"/>
	<path class="st0" d="M212.2,170.7c20.6,4,36.4-11.8,47.5-31.2c-1.7,18,0.5,33.2,6.2,41.8c2.5,1.6,5.5,2.5,8.6,2.5
		c1,0,1.9-0.1,2.9-0.3c-2.9-8.4-3.1-21.1-0.6-35.7c11.5,21.7,13.7,40.6,30.9,54.5c2.5,2.3,8.5,5.1,14.6,5.4
		c7.8,0.3,15.9-3.2,16.1-14.2c-20.8,14.6-49.9-53.9-49.9-53.9s15.1-8.8,25.2-19.3c10.1-10.5,7.5-24-4.7-24.9
		c7.2,16.1-17.4,29.4-27.4,32.8c0.7-2.3,1.5-4.6,2.3-7c7.7-21.6,18.8-39.2,29.3-48.4c-2.6-4.7-7.7-8.2-14-8.9
		c-4.3-0.5-8.4,0.4-11.7,2.3c-8.9,10.8-17,26.8-22.5,45.5c-1.5,5.3-2.8,10.5-3.7,15.6c-11.1,19.1-25.7,36.7-40,32.6
		c-6.7-1.9-10.7-9.8-11.5-20.3c10.4-1.4,22.2-9,30.8-21.3c7.1-10,10.7-21,10.5-30.3c-2.8-3-6.3-5.7-10.4-7.5c-2.3-1-4.7-1.7-7.1-2.2
		c-0.8-0.3-1.6-0.5-2.4-0.7c-16.6-3.4-34.3,14.6-39.6,40.2C186.4,143.7,195.6,167.4,212.2,170.7 M235.1,87c1.3,7.4,0,16.1-4.3,24.3
		c-5,9.6-12.8,16.3-20.9,19c0.4-4.2,1.3-8.5,2.6-12.9C217.2,102,226.2,90.4,235.1,87"/>
	<path class="st0" d="M73.2,196.4c1.1,16.8,8.7,30,18.2,30.5c2.5,0.1,5.7-0.7,8.2-2.7c-7.5-7.7-14-15.6-19.1-25.7
		c-0.6-1.2-0.9-3.3,0-3.4c18.7-3.2,40.8-6.1,64.6-8.1c8.8-0.8,17.4-1.4,25.6-1.8c-0.9,9.1-30.3,31.9-30.3,31.9s52.6-6.4,58.6-26
		c0.5-2.4,0.1-5.3-0.8-8.3c-0.3-1.1-0.7-2.1-1.2-3.1c-3-6.7-8.8-12.9-15.3-13.3c-0.1,0-0.1-0.1-0.2-0.1c-4-0.2-8.1-0.3-12.3-0.4
		c-1.1-3.7-1.5-9.4,0.3-18c4.1-19,32.5-98.4,5.2-114.1c-16.9-9.7-37.7,1.8-50.7,7.5c-7.2,3.2-14.7,4-20.8,2.7
		c-0.1,1.5,0.2,2.9,0.8,4.2c3.2,7,15.4,8.8,30.9,5.6c-5.8,12.8-11.8,26.9-17.8,41.9c-6.9,17.4-13.7,36.9-18.7,52
		c6.2,10.7,14.8,16.9,21.8,14.6c0.3-0.1,0.7-0.3,1-0.4c0.1-0.1,0.1-0.3,0.2-0.4c3.9-17,9.7-39.3,15.9-59.5
		c6.1-20,12.6-38.7,18.8-54.8c0.8-0.3,1.6-0.7,2.4-1.1c2.9-1.3,5.7-2.7,8.3-4.2c3.9-1.5,6-0.9,7.1,9.3
		c2.8,24.1-23.5,90.3-26.7,101.9c-1.6,5.7-0.9,10.1,0.3,13.2c-7.3,0.3-14.8,0.8-22.5,1.4c-16.5,1.4-32.1,3.6-46.4,6.5
		C76.9,175.9,72.2,182.6,73.2,196.4C73.2,196.4,73.2,196.4,73.2,196.4"/>
	<path class="st0" d="M418.5,85.2c0,0.9-0.2,1.5-1.6,2.7c-1.2,1-3.3,2.1-5.2,2.8c0.7,0.7,3.8,2.7,4.4,3.1c0.9,0.6,1.4,1.6,0.3,2.4
		c-0.4,0.3-1.8,0.7-3-0.3c-1-0.8-2.2-2-3.8-3.6c-0.6,1.8-0.9,2.7-0.9,2.7c-0.2,0.4-0.3,0.7-0.5,1c-0.3,0.5-1.1,1.2-1.7,0.8
		c-0.5-0.3-0.6-0.8-0.6-1.7c0-0.6,0.3-2,0.9-4.1c0.6-2.1,1.2-3.7,1.9-5.4c0.1-0.3,0.6-1.9,2.6-2.1c1.9-0.2,2.5-0.1,4.9-0.2
		C417.3,83.4,418.5,84,418.5,85.2 M415.5,85.5c-0.3,0-0.6,0-1-0.1c-0.4,0-0.8,0-1.4,0c-0.3,0-1.2,0.1-1.4,0.1
		c-0.3,0.7-0.5,1.3-0.7,1.7c-0.3,0.8-0.5,1.5-0.7,2c2.5-0.9,3.7-1.7,4.3-2c0.7-0.5,1-0.9,1.1-1.2C415.8,85.7,415.7,85.5,415.5,85.5"
		/>
	<path class="st0" d="M411.3,101.9c-1,0-2-0.1-3-0.4c-3.1-0.8-5.5-2.7-6.9-5.5c-1.4-2.7-1.6-5.8-0.5-8.8c1-3,3.2-5.6,6-7.2
		c2.9-1.6,6.2-2.1,9.3-1.3c3.1,0.8,5.5,2.7,6.9,5.5c1.4,2.7,1.6,5.8,0.5,8.8C421.7,98.4,416.6,101.9,411.3,101.9 M413.1,80.2
		c-1.7,0-3.5,0.5-5.1,1.4c-2.4,1.4-4.3,3.6-5.1,6.2c-0.9,2.6-0.7,5.3,0.4,7.6c1.1,2.2,3.1,3.8,5.6,4.4c5.1,1.3,10.8-1.9,12.6-7.2
		c0.9-2.6,0.7-5.3-0.4-7.6c-1.1-2.2-3.1-3.8-5.6-4.4C414.7,80.3,413.9,80.2,413.1,80.2"/>
</g>
</svg>
