<?xml version="1.0" encoding="utf-8"?>
<!-- Generator: Adobe Illustrator 22.1.0, SVG Export Plug-In . SVG Version: 6.00 Build 0)  -->
<svg version="1.1" id="Layer_1" xmlns="http://www.w3.org/2000/svg" xmlns:xlink="http://www.w3.org/1999/xlink" x="0px" y="0px"
	 viewBox="0 0 5715.9 1376.5" style="enable-background:new 0 0 5715.9 1376.5;" xml:space="preserve">
<style type="text/css">
	.st0{fill-rule:evenodd;clip-rule:evenodd;fill:#8CBE4F;stroke:#FFFFFF;stroke-width:20;stroke-miterlimit:10;}
	.st1{fill:#2C8147;}
	.st2{fill-rule:evenodd;clip-rule:evenodd;fill:#FFFFFF;}
</style>
<g>
	<path class="st0" d="M1233,1376.5c-119.3,0-247.4-34.2-371.3-67c-108.9-29-211.7-56.3-300.6-59.4c-4.9-0.2-9.8-0.2-14.8-0.2
		c-45.9,0-95.7,6.7-151.4,14.9l-7.1,1.1c-53.6,7.9-104.1,15.2-150.9,15.2c-69.5,0-120-17.8-154.5-54.4
		c-34.3-36.4-49.5-89.2-45.5-156.9c5.8-94.9-6.5-194.3-18.4-290.5c-17.2-139.4-33.4-271,4.2-383.7c9.1-27.5,13.6-56,18.4-86.3
		C69.7,130.3,125.9,3.4,593.1,0h9.2c133.5,0,207.2,21.2,285.2,43.6c73.7,21.2,150,43.2,295.4,50c57.8,2.7,114.2,4,167.4,4
		c153.5,0,266.5-11.2,357.1-22.1c17.5-2.1,34.3-4.2,50.6-6.3c71.1-9,132.6-16.8,195.8-16.8c5.8,0,11.6,0.1,17.6,0.2
		c124.8,2.9,233.7,4.3,332.7,4.3c259.3,0,453.1-10,575.7-29.8c53.2-8.6,100.6-9.4,144.8-9.4l12.3,0.1h10.3
		c261.5-17.9,575.7,20,737.3,20c24.9,0,51.3-0.6,79.3-1.4c30.8-0.7,62.6-1.4,95.8-1.4c112.9,0,262.3,15.2,420,31.2
		c183.5,18.7,373.2,37.9,538.3,37.9c38.6,0,74.7-1.1,107.1-3.3c50.6-3.4,95.7-5,137.4-5c183.1,0,479.6,28.6,535.3,252
		c40.7,163.4,55.9,260.9,18.1,449.6c-7.1,36.3-16.8,67.9-25.2,95.8c-17.8,59.5-30.7,102.5-16.1,165.6
		c21.9,94.5,15.7,161.9-19.4,206.1c-39.7,49.8-177.4,49.8-196.7,49.8c-99.1,0-449.4-37-788-72.8c-272.6-28.9-554.5-58.7-614.4-58.7
		c-28.4,0-70.6-1.6-129.3-3.9c-104.2-3.9-261.3-9.9-444.5-9.9c-249.9,0-485.7,11.2-700.9,33.3c-483.2,49.5-814.3,91.9-1056,122.8
		c-228,29.2-365.6,46.8-472.2,50.4C1246.6,1376.3,1239.8,1376.5,1233,1376.5L1233,1376.5z"/>
	<path class="st1" d="M5621.7,358.2c-43-172-281.9-218.9-604.4-197.3c-322.6,21.5-804.5-65.6-1069.9-65.6
		c-221.2,0-864-41.8-1069.2-8.8c-222.4,35.8-612.3,33.5-920.5,26.4c-175.6-4.1-339.3,61.8-790,40.8
		c-308.2-14.3-328.2-95.3-586.2-93.5C29.3,64.2,130.4,238.9,73.1,410.8c-57.4,172,31.8,420.9,17.5,657.3
		c-14.3,236.6,252.7,103.5,460.7,110.6c207.9,7.1,472.6,133.3,687.6,126.1c215.1-7.2,591.4-77.3,1523.6-172.9
		c598.9-61.4,1145.3-19.9,1281.4-19.9c136.4,0,1302.4,131.5,1481.5,131.5c43.8,0,111.1-11.9,73.2-175.3
		c-26.8-114.5,18.6-178,40.9-289.2C5674.3,603.6,5661.7,518.2,5621.7,358.2z"/>
	<g>
		<path class="st2" d="M2953.7,273.8c15.2,29.4-26.5,123.5-89,143.4c-41.3,10.7-92.9,8-122.3-23.9c-17.1-23.9-26.5-55.8-11.9-83.7
			c5.4-12,18.6-13.2,30.6-13.2c15.8,1.3,11.9,22.6,18.6,34.5c13.2,14.6,34.6,5.3,49.1-1.3c21.3-13.3,7.8-39.3,32-61.1
			C2884.8,246.6,2938.6,244.3,2953.7,273.8z"/>
		<path class="st2" d="M1577.1,466.9c15.2-14.7,34.5-21.8,54.5-25.4c29,3.7,56.3,12.8,76.3,36.4c70.9,96.3,81.7,234.4,58.2,357.9
			c-16.4,50.9-51,103.6-112.7,109c-30.8,12.7-91.8-10.9-109.5-36.3C1410.1,716,1503.8,538,1577.1,466.9z M1609.9,525.1
			c-23.7,20-27.3,49-34.5,76.3c-12.8,72.7-12.8,152.7,14.5,218c7.3,10.9,20,16.3,29.1,7.2c58.2-79.9,43.7-208.9,11-296.1
			C1624.4,523.3,1615.4,516,1609.9,525.1L1609.9,525.1z"/>
		<path class="st2" d="M1050.3,939.8c-16.2,14.2-31.7,19-56.7,19.2c-42-0.8-63.3-25-88.7-45.7c-16,10.3-37.8,22.4-57.4,30.7
			c-41.3,18.4-89.8,2-124.8-19.4c-49.5-31.8-53.6-87.5-52.1-140.9c1.1-78.2,75.1-128.9,139.8-155.4c19.5-6.3,57.7-5.8,66.7-28.2
			c3.9-30.3,6.6-74-22.4-98.8c-19-1.3-39.4-10.2-58.9-3.8c-16.6,20,17.9,18.3,22.4,37.8c2.7,17.3-4.5,39.8-14.8,52.5
			c-20.5,21.7-54.4,13.7-80.8,8.2c-14.7-10.5-21.4-24.3-28-40c-2-28.7,0-59.2,18.5-79c53.1-53.9,138.4-42.8,206.3-30.8
			c36.1,2.4,70.3,35.1,79.8,68.2c23.4,110.4,18.1,224.7,16.3,341.1c6.9,40.5,31-5.7,38.1,33l3.5,34.6L1050.3,939.8z M872.4,672.5
			c-23.2,4.2-39.3,18.5-54.2,40.4c-14.2,43.1-25.8,135.9,13.4,149.8c14.8,6.7,32.2,4,40.6-6.9c9.3-56.7,11.5-121.5,5.5-175.4
			L872.4,672.5L872.4,672.5z"/>
		<path class="st2" d="M2579,486.5c-18.1,0-21.8,18.2-27.3,29.1l1.8,314.3c3.7,25.5,47.3,25.5,32.7,52.7
			c-36.3,27.3-83.5,36.4-123.5,60c-16.3,3.6-32.7,0-36.3-14.6c-5.5-5.4,3.6-18.2-7.4-21.7c-16.3,20-30.8,38.1-56.3,41.8
			c-49,1.8-83.6-30.9-103.6-70.8l0,0c-36.3-78.1-41.8-170.8-49-259.8c-3.7-40,9-107.2-31-130.9c-5.4-5.4-3.6-18.1,1.8-25.4l14.5-7.3
			c50.9-3.6,105.4-9.1,161.7,5.4c7.3,5.5,9.2,16.4,5.5,23.7c-45.4,21.8-23.6,94.4-27.2,134.4c12.7,74.5,21.7,150.7,56.4,218
			c3.6,5.5,10.9,9.1,20,7.3l12.6-12.7l-3.6-308.9c-1.9-14.5-5.4-32.6-23.7-34.5c-7.3-9-1.8-20,1.8-27.3
			c50.9-14.5,110.9-12.7,161.9-9c10.8,3.6,19.9,10.9,23.5,20L2579,486.5z"/>
		<path class="st2" d="M3003.4,486.5c-18,0-21.9,18.2-27.1,29.1l1.6,314.3c3.6,25.5,47.4,25.5,32.6,52.7
			c-36.2,27.3-83.6,36.4-123.5,60c-16.2,3.6-32.6,0-36.2-14.6c-5.4-5.4,3.6-18.2-7.3-21.7c-16.2,20-31,38.1-56.1,41.8
			c-49.4,1.8-83.7-30.9-103.7-70.8l0,0c-36.3-78.1-41.7-170.8-49.1-259.8c-3.6-40,9.2-107.2-30.8-130.9c-5.5-5.4-3.7-18.1,1.8-25.4
			l14.5-7.3c51-3.6,105.5-9.1,161.9,5.4c7.1,5.5,9.1,16.4,5.5,23.7c-45.5,21.8-23.9,94.4-27.4,134.4c12.6,74.5,21.9,150.7,56.5,218
			c3.6,5.5,10.9,9.1,20,7.3l12.6-12.7l-3.6-308.9c-2-14.5-5.5-32.6-23.7-34.5c-7.4-9-1.8-20,1.7-27.3c50.9-14.5,110.9-12.7,161.9-9
			c10.7,3.6,20,10.9,23.5,20L3003.4,486.5z"/>
		<path class="st2" d="M1423.3,482.6c-41.8-14.4-80-34.4-125.3-36.3c-20,5.4,5.4,25.4-14.6,34.5c-20-23.6-50.8-49-81.8-36.3
			c-61.8,5.5-96.3,58.2-112.6,109c-23.7,123.5-12.8,261.7,58.1,358c20,23.7,47.2,32.8,76.4,36.4c20-3.6,38.1-14.6,54.5-25.5l5.4,9.1
			l1.6,122.5c-6,25.5-16.5,50.8-40,65.6c-20,9-49,21.8-67.1,1.8c-31.3-40.3,118.5-119.4,94.1-143.8c-21.3-12.1-16.7-9.1-27.4-13.7
			c-36.5,4.6-129.7,93.3-136.9,109.7c-20,38.2-4.2,100.5,19.3,133.3c40,43.5,110.8,47.2,167.2,32.6
			c95.4-30.5,123.1-83.4,134.7-168.6c2.8-20,1.8-526.3,1.8-526.3c7.3-10.9,23.7-3.7,27.3-16.4
			C1463.3,500.8,1443.3,491.7,1423.3,482.6z M1279.8,787.9c-7.3,27.3-10.9,56.3-34.5,76.3c-5.5,9.1-14.5,1.8-20-5.5
			c-32.7-87.2-47.3-216.2,11-296.2c9-9.1,21.8-3.6,29,7.3C1292.5,635.3,1292.5,715.2,1279.8,787.9z"/>
		<path class="st2" d="M2106.1,478.1c-19.9-23.7-47.1-32.7-76.3-36.4c-20,3.7-38.1,14.5-54.5,25.4l0,0c0,0,3.9,4.6,0,0
			c36.8-51.4,32.7-53.2,82.2-108.8c59.2-81.6,28.2-140.4-27.2-178.2c-37.1-21.4-84.1-16.3-120.3,2.4c-54.7,27-75.5,121.9-78.4,166.9
			c-2.9,45-8.9,495.6-8.9,495.6c-7.2,11-23.6,3.7-27.2,16.4c-5.5,27.3,14.5,36.3,34.5,45.4c41.8,14.6,80,34.5,125.4,36.3
			c19.9-5.5-5.5-25.5,14.5-34.5c20,23.6,50.8,49,81.6,36.3c61.9-5.5,96.5-58.1,112.7-109C2188,712.5,2177.1,574.4,2106.1,478.1z
			 M1911,257.3c2.4-11.2,20.3-31.4,35.8-24l34.2,45.6c24.2,35.7,23.4,49.6,4.3,75.4c-15.1,12.6-28.1,33.4-48.2,56.1
			C1910.8,371.4,1908.5,301.5,1911,257.3z M2017.1,827c-9.1,9.1-21.8,3.6-29-7.3c-27.3-65.4-27.3-145.4-14.5-218
			c7.3-27.3,10.9-56.3,34.5-76.3c5.5-9.1,14.5-1.9,20,5.5C2060.8,618,2075.3,747,2017.1,827z"/>
		<path class="st2" d="M489.4,319.9c-6,28-5.7,39.4,9.4,61.1c30.3,37.2,68.1,29.6,110.5,23.5c24.2-15.5,30.2-22.2,42.2-47
			c6.1-46.6,6.1-83.3-21.1-117.5c-78.7-93-118.7-75.2-231.4-74c-65.1,0.7-187.7,129.5-187.7,203.5c0,0-0.3,98.7,0,134.7v140.1
			c0.3,18.4,0,32.3,0,32.3c6.8,97,54.9,225.3,169.3,261.9c75.5,19.4,170.3,14.6,223.8-43.8c31.6-43.7,48.7-102.2,21.9-153.3
			c-9.8-21.9-34.2-24.2-56-24.2c-29.2,2.4-21.9,41.3-34.1,63.2C512,807,473,790,446.2,777.9c-46.6-29.2-89.5-103.9-89.8-246.1
			c-2.1-32-1.6-86.1-1.3-105.1c0.7-49.8,23.7-142.7,68.7-159.8c38.3-14.5,76.5-25.7,106.8-13.3C577.9,278,498.5,288.9,489.4,319.9z"
			/>
	</g>
	<g>
		<path class="st2" d="M4669,868.5V471.3c-1.6-20.9-27.7-20.9-40-15.7c-29.7,34.9-123.9,29.6-123.9,73.2
			c38.3,33,31.6,22.1,31.6,84.9v18c-4.1,3.3-9.1,6.4-15.8,9.3c-17.4,7.8-42.3,16.8-64.1,24.4V471.3c-1.7-20.9-28-20.9-40.1-15.7
			c-29.7,34.9-123.8,29.6-123.8,73.2c38.3,33,31.3,22.1,31.3,84.9v254.8c3.5,26.1-31.3,24.5-27.8,52.2c8.7,36.7,57.5,20.9,88.8,26.2
			c35-5.3,80.3,8.7,102.8-19.2c17.4-33.1-38.4-27.9-31.3-59.3v-147l79.9-27.4v174.3c3.6,26.1-31.6,24.5-28,52.2
			c8.7,36.7,57.5,20.9,89,26.2c34.9-5.3,80.1,8.7,102.7-19.2C4717.9,894.6,4662.2,899.9,4669,868.5z"/>
		<path class="st2" d="M5015.7,940.1c-21.3,17.2-54,10-82.6,11.4c-38.4,0-67.1,5.7-98.4-7.1c-7.1-4.3-7.1-12.8-5.5-18.4
			c14.2-4.3,21.3-12.8,26.8-27.1V547.7c-1.3-12.8-9.8-11.4-12.6-15.7c-14.2-1.4-25.8,11.4-31.6,22.8c-25.5,29.9-18.4,99.7-75.5,89.7
			c-7.1-5.6-14.3-10-17.1-18.5c5.8-57,18.6-105.4,30-158.2c4.2-4.3,8.7-12.8,17-11.4c8.7-1.4,17.1,4.2,21.6,11.4
			c76.8,2.9,172.3,2.9,256.4,0c8.4-15.7,39.8-22.7,42.6,1.4l0,0l31.4,141.1c2.8,15.7-5.7,27.1-18.6,32.8c-12.8,5.7-25.7-2.8-35.4-10
			c-21.7-32.8-25.8-75.5-60.1-101.2c-9.9-1.4-18.4,0-20,10l1.6,355.4c4.2,12.8,17.2,25.7,29.8,27.1V940.1z"/>
		<path class="st2" d="M3943.5,672.1c1.7-15.7,27.2-178.1,112.6-208.9c38.1-14.5,85.4-14.5,120,10.9c50.6,43.6,85.2,119.9,69,189
			c-61.9,29.1-121.9,52.7-172.5,76.3c5.2,30.9,14.6,65.4,43.5,83.6c20.1,9,49,21.8,67.2,1.8c9.1-16.3,3.8-45.4,25.5-47.2
			c16.4,0,34.5,1.8,41.9,18.2c20,38.2,7.1,81.8-16.4,114.5c-40,43.5-111,47.2-167.2,32.6c-85.4-27.2-107.3-119.9-121.8-196.2
			C3945.2,746.7,3940.1,702,3943.5,672.1z M4087.1,517.7c-14.6-9.1-34.6,9.1-38.3,20c-7.1,43.6-10.7,101.7,10.9,143.5
			c16.4-5.5,36.4-12.7,52.6-23.6c21.9-23.6,23.9-52.7,3.8-90.8L4087.1,517.7L4087.1,517.7z"/>
		<path class="st2" d="M3974.9,1013.2l-41.3-185.6c-3.9-31.8-45.1-22.5-56.4-1.9c-4.7,0.1-9.5,0.3-14.2,0.5
			c-12.3-8.2-26.2-16.7-28.4-32.6l-2.5-537.3c7.3-14.5,12.2-38.8,36.4-38.8l7.1-21.7c-4.8-12.1-16.8-21.8-31.3-26.7
			c-68-4.8-147.7-7.2-215.7,12.1c-4.7,9.7-12,24.2-2.3,36.3c24.1,2.5,29.1,26.7,31.6,46c0,0,10.9,519.4,4.8,530.1
			c-6.4,10.8-17,17-17,17c-12,2.4-35.5,3.9-56.1-6.6c-61.9-38.6-66.8-132.8-73.3-292.8c1.7-60.8-2.8-164.7,0-249.9
			c0-28.9,13.6-41.2,28.8-48.5c4.8-9.7,2.2-24.2-7.5-31.5c-75.1-19.4-134.8-12.1-202.6-7.3l-19.3,9.7c-7.2,9.7-9.7,26.7-2.3,33.9
			c53.2,31.5,42.3,235.3,43.9,298c1.3,55,2.9,105.4,5.8,173.3c2.7,63,26.1,147.4,60.7,186.4c50.4,56.5,88.1,74.1,156.5,75.9
			c34-4.8,88-4.1,127.9-9.5c118.4-16,108.4-10.7,122.9-8.7c24.5,3.4,45.5,69,72.6,110.5c12.9,9.3,30,20.6,46.8,13.1
			C3967.2,1048.8,3978.4,1033.8,3974.9,1013.2z"/>
		<path class="st2" d="M5498.5,565.1c-16.2-50.9-51-103.6-112.6-109c-21.3-8.9-57.4-0.2-83.1,14.4c-3.2-20.1-29.1-20.1-41.5-14.7
			c-30.9,36.3-128.9,30.9-128.9,76.3c40,34.5,32.6,187.2,32.6,187.2v390.6c3.6,27.3-32.6,25.5-29,54.5c9.1,38.2,60,21.7,92.6,27.1
			c36.4-5.4,83.6,9.2,107.4-20c18.1-34.4-40-29-32.9-61.7V927.4c2.2,2.2,4.5,4.4,6.5,6.5c15.4,14.8,34.4,21.8,54.5,25.5
			c29.3-3.7,56.4-12.8,76.3-36.4C5511.3,826.8,5522.2,688.6,5498.5,565.1z M5362.3,870.3c-5.4,7.3-14.5,14.6-20,5.5
			c-23.8-20-27.3-49.1-34.5-76.4c-1.9-10.8-3.5-21.7-4.8-32.7V655.5c3.5-25.9,9.7-50.9,19.3-74.1c7.1-10.9,20-16.3,29-7.3
			C5409.5,654.1,5394.9,783.1,5362.3,870.3z"/>
	</g>
</g>
</svg>
