<?xml version="1.0" encoding="utf-8"?>
<!-- Generator: Adobe Illustrator 22.1.0, SVG Export Plug-In . SVG Version: 6.00 Build 0)  -->
<svg version="1.1" id="Layer_1" xmlns="http://www.w3.org/2000/svg" xmlns:xlink="http://www.w3.org/1999/xlink" x="0px" y="0px"
	 viewBox="0 0 744.5 147.7" style="enable-background:new 0 0 744.5 147.7;" xml:space="preserve">
<style type="text/css">
	.st0{fill:#234124;}
	.st1{fill:#FFFFFF;}
</style>
<rect y="89.8" class="st0" width="699.2" height="58.3"/>
<g>
	<path class="st1" d="M19.2,132.1V109h8.9l5.3,15.7l5.3-15.7h8.9v23.1H42v-18.2l-5.8,18.2h-5.7l-5.8-18.2v18.2H19.2z"/>
	<path class="st1" d="M54.9,109h5.5v15.4L72.3,109h5.9v23.1h-5.5V117l-11.9,15.1h-5.9V109z"/>
	<path class="st1" d="M104.4,123.6l5.7,1.4c-0.9,2.5-2.3,4.4-4.4,5.6c-2,1.2-4.6,1.8-7.8,1.8c-3.9,0-7.1-1-9.6-3.1s-3.8-5-3.8-8.6
		c0-3.8,1.3-6.8,3.8-8.9c2.5-2.1,5.8-3.2,9.9-3.2c3.6,0,6.5,0.8,8.7,2.5c1.3,1,2.3,2.4,3,4.2l-5.9,1.1c-0.3-1.2-1.1-2.1-2.2-2.8
		c-1.1-0.7-2.4-1-4-1c-2.2,0-3.9,0.6-5.3,1.8c-1.4,1.2-2,3.2-2,6c0,2.9,0.7,5,2,6.2c1.3,1.2,3.1,1.9,5.2,1.9c1.6,0,2.9-0.4,4.1-1.2
		C103.1,126.5,103.9,125.3,104.4,123.6z"/>
	<path class="st1" d="M117.7,109h20.5v23.1h-5.9v-19.2h-8.8v9.8c0,2.8-0.1,4.8-0.4,5.9c-0.2,1.1-0.8,2-1.7,2.6
		c-0.9,0.6-2.4,0.9-4.4,0.9c-0.7,0-2-0.1-3.8-0.2v-3.6l1.3,0c1.2,0,2.1-0.1,2.5-0.4c0.4-0.3,0.6-0.9,0.6-1.9l0-4V109z"/>
	<path class="st1" d="M145.8,109h5.5v15.4l11.9-15.4h5.9v23.1h-5.5V117l-11.9,15.1h-5.9V109z"/>
	<path class="st1" d="M176.6,109h11.7c2.3,0,4.1,0.1,5.2,0.2c1.1,0.2,2.2,0.5,3.1,1c0.9,0.5,1.6,1.1,2.3,1.9
		c0.6,0.8,0.9,1.7,0.9,2.7c0,1.1-0.4,2.1-1.1,3s-1.7,1.6-3,2c1.8,0.4,3.2,1.1,4.1,2.1c1,1,1.4,2.1,1.4,3.5c0,1-0.3,2.1-0.9,3.1
		c-0.6,1-1.5,1.8-2.5,2.4c-1.1,0.6-2.4,1-4,1.1c-1,0.1-3.4,0.1-7.1,0.2h-10V109z M182.5,112.8v5.3h3.9c2.3,0,3.7,0,4.3-0.1
		c1-0.1,1.8-0.4,2.4-0.8c0.6-0.5,0.9-1.1,0.9-1.8c0-0.7-0.3-1.3-0.7-1.7c-0.5-0.4-1.2-0.7-2.2-0.8c-0.6-0.1-2.3-0.1-5.1-0.1H182.5z
		 M182.5,122v6.2h5.5c2.1,0,3.5,0,4.1-0.1c0.9-0.1,1.6-0.4,2.1-0.9c0.6-0.5,0.8-1.1,0.8-2c0-0.7-0.2-1.3-0.6-1.8
		c-0.4-0.5-1-0.8-1.9-1.1c-0.8-0.2-2.6-0.3-5.3-0.3H182.5z"/>
	<path class="st1" d="M224.8,123.6l5.7,1.4c-0.9,2.5-2.3,4.4-4.4,5.6c-2,1.2-4.6,1.8-7.8,1.8c-3.9,0-7.1-1-9.6-3.1s-3.8-5-3.8-8.6
		c0-3.8,1.3-6.8,3.8-8.9c2.5-2.1,5.8-3.2,9.9-3.2c3.6,0,6.5,0.8,8.7,2.5c1.3,1,2.3,2.4,3,4.2l-5.9,1.1c-0.3-1.2-1.1-2.1-2.2-2.8
		c-1.1-0.7-2.4-1-4-1c-2.2,0-3.9,0.6-5.3,1.8c-1.4,1.2-2,3.2-2,6c0,2.9,0.7,5,2,6.2c1.3,1.2,3.1,1.9,5.2,1.9c1.6,0,2.9-0.4,4.1-1.2
		C223.5,126.5,224.3,125.3,224.8,123.6z"/>
	<path class="st1" d="M242.6,132.1v-19.2h-8.7V109h23.3v3.9h-8.7v19.2H242.6z"/>
	<path class="st1" d="M262.4,109h11.7c2.3,0,4.1,0.1,5.2,0.2c1.1,0.2,2.2,0.5,3.1,1c0.9,0.5,1.6,1.1,2.3,1.9
		c0.6,0.8,0.9,1.7,0.9,2.7c0,1.1-0.4,2.1-1.1,3c-0.7,0.9-1.7,1.6-3,2c1.8,0.4,3.2,1.1,4.1,2.1c1,1,1.4,2.1,1.4,3.5
		c0,1-0.3,2.1-0.9,3.1c-0.6,1-1.5,1.8-2.5,2.4c-1.1,0.6-2.4,1-4,1.1c-1,0.1-3.4,0.1-7.1,0.2h-10V109z M268.3,112.8v5.3h3.9
		c2.3,0,3.7,0,4.3-0.1c1-0.1,1.8-0.4,2.4-0.8c0.6-0.5,0.9-1.1,0.9-1.8c0-0.7-0.3-1.3-0.7-1.7c-0.5-0.4-1.2-0.7-2.2-0.8
		c-0.6-0.1-2.3-0.1-5.1-0.1H268.3z M268.3,122v6.2h5.5c2.1,0,3.5,0,4.1-0.1c0.9-0.1,1.6-0.4,2.1-0.9c0.6-0.5,0.8-1.1,0.8-2
		c0-0.7-0.2-1.3-0.6-1.8c-0.4-0.5-1-0.8-1.9-1.1c-0.8-0.2-2.6-0.3-5.3-0.3H268.3z"/>
	<path class="st1" d="M291.1,120.7c0-2.3,0.4-4.3,1.3-5.9c0.7-1.2,1.6-2.2,2.7-3.2c1.2-0.9,2.4-1.6,3.8-2.1c1.8-0.6,3.9-0.9,6.3-0.9
		c4.3,0,7.8,1.1,10.4,3.2c2.6,2.1,3.9,5,3.9,8.8c0,3.7-1.3,6.6-3.9,8.7c-2.6,2.1-6,3.2-10.3,3.2c-4.4,0-7.8-1-10.4-3.1
		C292.4,127.2,291.1,124.3,291.1,120.7z M297.2,120.5c0,2.6,0.8,4.6,2.3,5.9c1.5,1.3,3.5,2,5.8,2c2.4,0,4.3-0.7,5.8-2
		c1.5-1.3,2.3-3.3,2.3-6c0-2.6-0.7-4.6-2.2-5.9c-1.5-1.3-3.4-2-5.9-2s-4.4,0.7-5.9,2C298,115.9,297.2,117.9,297.2,120.5z"/>
</g>
<g>
	<path class="st1" d="M383.4,132.1V109h9.5c3.6,0,5.9,0.1,7,0.3c1.7,0.3,3.1,1.1,4.2,2.3c1.1,1.2,1.7,2.7,1.7,4.5
		c0,1.4-0.3,2.6-1,3.6c-0.7,1-1.5,1.7-2.5,2.3c-1,0.6-2,0.9-3.1,1.1c-1.4,0.2-3.5,0.3-6.1,0.3h-3.9v8.7H383.4z M389.3,112.9v6.5h3.2
		c2.3,0,3.9-0.1,4.7-0.4c0.8-0.2,1.4-0.6,1.9-1.1c0.4-0.5,0.7-1.1,0.7-1.8c0-0.8-0.3-1.5-0.9-2.1c-0.6-0.5-1.4-0.9-2.4-1
		c-0.7-0.1-2.1-0.2-4.3-0.2H389.3z"/>
	<path class="st1" d="M412.2,109h5.5v15.4l11.9-15.4h5.9v23.1H430V117l-11.9,15.1h-5.9V109z"/>
	<path class="st1" d="M443,109H465v3.9h-16v5.3h7.9c2.2,0,4,0.2,5.4,0.6c1.4,0.4,2.7,1.2,3.7,2.3c1,1.1,1.5,2.5,1.5,4
		c0,1.6-0.5,2.9-1.5,4s-2.2,1.9-3.5,2.3c-1.3,0.4-3.2,0.6-5.6,0.6H443V109z M449,128.2h5.8c1.8,0,3.1-0.1,3.9-0.2
		c0.7-0.1,1.4-0.5,1.9-1c0.6-0.5,0.8-1.1,0.8-1.9c0-1.1-0.5-1.8-1.4-2.3c-1-0.5-2.6-0.7-5-0.7h-6V128.2z"/>
	<path class="st1" d="M498.6,132.1h-6.4l-2.6-5.2h-11.7l-2.4,5.2h-6.3l11.4-23.1h6.3L498.6,132.1z M487.7,122.9l-4-8.6l-4,8.6H487.7
		z"/>
	<path class="st1" d="M505.8,109h20.5v23.1h-5.9v-19.2h-8.8v9.8c0,2.8-0.1,4.8-0.4,5.9c-0.2,1.1-0.8,2-1.7,2.6
		c-0.9,0.6-2.4,0.9-4.4,0.9c-0.7,0-2-0.1-3.8-0.2v-3.6l1.3,0c1.2,0,2.1-0.1,2.5-0.4c0.4-0.3,0.6-0.9,0.6-1.9l0-4V109z"/>
	<path class="st1" d="M533.9,109h5.9v9.2h7.9c3.7,0,6.4,0.7,8.1,2.1s2.5,3,2.5,4.9c0,1.6-0.5,2.9-1.5,4c-1,1.1-2.2,1.8-3.5,2.2
		c-1.3,0.4-3.2,0.6-5.6,0.6h-13.8V109z M539.9,128.2h5.8c1.9,0,3.2-0.1,3.9-0.2c0.7-0.1,1.4-0.5,1.9-1c0.6-0.5,0.8-1.1,0.8-1.9
		c0-1.1-0.5-1.8-1.4-2.3c-1-0.5-2.6-0.7-5-0.7h-6V128.2z"/>
	<path class="st1" d="M582.4,123.6l5.7,1.4c-0.9,2.5-2.3,4.4-4.4,5.6c-2,1.2-4.6,1.8-7.8,1.8c-3.9,0-7.1-1-9.6-3.1
		c-2.5-2.1-3.8-5-3.8-8.6c0-3.8,1.3-6.8,3.8-8.9c2.5-2.1,5.8-3.2,9.9-3.2c3.6,0,6.5,0.8,8.7,2.5c1.3,1,2.3,2.4,3,4.2l-5.9,1.1
		c-0.3-1.2-1.1-2.1-2.2-2.8c-1.1-0.7-2.4-1-4-1c-2.2,0-3.9,0.6-5.3,1.8c-1.4,1.2-2,3.2-2,6c0,2.9,0.7,5,2,6.2
		c1.3,1.2,3.1,1.9,5.2,1.9c1.6,0,2.9-0.4,4.1-1.2C581.1,126.5,581.9,125.3,582.4,123.6z"/>
	<path class="st1" d="M600.2,132.1v-19.2h-8.7V109h23.3v3.9h-8.7v19.2H600.2z"/>
	<path class="st1" d="M620,109h11.7c2.3,0,4.1,0.1,5.2,0.2c1.1,0.2,2.2,0.5,3.1,1c0.9,0.5,1.6,1.1,2.3,1.9c0.6,0.8,0.9,1.7,0.9,2.7
		c0,1.1-0.4,2.1-1.1,3s-1.7,1.6-3,2c1.8,0.4,3.2,1.1,4.1,2.1c1,1,1.4,2.1,1.4,3.5c0,1-0.3,2.1-0.9,3.1c-0.6,1-1.5,1.8-2.5,2.4
		c-1.1,0.6-2.4,1-4,1.1c-1,0.1-3.4,0.1-7.1,0.2h-10V109z M625.9,112.8v5.3h3.9c2.3,0,3.7,0,4.3-0.1c1-0.1,1.8-0.4,2.4-0.8
		c0.6-0.5,0.9-1.1,0.9-1.8c0-0.7-0.3-1.3-0.7-1.7c-0.5-0.4-1.2-0.7-2.2-0.8c-0.6-0.1-2.3-0.1-5.1-0.1H625.9z M625.9,122v6.2h5.5
		c2.1,0,3.5,0,4.1-0.1c0.9-0.1,1.6-0.4,2.1-0.9c0.6-0.5,0.8-1.1,0.8-2c0-0.7-0.2-1.3-0.6-1.8c-0.4-0.5-1-0.8-1.9-1.1
		c-0.8-0.2-2.6-0.3-5.3-0.3H625.9z"/>
	<path class="st1" d="M648.8,120.7c0-2.3,0.4-4.3,1.3-5.9c0.7-1.2,1.6-2.2,2.7-3.2c1.2-0.9,2.4-1.6,3.8-2.1c1.8-0.6,3.9-0.9,6.3-0.9
		c4.3,0,7.8,1.1,10.4,3.2c2.6,2.1,3.9,5,3.9,8.8c0,3.7-1.3,6.6-3.9,8.7c-2.6,2.1-6,3.2-10.3,3.2c-4.4,0-7.8-1-10.4-3.1
		C650.1,127.2,648.8,124.3,648.8,120.7z M654.9,120.5c0,2.6,0.8,4.6,2.3,5.9c1.5,1.3,3.5,2,5.8,2s4.3-0.7,5.8-2s2.3-3.3,2.3-6
		c0-2.6-0.7-4.6-2.2-5.9c-1.5-1.3-3.4-2-5.9-2c-2.4,0-4.4,0.7-5.9,2C655.6,115.9,654.9,117.9,654.9,120.5z"/>
</g>
<path class="st0" d="M670.3,74.4V40.8L625.3,0h34.3l25.1,24.1L710.4,0h34l-45.5,40.7v33.8H670.3L670.3,74.4z M536,74.4V0h42.2
	c15.5,0,27,1.8,34.4,5.3c7.4,3.5,11.1,9,11.1,16.3c0,4.1-1.6,7.6-4.9,10.6c-3.3,2.9-8.3,5.4-15,7.4c2.8,0.7,5.4,1.8,7.6,3.4
	c2.3,1.6,4.2,3.6,5.9,6l18.2,25.5h-32.3L588.7,53c-2.3-3.4-5-5.8-8-7c-3-1.3-7.3-1.9-12.8-1.9c-0.4,0-1,0-1.7,0.1
	c-0.7,0-1.3,0.1-1.6,0.1v30.3H536L536,74.4z M578.3,30.5c5.3,0,9.2-0.7,11.8-2.2c2.6-1.4,3.9-3.6,3.9-6.6c0-2.8-1.3-4.9-4-6.4
	c-2.7-1.5-6.6-2.2-11.7-2.2h-13.8v17.3H578.3L578.3,30.5z M400,74.4L449.9,0h33l44.5,74.4h-30.3l-8.2-14.5h-49.3l-9.1,14.5H400
	L400,74.4z M447.9,47.2h33.8l-16-28.3L447.9,47.2L447.9,47.2z M345.3,74.4V13.8h-37.8V0h105.8v13.8h-37.8v60.6H345.3L345.3,74.4z
	 M266.4,74.4V0h29.5v74.4H266.4L266.4,74.4z M176.8,74.4V0h28.6v60.1h49.2v14.4H176.8L176.8,74.4z M135.7,74.4V0h29.5v74.4H135.7
	L135.7,74.4z M0,74.4V0h25.2l36.7,30L98.8,0H124v74.4H95.9V28.4l-34,27.2L28.3,28.4v46.1H0L0,74.4z"/>
</svg>
